Grade -1 lc.ufo
<glyph name="quotedbl" format="2">
  <advance width="804"/>
  <unicode hex="0022"/>
  <outline>
    <contour>
      <point x="234.99666666666667" y="964.0" type="line"/>
      <point x="180.73666666666668" y="1434.8666666666668" type="line"/>
      <point x="179.30333333333334" y="1486.45"/>
      <point x="212.82999999999998" y="1558.0"/>
      <point x="254.80666666666667" y="1558.0" type="qcurve" smooth="yes"/>
      <point x="296.7633333333333" y="1558.0"/>
      <point x="330.28999999999996" y="1486.45"/>
      <point x="329.5733333333333" y="1434.8666666666668" type="qcurve"/>
      <point x="274.03" y="964.0" type="line"/>
    </contour>
    <contour>
      <point x="528.1966666666666" y="964.0" type="line"/>
      <point x="473.22" y="1434.8666666666668" type="line"/>
      <point x="472.50333333333333" y="1486.45"/>
      <point x="506.03000000000003" y="1558.0"/>
      <point x="548.0066666666667" y="1558.0" type="qcurve" smooth="yes"/>
      <point x="589.9633333333333" y="1558.0"/>
      <point x="623.49" y="1486.45"/>
      <point x="622.7733333333334" y="1434.8666666666668" type="qcurve"/>
      <point x="567.2299999999999" y="964.0" type="line"/>
    </contour>
  </outline>
</glyph>
<glyph name="quotesingle" format="2">
  <advance width="511"/>
  <unicode hex="0027"/>
  <outline>
    <contour>
      <point x="238.34666666666666" y="964.0" type="line"/>
      <point x="180.73666666666668" y="1436.3000000000002" type="line"/>
      <point x="180.02" y="1487.8833333333334"/>
      <point x="213.54666666666665" y="1558.0"/>
      <point x="255.5233333333333" y="1558.0" type="qcurve" smooth="yes"/>
      <point x="297.48" y="1558.0"/>
      <point x="331.00666666666666" y="1487.8833333333334"/>
      <point x="330.28999999999996" y="1436.3000000000002" type="qcurve"/>
      <point x="271.39666666666665" y="964.0" type="line"/>
    </contour>
  </outline>
</glyph>
<glyph name="comma" format="2">
  <advance width="564"/>
  <unicode hex="002C"/>
  <outline>
    <contour>
      <point x="162.34" y="-198.63666666666666" type="line"/>
      <point x="204.52" y="-164.7"/>
      <point x="282.7033333333333" y="-69.09"/>
      <point x="298.36" y="-10.173333333333332" type="qcurve"/>
      <point x="236.46333333333334" y="-15.489999999999998"/>
      <point x="177.29999999999998" y="40.24"/>
      <point x="177.29999999999998" y="84.72666666666666" type="qcurve" smooth="yes"/>
      <point x="177.29999999999998" y="128.23333333333335"/>
      <point x="235.84333333333333" y="188.89"/>
      <point x="281.4433333333333" y="188.89" type="qcurve" smooth="yes"/>
      <point x="324.49666666666667" y="188.89"/>
      <point x="385.6066666666666" y="131.02666666666667"/>
      <point x="385.6066666666666" y="76.48333333333332" type="qcurve" smooth="yes"/>
      <point x="385.6066666666666" y="-15.056666666666665"/>
      <point x="264.75" y="-179.43666666666664"/>
      <point x="186.4" y="-228.94" type="qcurve"/>
    </contour>
  </outline>
</glyph>
<glyph name="hyphen" format="2">
  <advance width="712"/>
  <unicode hex="002D"/>
  <outline>
    <contour>
      <point x="76.41666666666667" y="581.8" type="line"/>
      <point x="76.41666666666667" y="682.2" type="line"/>
      <point x="356.4166666666667" y="678.2" type="line"/>
      <point x="636.1333333333333" y="682.2" type="line"/>
      <point x="636.1333333333333" y="581.8" type="line"/>
      <point x="356.4166666666667" y="585.8" type="line"/>
    </contour>
  </outline>
</glyph>
<glyph name="one" format="2">
  <advance width="743"/>
  <unicode hex="0031"/>
  <outline>
    <contour>
      <point x="75.26" y="0.0" type="line"/>
      <point x="75.26" y="60.93333333333333" type="line"/>
      <point x="330.11" y="90.91666666666667" type="line"/>
      <point x="330.11" y="754.0" type="line"/>
      <point x="328.82666666666665" y="1393.8466666666666" type="line"/>
      <point x="73.26" y="1407.5" type="line"/>
      <point x="73.26" y="1472.0833333333333" type="line"/>
      <point x="418.1566666666667" y="1510.1333333333334" type="line"/>
      <point x="436.54" y="1487.3166666666666" type="line"/>
      <point x="433.4066666666667" y="754.0" type="line"/>
      <point x="433.4066666666667" y="90.91666666666667" type="line"/>
      <point x="694.7066666666666" y="60.93333333333333" type="line"/>
      <point x="694.7066666666666" y="0.0" type="line"/>
    </contour>
  </outline>
</glyph>
<glyph name="five" format="2">
  <advance width="957"/>
  <unicode hex="0035"/>
  <outline>
    <contour>
      <point x="-3.453333333333333" y="133.76333333333335" type="qcurve"/>
      <point x="37.596666666666664" y="198.22" type="line"/>
      <point x="109.36666666666667" y="126.08666666666667"/>
      <point x="278.78" y="58.54333333333333"/>
      <point x="409.1333333333333" y="58.54333333333333" type="qcurve" smooth="yes"/>
      <point x="562.2666666666667" y="58.54333333333333"/>
      <point x="765.4533333333333" y="258.3833333333333"/>
      <point x="765.4533333333333" y="451.1666666666667" type="qcurve" smooth="yes"/>
      <point x="765.4533333333333" y="641.13"/>
      <point x="488.93" y="823.2333333333333"/>
      <point x="285.3" y="821.8" type="qcurve" smooth="yes"/>
      <point x="140.07666666666665" y="821.0833333333334" type="line"/>
      <point x="120.94666666666667" y="845.4200000000001" type="line"/>
      <point x="184.28666666666666" y="1472.7333333333333" type="line"/>
      <point x="207.62333333333333" y="1500.0" type="line"/>
      <point x="797.73" y="1500.0" type="line"/>
      <point x="792.0699999999999" y="1396.3833333333334" type="line"/>
      <point x="255.35000000000002" y="1396.3833333333334" type="line"/>
      <point x="245.39000000000001" y="1385.3833333333334" type="line"/>
      <point x="192.33666666666667" y="887.2233333333334" type="line"/>
      <point x="330.55" y="909.5333333333333" type="line"/>
      <point x="564.0533333333333" y="909.5333333333333"/>
      <point x="875.1766666666666" y="693.3466666666667"/>
      <point x="875.1766666666666" y="475.59999999999997" type="qcurve" smooth="yes"/>
      <point x="875.1766666666666" y="241.76666666666668"/>
      <point x="611.0333333333334" y="-28.45"/>
      <point x="414.98333333333335" y="-28.45" type="qcurve" smooth="yes"/>
      <point x="268.49666666666667" y="-28.45"/>
      <point x="61.60333333333334" y="62.33"/>
    </contour>
  </outline>
</glyph>
<glyph name="six" format="2">
  <advance width="1057"/>
  <unicode hex="0036"/>
  <outline>
    <contour>
      <point x="76.62666666666667" y="624.6933333333334" type="qcurve" smooth="yes"/>
      <point x="80.92666666666668" y="965.5933333333334"/>
      <point x="460.0133333333333" y="1464.5833333333333"/>
      <point x="781.46" y="1559.65" type="qcurve"/>
      <point x="806.51" y="1492.3666666666668" type="line"/>
      <point x="533.5733333333334" y="1406.15"/>
      <point x="188.55666666666667" y="970.2666666666667"/>
      <point x="184.9733333333333" y="618.8666666666667" type="qcurve" smooth="yes"/>
      <point x="182.10666666666665" y="331.48333333333335"/>
      <point x="395.7733333333333" y="43.13333333333333"/>
      <point x="560.0666666666667" y="43.13333333333333" type="qcurve" smooth="yes"/>
      <point x="703.4266666666666" y="43.13333333333333"/>
      <point x="882.0133333333333" y="262.76666666666665"/>
      <point x="884.88" y="454.85" type="qcurve" smooth="yes"/>
      <point x="887.7466666666667" y="648.85"/>
      <point x="705.65" y="830.8433333333334"/>
      <point x="571.52" y="830.8433333333334" type="qcurve" smooth="yes"/>
      <point x="505.36333333333334" y="830.8433333333334"/>
      <point x="395.58000000000004" y="796.1966666666667"/>
      <point x="363.93" y="777.2133333333334" type="qcurve"/>
      <point x="343.8466666666667" y="825.8333333333334" type="line"/>
      <point x="378.0433333333333" y="860.4"/>
      <point x="513.0366666666666" y="915.15"/>
      <point x="590.4466666666667" y="915.15" type="qcurve" smooth="yes"/>
      <point x="767.4599999999999" y="915.15"/>
      <point x="997.3266666666666" y="679.6899999999999"/>
      <point x="996.61" y="475.8" type="qcurve" smooth="yes"/>
      <point x="995.8933333333333" y="247.05"/>
      <point x="747.8933333333333" y="-27.733333333333334"/>
      <point x="559.2" y="-27.733333333333334" type="qcurve" smooth="yes"/>
      <point x="345.7766666666667" y="-27.733333333333334"/>
      <point x="73.04333333333334" y="319.0433333333333"/>
    </contour>
  </outline>
</glyph>
<glyph name="colon" format="2">
  <advance width="600"/>
  <unicode hex="003A"/>
  <outline>
    <contour>
      <point x="194.28333333333333" y="84.74666666666666" type="qcurve" smooth="yes"/>
      <point x="194.28333333333333" y="126.80000000000001"/>
      <point x="253.54333333333332" y="188.89"/>
      <point x="299.85999999999996" y="188.89" type="qcurve" smooth="yes"/>
      <point x="346.19666666666666" y="188.89"/>
      <point x="405.4566666666667" y="126.80000000000001"/>
      <point x="405.4566666666667" y="84.74666666666666" type="qcurve" smooth="yes"/>
      <point x="405.4566666666667" y="42.95666666666667"/>
      <point x="346.19666666666666" y="-19.133333333333333"/>
      <point x="299.85999999999996" y="-19.133333333333333" type="qcurve" smooth="yes"/>
      <point x="253.54333333333332" y="-19.133333333333333"/>
      <point x="194.28333333333333" y="42.95666666666667"/>
    </contour>
    <contour>
      <point x="194.28333333333333" y="919.8100000000001" type="qcurve" smooth="yes"/>
      <point x="194.28333333333333" y="961.8633333333332"/>
      <point x="253.54333333333332" y="1023.9533333333333"/>
      <point x="299.85999999999996" y="1023.9533333333333" type="qcurve" smooth="yes"/>
      <point x="346.19666666666666" y="1023.9533333333333"/>
      <point x="405.4566666666667" y="961.8633333333332"/>
      <point x="405.4566666666667" y="919.8100000000001" type="qcurve" smooth="yes"/>
      <point x="405.4566666666667" y="878.02"/>
      <point x="346.19666666666666" y="815.93"/>
      <point x="299.85999999999996" y="815.93" type="qcurve" smooth="yes"/>
      <point x="253.54333333333332" y="815.93"/>
      <point x="194.28333333333333" y="878.02"/>
    </contour>
  </outline>
</glyph>
<glyph name="less" format="2">
  <advance width="993"/>
  <unicode hex="003C"/>
  <outline>
    <contour>
      <point x="172.67666666666668" y="634.0" type="qcurve"/>
      <point x="173.52666666666667" y="635.1333333333333"/>
      <point x="650.7366666666667" y="1020.02"/>
      <point x="722.27" y="1077.6933333333334" type="qcurve" smooth="yes"/>
      <point x="759.5533333333334" y="1107.5866666666666"/>
      <point x="808.24" y="1050.2366666666667"/>
      <point x="772.7099999999999" y="1017.9466666666667" type="qcurve" smooth="yes"/>
      <point x="633.3766666666666" y="892.9766666666667"/>
      <point x="317.5166666666667" y="636.0466666666667"/>
      <point x="315.8833333333333" y="635.5666666666667" type="qcurve"/>
      <point x="317.6566666666667" y="635.0266666666668"/>
      <point x="632.7733333333333" y="382.00666666666666"/>
      <point x="771.0133333333333" y="258.0" type="qcurve" smooth="yes"/>
      <point x="806.8066666666666" y="225.75"/>
      <point x="760.8366666666667" y="167.26666666666668"/>
      <point x="723.5333333333333" y="196.99" type="qcurve" smooth="yes"/>
      <point x="652.0" y="255.94666666666666"/>
      <point x="173.24333333333334" y="632.8866666666667"/>
    </contour>
  </outline>
</glyph>
<glyph name="G" format="2">
  <advance width="1600"/>
  <unicode hex="0047"/>
  <outline>
    <contour>
      <point x="83.26333333333334" y="733.5666666666667" type="qcurve" smooth="yes"/>
      <point x="83.26333333333334" y="1077.3999999999999"/>
      <point x="512.3766666666667" y="1519.1633333333334"/>
      <point x="835.5366666666666" y="1519.1633333333334" type="qcurve" smooth="yes"/>
      <point x="997.2666666666667" y="1519.1633333333334"/>
      <point x="1207.83" y="1451.1233333333334"/>
      <point x="1260.07" y="1408.9633333333334" type="qcurve"/>
      <point x="1284.44" y="1499.98" type="line"/>
      <point x="1356.0300000000002" y="1499.98" type="line"/>
      <point x="1356.0300000000002" y="1047.23" type="line"/>
      <point x="1281.3666666666666" y="1047.23" type="line"/>
      <point x="1255.2333333333333" y="1211.61" type="line" smooth="yes"/>
      <point x="1236.8433333333332" y="1330.3600000000001"/>
      <point x="1009.28" y="1432.7733333333333"/>
      <point x="830.5833333333334" y="1432.7733333333333" type="qcurve" smooth="yes"/>
      <point x="547.9566666666667" y="1432.7733333333333"/>
      <point x="196.05666666666667" y="1073.0833333333333"/>
      <point x="198.05666666666667" y="751.1166666666667" type="qcurve" smooth="yes"/>
      <point x="199.32" y="438.05"/>
      <point x="559.83" y="52.36"/>
      <point x="862.47" y="52.36" type="qcurve" smooth="yes"/>
      <point x="1006.5733333333333" y="52.36"/>
      <point x="1239.6233333333334" y="133.64000000000001"/>
      <point x="1314.1433333333334" y="199.6" type="qcurve"/>
      <point x="1314.1433333333334" y="568.15" type="line"/>
      <point x="1087.6966666666667" y="597.4166666666666" type="line"/>
      <point x="1087.6966666666667" y="661.5833333333334" type="line"/>
      <point x="1587.69" y="661.5833333333334" type="line"/>
      <point x="1587.69" y="597.4166666666666" type="line"/>
      <point x="1417.3366666666666" y="568.15" type="line"/>
      <point x="1417.3366666666666" y="185.81" type="line"/>
      <point x="1343.19" y="101.43666666666667"/>
      <point x="1051.5333333333333" y="-29.123333333333335"/>
      <point x="859.4066666666666" y="-29.123333333333335" type="qcurve" smooth="yes"/>
      <point x="518.7" y="-29.123333333333335"/>
      <point x="83.26333333333334" y="382.85"/>
    </contour>
  </outline>
</glyph>
<glyph name="M" format="2">
  <advance width="2040"/>
  <unicode hex="004D"/>
  <outline>
    <contour>
      <point x="93.26333333333334" y="0.0" type="line"/>
      <point x="93.26333333333334" y="62.653333333333336" type="line"/>
      <point x="307.19" y="97.65333333333334" type="line"/>
      <point x="308.4533333333333" y="753.2833333333333" type="line"/>
      <point x="307.19" y="1400.1366666666665" type="line"/>
      <point x="93.26333333333334" y="1434.1366666666665" type="line"/>
      <point x="93.26333333333334" y="1500.0" type="line"/>
      <point x="473.0566666666667" y="1500.0" type="line"/>
      <point x="751.66" y="783.9000000000001" type="line"/>
      <point x="1009.2433333333333" y="141.71" type="line"/>
      <point x="1275.2133333333334" y="789.4633333333334" type="line"/>
      <point x="1559.5933333333332" y="1500.0" type="line"/>
      <point x="1954.9499999999998" y="1500.0" type="line"/>
      <point x="1954.9499999999998" y="1434.1366666666665" type="line"/>
      <point x="1733.6366666666665" y="1400.1366666666665" type="line"/>
      <point x="1731.6566666666668" y="754.0" type="line"/>
      <point x="1733.6366666666665" y="97.65333333333334" type="line"/>
      <point x="1954.9499999999998" y="62.653333333333336" type="line"/>
      <point x="1954.9499999999998" y="0.0" type="line"/>
      <point x="1389.74" y="0.0" type="line"/>
      <point x="1389.74" y="62.653333333333336" type="line"/>
      <point x="1625.5833333333335" y="97.65333333333334" type="line"/>
      <point x="1627.5833333333335" y="753.2833333333333" type="line"/>
      <point x="1622.0" y="1419.6133333333335" type="line"/>
      <point x="1351.84" y="758.86" type="line"/>
      <point x="1045.86" y="-7.283333333333333" type="line"/>
      <point x="951.75" y="-7.283333333333333" type="line"/>
      <point x="657.4533333333334" y="743.8666666666667" type="line"/>
      <point x="389.2" y="1420.75" type="line"/>
      <point x="388.65333333333336" y="753.2833333333333" type="line"/>
      <point x="389.91666666666663" y="97.65333333333334" type="line"/>
      <point x="612.5500000000001" y="62.653333333333336" type="line"/>
      <point x="612.5500000000001" y="0.0" type="line"/>
    </contour>
  </outline>
</glyph>
<glyph name="S" format="2">
  <advance width="1142"/>
  <unicode hex="0053"/>
  <outline>
    <contour>
      <point x="79.2" y="0.0" type="line"/>
      <point x="79.2" y="467.51666666666665" type="line"/>
      <point x="154.92666666666668" y="467.51666666666665" type="line"/>
      <point x="175.48333333333332" y="325.6866666666667" type="line" smooth="yes"/>
      <point x="193.88666666666666" y="204.61666666666667"/>
      <point x="443.75333333333333" y="52.55"/>
      <point x="615.2766666666666" y="52.55" type="qcurve" smooth="yes"/>
      <point x="785.4166666666667" y="52.55"/>
      <point x="973.71" y="230.70666666666665"/>
      <point x="973.71" y="362.6333333333333" type="qcurve" smooth="yes"/>
      <point x="973.71" y="492.0266666666667"/>
      <point x="789.2733333333333" y="657.4833333333333"/>
      <point x="532.82" y="753.9833333333333" type="qcurve" smooth="yes"/>
      <point x="289.2866666666667" y="846.2"/>
      <point x="120.27" y="1016.8866666666668"/>
      <point x="120.27" y="1154.3866666666665" type="qcurve" smooth="yes"/>
      <point x="120.27" y="1308.07"/>
      <point x="337.22999999999996" y="1519.1833333333334"/>
      <point x="528.6166666666667" y="1519.1833333333334" type="qcurve" smooth="yes"/>
      <point x="644.46" y="1519.1833333333334"/>
      <point x="816.3633333333333" y="1452.3566666666666"/>
      <point x="872.7966666666666" y="1398.3066666666666" type="qcurve"/>
      <point x="894.3133333333333" y="1487.24" type="line"/>
      <point x="966.62" y="1487.24" type="line"/>
      <point x="966.62" y="1074.89" type="line"/>
      <point x="891.4599999999999" y="1074.89" type="line"/>
      <point x="868.2166666666667" y="1240.5066666666667" type="line" smooth="yes"/>
      <point x="855.69" y="1330.09"/>
      <point x="655.4666666666667" y="1436.8833333333334"/>
      <point x="531.3433333333334" y="1436.8833333333334" type="qcurve" smooth="yes"/>
      <point x="376.9433333333333" y="1436.8833333333334"/>
      <point x="212.74333333333334" y="1294.5466666666666"/>
      <point x="212.74333333333334" y="1185.7966666666666" type="qcurve" smooth="yes"/>
      <point x="212.74333333333334" y="1079.1533333333334"/>
      <point x="359.30333333333334" y="940.5833333333334"/>
      <point x="604.9133333333334" y="847.1" type="qcurve" smooth="yes"/>
      <point x="851.88" y="753.0166666666667"/>
      <point x="1071.3133333333333" y="554.5200000000001"/>
      <point x="1071.3133333333333" y="393.4533333333333" type="qcurve" smooth="yes"/>
      <point x="1071.3133333333333" y="208.33666666666664"/>
      <point x="816.1600000000001" y="-24.936666666666667"/>
      <point x="614.2466666666667" y="-24.936666666666667" type="qcurve" smooth="yes"/>
      <point x="464.52666666666664" y="-24.936666666666667"/>
      <point x="258.24" y="57.583333333333336"/>
      <point x="191.0" y="123.75" type="qcurve"/>
      <point x="151.54666666666665" y="0.0" type="line"/>
    </contour>
  </outline>
</glyph>
<glyph name="U" format="2">
  <advance width="1624"/>
  <unicode hex="0055"/>
  <outline>
    <contour>
      <point x="60.03666666666666" y="1434.1366666666665" type="line"/>
      <point x="60.03666666666666" y="1500.0" type="line"/>
      <point x="631.75" y="1500.0" type="line"/>
      <point x="631.75" y="1434.1366666666665" type="line"/>
      <point x="400.39" y="1400.1366666666665" type="line"/>
      <point x="397.58" y="797.5833333333334" type="line"/>
      <point x="399.40999999999997" y="464.28333333333336" type="line" smooth="yes"/>
      <point x="400.6933333333333" y="260.81666666666666"/>
      <point x="622.2" y="57.56333333333333"/>
      <point x="828.7866666666666" y="57.56333333333333" type="qcurve" smooth="yes"/>
      <point x="1029.6766666666667" y="57.56333333333333"/>
      <point x="1268.7933333333333" y="265.06666666666666"/>
      <point x="1264.8366666666666" y="478.55" type="qcurve" smooth="yes"/>
      <point x="1266.1999999999998" y="794.0" type="line"/>
      <point x="1264.7766666666666" y="1400.1366666666665" type="line"/>
      <point x="1033.3866666666665" y="1434.8533333333332" type="line"/>
      <point x="1033.3866666666665" y="1500.0" type="line"/>
      <point x="1576.2766666666666" y="1500.0" type="line"/>
      <point x="1576.2766666666666" y="1434.8533333333332" type="line"/>
      <point x="1354.43" y="1400.1366666666665" type="line"/>
      <point x="1353.1466666666665" y="794.0" type="line"/>
      <point x="1355.47" y="478.98333333333335" type="line" smooth="yes"/>
      <point x="1357.7733333333333" y="220.41666666666666"/>
      <point x="1062.9133333333334" y="-30.82"/>
      <point x="824.6166666666667" y="-30.82" type="qcurve" smooth="yes"/>
      <point x="570.59" y="-30.82"/>
      <point x="291.4266666666667" y="235.4466666666667"/>
      <point x="292.69" y="464.1166666666667" type="qcurve" smooth="yes"/>
      <point x="293.9533333333334" y="797.5833333333334" type="line"/>
      <point x="291.97333333333336" y="1400.1366666666665" type="line"/>
    </contour>
  </outline>
</glyph>
<glyph name="W" format="2">
  <advance width="2108"/>
  <unicode hex="0057"/>
  <outline>
    <contour>
      <point x="-40.01" y="1434.1566666666668" type="line"/>
      <point x="-40.01" y="1500.0" type="line"/>
      <point x="513.02" y="1500.0" type="line"/>
      <point x="513.02" y="1434.1566666666668" type="line"/>
      <point x="280.7733333333333" y="1411.1933333333334" type="line"/>
      <point x="480.17333333333335" y="782.4266666666666" type="line"/>
      <point x="693.9" y="136.66" type="line"/>
      <point x="901.42" y="716.6" type="line"/>
      <point x="1047.6866666666667" y="1156.6599999999999" type="line"/>
      <point x="1085.8566666666666" y="1024.0666666666666" type="line"/>
      <point x="971.1333333333333" y="677.87" type="line"/>
      <point x="729.9100000000001" y="-5.85" type="line"/>
      <point x="637.8433333333334" y="-5.85" type="line"/>
      <point x="383.60333333333335" y="747.13" type="line"/>
      <point x="161.39000000000001" y="1410.9833333333333" type="line"/>
    </contour>
    <contour>
      <point x="704.2266666666667" y="1441.26" type="line"/>
      <point x="704.2266666666667" y="1500.0" type="line"/>
      <point x="1238.4733333333334" y="1500.0" type="line"/>
      <point x="1238.4733333333334" y="1441.26" type="line"/>
      <point x="1024.91" y="1416.8833333333332" type="line"/>
      <point x="1210.1066666666666" y="787.3000000000001" type="line"/>
      <point x="1415.77" y="133.87333333333333" type="line"/>
      <point x="1647.8700000000001" y="805.73" type="line"/>
      <point x="1846.73" y="1413.0366666666666" type="line"/>
      <point x="1618.76" y="1434.1366666666665" type="line"/>
      <point x="1618.76" y="1500.0" type="line"/>
      <point x="2153.69" y="1500.0" type="line"/>
      <point x="2153.69" y="1434.1366666666665" type="line"/>
      <point x="1942.6433333333334" y="1411.0033333333333" type="line"/>
      <point x="1724.97" y="779.2933333333333" type="line"/>
      <point x="1454.6566666666665" y="-5.85" type="line"/>
      <point x="1356.4266666666667" y="-5.85" type="line"/>
      <point x="1115.1633333333334" y="751.4666666666667" type="line"/>
      <point x="906.3233333333334" y="1416.6733333333334" type="line"/>
    </contour>
  </outline>
</glyph>
<glyph name="bracketleft" format="2">
  <advance width="610"/>
  <unicode hex="005B"/>
  <outline>
    <contour>
      <point x="147.15" y="508.71666666666664" type="line"/>
      <point x="143.75" y="1412.1666666666667" type="line"/>
      <point x="131.91666666666666" y="1432.1666666666667" type="line"/>
      <point x="131.91666666666666" y="1500.0" type="line"/>
      <point x="556.3666666666667" y="1500.0" type="line"/>
      <point x="556.3666666666667" y="1423.2833333333333" type="line"/>
      <point x="241.23333333333332" y="1410.0166666666667" type="line"/>
      <point x="236.4" y="508.71666666666664" type="line"/>
      <point x="241.23333333333332" y="-390.73333333333335" type="line"/>
      <point x="556.3666666666667" y="-404.0" type="line"/>
      <point x="556.3666666666667" y="-480.0" type="line"/>
      <point x="130.48333333333335" y="-480.0" type="line"/>
      <point x="130.48333333333335" y="-412.1666666666667" type="line"/>
      <point x="143.75" y="-392.1666666666667" type="line"/>
    </contour>
  </outline>
</glyph>
<glyph name="asciicircum" format="2">
  <advance width="1261"/>
  <unicode hex="005E"/>
  <outline>
    <contour>
      <point x="119.42666666666666" y="941.7666666666667" type="line"/>
      <point x="171.67333333333332" y="1007.35"/>
      <point x="564.7366666666667" y="1466.6"/>
      <point x="611.9633333333333" y="1521.1333333333334" type="qcurve"/>
      <point x="651.6266666666667" y="1476.6333333333334"/>
      <point x="1086.9766666666667" y="1006.2"/>
      <point x="1141.3733333333334" y="942.7666666666667" type="qcurve"/>
      <point x="1086.0266666666666" y="890.0" type="line"/>
      <point x="970.3666666666667" y="1009.0166666666667"/>
      <point x="641.7633333333333" y="1343.8666666666668"/>
      <point x="612.51" y="1374.5" type="qcurve"/>
      <point x="582.88" y="1341.8833333333334"/>
      <point x="289.62333333333333" y="1015.15"/>
      <point x="176.05666666666667" y="890.5666666666666" type="qcurve"/>
    </contour>
  </outline>
</glyph>
<glyph name="b" format="2">
  <advance width="1140"/>
  <unicode hex="0062"/>
  <outline>
    <contour>
      <point x="193.55666666666664" y="0.0" type="line"/>
      <point x="195.07999999999998" y="429.0" type="line"/>
      <point x="191.42666666666665" y="1413.1866666666667" type="line"/>
      <point x="-0.3733333333333332" y="1436.8166666666666" type="line"/>
      <point x="-0.3733333333333332" y="1500.0" type="line"/>
      <point x="264.22333333333336" y="1519.6666666666667" type="line"/>
      <point x="278.76" y="1516.0833333333333" type="line"/>
      <point x="293.1433333333333" y="1491.9666666666667" type="line"/>
      <point x="293.2733333333333" y="851.4733333333334" type="line"/>
      <point x="344.96333333333337" y="920.3166666666667"/>
      <point x="535.5766666666666" y="1019.92"/>
      <point x="663.3466666666666" y="1019.92" type="qcurve" smooth="yes"/>
      <point x="844.8833333333333" y="1019.92"/>
      <point x="1073.2900000000002" y="754.54"/>
      <point x="1073.2900000000002" y="530.0" type="qcurve" smooth="yes"/>
      <point x="1073.2900000000002" y="285.76"/>
      <point x="821.51" y="-11.92"/>
      <point x="605.9333333333333" y="-12.0" type="qcurve" smooth="yes"/>
      <point x="508.41" y="-12.04"/>
      <point x="352.25333333333333" y="43.52"/>
      <point x="290.84666666666664" y="95.20666666666668" type="qcurve"/>
      <point x="236.46333333333334" y="0.0" type="line"/>
    </contour>
    <contour>
      <point x="290.52" y="447.01666666666665" type="line"/>
      <point x="295.40333333333336" y="203.25" type="line"/>
      <point x="335.53333333333336" y="139.92999999999998"/>
      <point x="502.55333333333334" y="53.733333333333334"/>
      <point x="606.3666666666667" y="53.733333333333334" type="qcurve" smooth="yes"/>
      <point x="763.4433333333333" y="53.733333333333334"/>
      <point x="959.0866666666666" y="288.37333333333333"/>
      <point x="959.0866666666666" y="502.1333333333333" type="qcurve" smooth="yes"/>
      <point x="959.0866666666666" y="700.5833333333333"/>
      <point x="777.1633333333333" y="937.7166666666667"/>
      <point x="624.7633333333333" y="937.7166666666667" type="qcurve" smooth="yes"/>
      <point x="496.01666666666665" y="937.7166666666667"/>
      <point x="333.29999999999995" y="829.71"/>
      <point x="293.2733333333333" y="769.8433333333334" type="qcurve"/>
    </contour>
  </outline>
</glyph>
<glyph name="k" format="2">
  <advance width="1101"/>
  <unicode hex="006B"/>
  <outline>
    <contour>
      <point x="82.56666666666668" y="0.0" type="line"/>
      <point x="82.56666666666668" y="51.33333333333333" type="line"/>
      <point x="242.36" y="80.6" type="line"/>
      <point x="244.36" y="527.0" type="line"/>
      <point x="242.36" y="1413.1866666666667" type="line"/>
      <point x="50.82333333333333" y="1436.8166666666666" type="line"/>
      <point x="50.82333333333333" y="1500.0" type="line"/>
      <point x="314.85333333333335" y="1519.6666666666667" type="line"/>
      <point x="329.6533333333333" y="1516.0833333333333" type="line"/>
      <point x="344.0366666666667" y="1491.9666666666667" type="line"/>
      <point x="344.20666666666665" y="522.0333333333334" type="line"/>
      <point x="350.4666666666667" y="80.6" type="line"/>
      <point x="504.31" y="51.33333333333333" type="line"/>
      <point x="504.31" y="0.0" type="line"/>
    </contour>
    <contour>
      <point x="321.21" y="427.8833333333333" type="line"/>
      <point x="317.55" y="504.73333333333335" type="line"/>
      <point x="776.7433333333333" y="917.9833333333333" type="line"/>
      <point x="632.7133333333334" y="942.25" type="line"/>
      <point x="632.7133333333334" y="1000.0" type="line"/>
      <point x="1041.5766666666666" y="1000.0" type="line"/>
      <point x="1041.5766666666666" y="942.25" type="line"/>
      <point x="884.3566666666667" y="915.85" type="line"/>
    </contour>
    <contour>
      <point x="498.06" y="605.86" type="line"/>
      <point x="573.09" y="672.8900000000001" type="line"/>
      <point x="965.76" y="80.6" type="line"/>
      <point x="1108.2633333333333" y="51.33333333333333" type="line"/>
      <point x="1108.2633333333333" y="0.0" type="line"/>
      <point x="832.9166666666666" y="0.0" type="line"/>
      <point x="822.35" y="46.75" type="line"/>
      <point x="853.7466666666667" y="66.56666666666666" type="line"/>
    </contour>
  </outline>
</glyph>
<glyph name="m" format="2">
  <advance width="1820"/>
  <unicode hex="006D"/>
  <outline>
    <contour>
      <point x="82.56666666666668" y="0.0" type="line"/>
      <point x="82.56666666666668" y="51.33333333333333" type="line"/>
      <point x="243.94" y="80.6" type="line"/>
      <point x="245.94" y="527.0" type="line"/>
      <point x="243.94" y="892.1666666666666" type="line"/>
      <point x="72.53333333333335" y="915.0" type="line"/>
      <point x="72.53333333333335" y="980.3333333333334" type="line"/>
      <point x="302.6533333333333" y="1000.0" type="line"/>
      <point x="329.05333333333334" y="980.1666666666666" type="line"/>
      <point x="345.97" y="837.04" type="line"/>
      <point x="403.8633333333333" y="917.33"/>
      <point x="579.1800000000001" y="1020.9"/>
      <point x="697.6766666666666" y="1020.9" type="qcurve" smooth="yes"/>
      <point x="812.2466666666666" y="1020.9"/>
      <point x="944.9966666666667" y="926.8966666666666"/>
      <point x="964.8" y="833.2533333333333" type="qcurve"/>
      <point x="1016.4533333333334" y="908.7733333333333"/>
      <point x="1196.34" y="1020.9"/>
      <point x="1320.6333333333334" y="1020.9" type="qcurve" smooth="yes"/>
      <point x="1460.5333333333333" y="1020.9"/>
      <point x="1599.98" y="881.5166666666668"/>
      <point x="1599.98" y="742.38" type="qcurve" smooth="yes"/>
      <point x="1599.98" y="684.5733333333333"/>
      <point x="1598.6033333333332" y="535.1733333333333"/>
      <point x="1598.6033333333332" y="527.7" type="qcurve" smooth="yes"/>
      <point x="1603.5633333333333" y="80.6" type="line"/>
      <point x="1757.1133333333335" y="51.33333333333333" type="line"/>
      <point x="1757.1133333333335" y="0.0" type="line"/>
      <point x="1345.6266666666666" y="0.0" type="line"/>
      <point x="1345.6266666666666" y="51.33333333333333" type="line"/>
      <point x="1496.1333333333334" y="80.6" type="line"/>
      <point x="1498.0933333333335" y="527.78" type="line"/>
      <point x="1498.0933333333335" y="726.09" type="line" smooth="yes"/>
      <point x="1498.0933333333335" y="824.8533333333334"/>
      <point x="1392.3966666666668" y="922.7666666666667"/>
      <point x="1279.3833333333334" y="922.7666666666667" type="qcurve" smooth="yes"/>
      <point x="1177.6666666666665" y="922.7666666666667"/>
      <point x="1027.3700000000001" y="833.4166666666666"/>
      <point x="973.4200000000001" y="752.2433333333333" type="qcurve"/>
      <point x="972.3266666666666" y="734.0333333333334"/>
      <point x="972.0633333333333" y="652.1075621890334"/>
      <point x="972.0633333333333" y="527.7" type="qcurve" smooth="yes"/>
      <point x="976.9833333333333" y="80.6" type="line"/>
      <point x="1130.0333333333333" y="51.33333333333333" type="line"/>
      <point x="1130.0333333333333" y="0.0" type="line"/>
      <point x="718.8866666666667" y="0.0" type="line"/>
      <point x="718.8866666666667" y="51.33333333333333" type="line"/>
      <point x="869.5933333333334" y="80.6" type="line"/>
      <point x="871.5533333333333" y="527.66" type="line"/>
      <point x="871.5533333333333" y="726.09" type="line" smooth="yes"/>
      <point x="871.5533333333333" y="824.8533333333334"/>
      <point x="767.5966666666667" y="922.7666666666667"/>
      <point x="656.4266666666667" y="922.7666666666667" type="qcurve" smooth="yes"/>
      <point x="563.29" y="922.7666666666667"/>
      <point x="399.0" y="823.23"/>
      <point x="345.7866666666667" y="745.4866666666667" type="qcurve"/>
      <point x="345.5233333333333" y="526.86" type="line"/>
      <point x="351.7833333333333" y="80.6" type="line"/>
      <point x="504.88666666666666" y="51.33333333333333" type="line"/>
      <point x="504.88666666666666" y="0.0" type="line"/>
    </contour>
  </outline>
</glyph>
<glyph name="p" format="2">
  <advance width="1174"/>
  <unicode hex="0070"/>
  <outline>
    <contour>
      <point x="62.61" y="-480.0" type="line"/>
      <point x="62.61" y="-428.6666666666667" type="line"/>
      <point x="221.33333333333331" y="-399.4" type="line"/>
      <point x="224.76666666666665" y="427.0" type="line"/>
      <point x="222.76666666666665" y="892.1666666666666" type="line"/>
      <point x="52.79333333333333" y="915.0" type="line"/>
      <point x="52.79333333333333" y="980.3333333333334" type="line"/>
      <point x="283.6" y="1000.0" type="line"/>
      <point x="310.0" y="979.45" type="line"/>
      <point x="324.3833333333333" y="849.0833333333334" type="line"/>
      <point x="376.0333333333333" y="918.7433333333333"/>
      <point x="555.9766666666666" y="1019.92"/>
      <point x="676.66" y="1019.92" type="qcurve" smooth="yes"/>
      <point x="863.9300000000001" y="1019.92"/>
      <point x="1106.2166666666667" y="754.54"/>
      <point x="1106.2166666666667" y="530.0" type="qcurve" smooth="yes"/>
      <point x="1106.2166666666667" y="285.76"/>
      <point x="854.1733333333333" y="-12.0"/>
      <point x="642.2833333333333" y="-12.0" type="qcurve" smooth="yes"/>
      <point x="537.48" y="-12.0"/>
      <point x="372.16" y="47.66"/>
      <point x="326.06666666666666" y="88.54" type="qcurve"/>
      <point x="328.06666666666666" y="-399.4" type="line"/>
      <point x="503.45666666666665" y="-428.6666666666667" type="line"/>
      <point x="503.45666666666665" y="-480.0" type="line"/>
    </contour>
    <contour>
      <point x="326.0466666666667" y="210.59" type="line"/>
      <point x="364.74333333333334" y="144.85666666666665"/>
      <point x="532.0866666666667" y="53.733333333333334"/>
      <point x="639.03" y="53.733333333333334" type="qcurve" smooth="yes"/>
      <point x="796.1066666666667" y="53.733333333333334"/>
      <point x="992.0133333333333" y="288.37333333333333"/>
      <point x="992.0133333333333" y="502.1333333333333" type="qcurve" smooth="yes"/>
      <point x="992.0133333333333" y="700.5833333333333"/>
      <point x="809.8266666666667" y="930.55"/>
      <point x="657.4266666666666" y="930.55" type="qcurve" smooth="yes"/>
      <point x="543.5400000000001" y="930.55"/>
      <point x="373.7866666666667" y="839.48"/>
      <point x="324.18" y="768.1466666666666" type="qcurve"/>
      <point x="323.33000000000004" y="426.92" type="line"/>
    </contour>
  </outline>
</glyph>
<glyph name="y" format="2">
  <advance width="1038"/>
  <unicode hex="0079"/>
  <outline>
    <contour>
      <point x="-29.17" y="935.8" type="line"/>
      <point x="-29.150000000000002" y="1000.0" type="line"/>
      <point x="387.2766666666667" y="1000.0" type="line"/>
      <point x="387.2766666666667" y="935.8" type="line"/>
      <point x="236.64333333333335" y="908.8333333333334" type="line"/>
      <point x="375.78" y="520.6666666666666" type="line"/>
      <point x="522.03" y="119.5" type="line"/>
      <point x="674.4366666666667" y="526.5333333333333" type="line"/>
      <point x="815.9566666666667" y="910.8166666666667" type="line"/>
      <point x="651.31" y="935.8" type="line"/>
      <point x="651.31" y="1000.0" type="line"/>
      <point x="1057.9833333333333" y="1000.0" type="line"/>
      <point x="1057.9833333333333" y="935.8" type="line"/>
      <point x="900.99" y="909.4" type="line"/>
      <point x="741.8466666666666" y="495.56666666666666" type="line"/>
      <point x="463.78333333333336" y="-240.54333333333332" type="line" smooth="yes"/>
      <point x="415.0733333333334" y="-369.57"/>
      <point x="259.74" y="-489.1333333333333"/>
      <point x="170.24333333333334" y="-489.1333333333333" type="qcurve"/>
      <point x="18.2" y="-466.37" type="line"/>
      <point x="18.2" y="-404.4" type="line"/>
      <point x="115.01666666666667" y="-404.4" type="line" smooth="yes"/>
      <point x="214.56333333333333" y="-404.4"/>
      <point x="361.96" y="-305.59000000000003"/>
      <point x="405.68666666666667" y="-185.12333333333333" type="qcurve" smooth="yes"/>
      <point x="471.60333333333335" y="-2.8666666666666667" type="line"/>
      <point x="471.60333333333335" y="-2.8666666666666667" type="line"/>
      <point x="289.62333333333333" y="488.1666666666667" type="line"/>
      <point x="133.20000000000002" y="908.6833333333334" type="line"/>
    </contour>
  </outline>
</glyph>
<glyph name="sterling" format="2">
  <advance width="985"/>
  <unicode hex="00A3"/>
  <outline>
    <contour>
      <point x="514.7800000000001" y="500.15000000000003" type="qcurve" smooth="yes"/>
      <point x="514.7800000000001" y="364.15000000000003"/>
      <point x="388.74333333333334" y="148.05333333333334"/>
      <point x="288.0466666666667" y="98.85666666666667" type="qcurve"/>
      <point x="296.0466666666667" y="80.19" type="line"/>
      <point x="773.86" y="79.33333333333333" type="line"/>
      <point x="881.88" y="329.7166666666667" type="line"/>
      <point x="943.5133333333334" y="329.7166666666667" type="line"/>
      <point x="855.98" y="0.0" type="line"/>
      <point x="54.31333333333333" y="0.0" type="line"/>
      <point x="20.11333333333333" y="57.0" type="line"/>
      <point x="49.02666666666667" y="91.36" type="line"/>
      <point x="223.33333333333334" y="83.94333333333334"/>
      <point x="413.71333333333337" y="311.2833333333333"/>
      <point x="413.71333333333337" y="461.63666666666666" type="qcurve" smooth="yes"/>
      <point x="413.71333333333337" y="543.0333333333333"/>
      <point x="339.81333333333333" y="676.0"/>
      <point x="289.81333333333333" y="747.0" type="qcurve" smooth="yes"/>
      <point x="222.81333333333333" y="842.0"/>
      <point x="105.06333333333333" y="1039.0"/>
      <point x="105.06333333333333" y="1146.0" type="qcurve" smooth="yes"/>
      <point x="105.06333333333333" y="1284.3966666666668"/>
      <point x="304.0466666666667" y="1501.0"/>
      <point x="476.88" y="1501.0" type="qcurve" smooth="yes"/>
      <point x="616.6533333333333" y="1501.0"/>
      <point x="803.4366666666666" y="1396.14"/>
      <point x="860.9200000000001" y="1319.14" type="qcurve"/>
      <point x="810.78" y="1262.1333333333334" type="line"/>
      <point x="756.1" y="1326.0033333333333"/>
      <point x="598.43" y="1418.3"/>
      <point x="479.14666666666665" y="1418.3" type="qcurve" smooth="yes"/>
      <point x="342.51" y="1418.3"/>
      <point x="202.39666666666668" y="1258.1833333333334"/>
      <point x="202.39666666666668" y="1155.8333333333333" type="qcurve" smooth="yes"/>
      <point x="202.39666666666668" y="1079.8333333333333"/>
      <point x="309.9633333333333" y="890.75"/>
      <point x="374.9633333333333" y="803.75" type="qcurve" smooth="yes"/>
      <point x="431.9633333333333" y="726.75"/>
      <point x="514.7800000000001" y="572.7666666666667"/>
    </contour>
    <contour>
      <point x="164.7133333333333" y="610.2" type="line"/>
      <point x="147.88" y="685.9" type="line"/>
      <point x="809.0133333333333" y="685.9" type="line"/>
      <point x="788.3299999999999" y="610.2" type="line"/>
    </contour>
  </outline>
</glyph>
<glyph name="brokenbar" format="2">
  <advance width="590"/>
  <unicode hex="00A6"/>
  <outline>
    <contour>
      <point x="255.57999999999998" y="677.5333333333333" type="line"/>
      <point x="257.93" y="865.1666666666666" type="line"/>
      <point x="251.06666666666666" y="1173.1666666666667" type="line"/>
      <point x="245.0" y="1498.2" type="line"/>
      <point x="345.31333333333333" y="1533.8" type="line"/>
      <point x="339.20666666666665" y="1173.1666666666667" type="line"/>
      <point x="331.75666666666666" y="865.1666666666666" type="line"/>
      <point x="332.24333333333334" y="703.8833333333333" type="line"/>
    </contour>
    <contour>
      <point x="245.04" y="-521.8" type="line"/>
      <point x="251.10666666666665" y="-91.16666666666666" type="line"/>
      <point x="258.51666666666665" y="216.83333333333334" type="line"/>
      <point x="257.96999999999997" y="387.7" type="line"/>
      <point x="334.6533333333333" y="419.03333333333336" type="line"/>
      <point x="332.30333333333334" y="216.83333333333334" type="line"/>
      <point x="339.20666666666665" y="-91.16666666666666" type="line"/>
      <point x="345.2733333333333" y="-481.19666666666666" type="line"/>
    </contour>
  </outline>
</glyph>
<glyph name="ordfeminine" format="2">
  <advance width="941"/>
  <unicode hex="00AA"/>
  <outline>
    <contour>
      <point x="130.13666666666666" y="892.0533333333333" type="qcurve" smooth="yes"/>
      <point x="130.13666666666666" y="1005.2833333333333"/>
      <point x="375.68" y="1173.24"/>
      <point x="658.82" y="1217.7266666666665" type="qcurve"/>
      <point x="663.1766666666666" y="1161.0266666666666" type="line"/>
      <point x="442.62" y="1125.56"/>
      <point x="226.28333333333333" y="1003.12"/>
      <point x="226.28333333333333" y="899.7566666666667" type="qcurve" smooth="yes"/>
      <point x="226.28333333333333" y="821.99"/>
      <point x="318.49333333333334" y="741.23"/>
      <point x="401.8933333333334" y="741.23" type="qcurve" smooth="yes"/>
      <point x="479.82" y="741.23"/>
      <point x="619.92" y="826.7133333333333"/>
      <point x="645.1566666666668" y="875.9933333333333" type="qcurve"/>
      <point x="646.4200000000001" y="1203.4733333333334" type="line" smooth="yes"/>
      <point x="646.6833333333333" y="1358.9233333333334"/>
      <point x="539.81" y="1474.8933333333332"/>
      <point x="450.18333333333334" y="1474.8933333333332" type="qcurve" smooth="yes"/>
      <point x="368.26" y="1474.8933333333332"/>
      <point x="283.37333333333333" y="1438.5600000000002"/>
      <point x="259.61" y="1409.6166666666666" type="qcurve"/>
      <point x="273.35" y="1395.1799999999998"/>
      <point x="292.56333333333333" y="1363.9333333333332"/>
      <point x="295.0366666666667" y="1347.51" type="qcurve" smooth="yes"/>
      <point x="298.3933333333334" y="1321.5966666666668"/>
      <point x="269.38666666666666" y="1285.71"/>
      <point x="241.76333333333332" y="1285.71" type="qcurve" smooth="yes"/>
      <point x="212.78666666666666" y="1285.71"/>
      <point x="177.57666666666665" y="1330.4233333333334"/>
      <point x="177.57666666666665" y="1373.28" type="qcurve" smooth="yes"/>
      <point x="177.57666666666665" y="1439.1966666666667"/>
      <point x="332.02666666666664" y="1542.98"/>
      <point x="457.53666666666663" y="1542.98" type="qcurve" smooth="yes"/>
      <point x="588.7533333333333" y="1542.98"/>
      <point x="734.3499999999999" y="1388.9066666666665"/>
      <point x="735.4933333333333" y="1202.6399999999999" type="qcurve" smooth="yes"/>
      <point x="738.9599999999999" y="754.36" type="line"/>
      <point x="877.4766666666667" y="729.64" type="line"/>
      <point x="877.4766666666667" y="684.7566666666667" type="line"/>
      <point x="674.37" y="684.7566666666667" type="line"/>
      <point x="655.0166666666667" y="710.21" type="line"/>
      <point x="648.58" y="802.4266666666667" type="line"/>
      <point x="616.52" y="751.3433333333334"/>
      <point x="463.72" y="671.5333333333333"/>
      <point x="365.77666666666664" y="671.5333333333333" type="qcurve" smooth="yes"/>
      <point x="251.93333333333334" y="671.5333333333333"/>
      <point x="130.13666666666666" y="795.2333333333333"/>
    </contour>
  </outline>
</glyph>
<glyph name="guillemetleft" format="2">
  <advance width="1320"/>
  <unicode hex="00AB"/>
  <outline>
    <contour>
      <point x="75.06666666666666" y="620.3766666666667" type="line"/>
      <point x="116.33999999999999" y="647.0133333333333"/>
      <point x="599.0200000000001" y="961.8566666666667"/>
      <point x="678.4633333333334" y="1015.9933333333333" type="qcurve" smooth="yes"/>
      <point x="743.1666666666667" y="1059.9133333333332"/>
      <point x="792.5566666666666" y="988.9333333333333"/>
      <point x="729.0066666666667" y="945.86" type="qcurve" smooth="yes"/>
      <point x="634.1433333333333" y="881.38"/>
      <point x="250.20999999999998" y="622.8299999999999"/>
      <point x="221.58333333333331" y="605.1166666666667" type="qcurve"/>
      <point x="250.25" y="586.6"/>
      <point x="649.6833333333333" y="319.69"/>
      <point x="740.1533333333333" y="255.69" type="qcurve" smooth="yes"/>
      <point x="791.9333333333334" y="219.59333333333333"/>
      <point x="750.7333333333333" y="151.93"/>
      <point x="695.97" y="182.02666666666667" type="qcurve" smooth="yes"/>
      <point x="633.6133333333333" y="216.16666666666666"/>
      <point x="144.03333333333333" y="539.7233333333334"/>
      <point x="75.06666666666666" y="587.6233333333333" type="qcurve"/>
    </contour>
    <contour>
      <point x="528.0166666666667" y="620.3766666666667" type="line"/>
      <point x="569.29" y="647.0133333333333"/>
      <point x="1051.97" y="961.8566666666667"/>
      <point x="1131.4133333333334" y="1015.9933333333333" type="qcurve" smooth="yes"/>
      <point x="1196.1166666666666" y="1059.9133333333332"/>
      <point x="1245.5066666666667" y="988.9333333333333"/>
      <point x="1181.9566666666667" y="945.86" type="qcurve" smooth="yes"/>
      <point x="1087.0933333333335" y="881.38"/>
      <point x="703.16" y="622.8299999999999"/>
      <point x="674.5333333333333" y="605.1166666666667" type="qcurve"/>
      <point x="703.2" y="586.6"/>
      <point x="1102.6333333333332" y="319.69"/>
      <point x="1193.1033333333335" y="255.69" type="qcurve" smooth="yes"/>
      <point x="1244.8833333333332" y="219.59333333333333"/>
      <point x="1203.6833333333334" y="151.93"/>
      <point x="1148.92" y="182.02666666666667" type="qcurve" smooth="yes"/>
      <point x="1086.5633333333333" y="216.16666666666666"/>
      <point x="596.9833333333333" y="539.7233333333334"/>
      <point x="528.0166666666667" y="587.6233333333333" type="qcurve"/>
    </contour>
  </outline>
</glyph>
<glyph name="macron" format="2">
  <advance width="1024"/>
  <unicode hex="00AF"/>
  <outline>
    <contour>
      <point x="250.06" y="1197.9333333333332" type="line"/>
      <point x="250.06" y="1292.4366666666667" type="line"/>
      <point x="782.3666666666667" y="1292.4366666666667" type="line"/>
      <point x="782.3666666666667" y="1197.9333333333332" type="line"/>
    </contour>
  </outline>
</glyph>
<glyph name="micro" format="2">
  <advance width="1192"/>
  <unicode hex="00B5"/>
  <outline>
    <contour>
      <point x="28.33666666666667" y="-331.3333333333333" type="line"/>
      <point x="64.33666666666667" y="-309.3333333333333" type="line"/>
      <point x="103.33666666666667" y="-151.33333333333334"/>
      <point x="173.51333333333332" y="169.33333333333334"/>
      <point x="191.24666666666664" y="252.66666666666669" type="qcurve" smooth="yes"/>
      <point x="321.16333333333336" y="882.2" type="line"/>
      <point x="153.56333333333333" y="881.35" type="line"/>
      <point x="154.13" y="941.5166666666667" type="line"/>
      <point x="373.7133333333333" y="1000.5666666666667" type="line"/>
      <point x="405.09666666666664" y="1000.5666666666667" type="line"/>
      <point x="432.02666666666664" y="940.6" type="line"/>
      <point x="292.0133333333334" y="270.47333333333336" type="line" smooth="yes"/>
      <point x="274.58000000000004" y="187.47333333333333"/>
      <point x="336.6166666666667" y="103.53333333333333"/>
      <point x="432.56666666666666" y="103.53333333333333" type="qcurve" smooth="yes"/>
      <point x="524.5666666666666" y="103.53333333333333"/>
      <point x="757.1700000000001" y="243.02666666666667"/>
      <point x="844.7233333333334" y="340.62333333333333" type="qcurve"/>
      <point x="966.6666666666667" y="931.5" type="line"/>
      <point x="934.2933333333333" y="990.3633333333332" type="line"/>
      <point x="1034.47" y="1008.6166666666667" type="line"/>
      <point x="1069.3033333333333" y="929.6166666666667" type="line"/>
      <point x="951.6466666666666" y="383.5" type="line"/>
      <point x="910.4966666666667" y="107.48333333333333" type="line"/>
      <point x="1075.1633333333334" y="110.35" type="line"/>
      <point x="1073.58" y="51.3" type="line"/>
      <point x="851.93" y="-9.266666666666666" type="line"/>
      <point x="809.81" y="64.55" type="line"/>
      <point x="832.82" y="244.15666666666667" type="line"/>
      <point x="747.1433333333333" y="151.04333333333335"/>
      <point x="485.22" y="7.77"/>
      <point x="384.35333333333335" y="7.77" type="qcurve" smooth="yes"/>
      <point x="337.7366666666667" y="7.77"/>
      <point x="266.4166666666667" y="35.14333333333333"/>
      <point x="241.61666666666667" y="60.94" type="qcurve"/>
      <point x="175.22" y="-288.3333333333333" type="line"/>
      <point x="324.80333333333334" y="-296.3333333333333" type="line"/>
      <point x="316.80333333333334" y="-356.6666666666667" type="line"/>
      <point x="51.336666666666666" y="-384.6666666666667" type="line"/>
    </contour>
  </outline>
</glyph>
<glyph name="AE" format="2">
  <advance width="2020"/>
  <unicode hex="00C6"/>
  <outline>
    <contour>
      <point x="-30.663333333333334" y="0.0" type="line"/>
      <point x="-30.663333333333334" y="62.653333333333336" type="line"/>
      <point x="156.13666666666666" y="97.63333333333334" type="line"/>
      <point x="438.00333333333333" y="540.0" type="line"/>
      <point x="982.47" y="1415.0166666666667" type="line"/>
      <point x="829.4366666666667" y="1434.1366666666665" type="line"/>
      <point x="829.4366666666667" y="1500.0" type="line"/>
      <point x="1862.1033333333332" y="1500.0" type="line"/>
      <point x="1862.1033333333332" y="1157.9333333333334" type="line"/>
      <point x="1792.0966666666668" y="1157.9333333333334" type="line"/>
      <point x="1750.13" y="1425.7166666666667" type="line"/>
      <point x="1180.2233333333334" y="1425.7166666666667" type="line"/>
      <point x="1152.8366666666666" y="1401.4166666666667" type="line"/>
      <point x="1151.5733333333333" y="783.7166666666667" type="line"/>
      <point x="1152.8366666666666" y="97.6" type="line"/>
      <point x="1179.0733333333333" y="71.45" type="line"/>
      <point x="1812.0333333333333" y="71.45" type="line"/>
      <point x="1894.0433333333333" y="372.26666666666665" type="line"/>
      <point x="1963.3333333333333" y="372.26666666666665" type="line"/>
      <point x="1923.5733333333333" y="0.0" type="line"/>
      <point x="825.0866666666666" y="0.0" type="line"/>
      <point x="825.0866666666666" y="62.653333333333336" type="line"/>
      <point x="1045.7033333333334" y="98.17999999999999" type="line"/>
      <point x="1047.7033333333334" y="783.0" type="line"/>
      <point x="1045.7033333333334" y="1351.5666666666666" type="line"/>
      <point x="1033.8866666666668" y="1363.2333333333333" type="line"/>
      <point x="508.18666666666667" y="503.4" type="line"/>
      <point x="262.42" y="96.29666666666667" type="line"/>
      <point x="446.58666666666664" y="62.653333333333336" type="line"/>
      <point x="446.58666666666664" y="0.0" type="line"/>
    </contour>
    <contour>
      <point x="459.4033333333333" y="491.4" type="line"/>
      <point x="503.7033333333333" y="567.4" type="line"/>
      <point x="808.7033333333333" y="556.6999999999999" type="line"/>
      <point x="808.7033333333333" y="491.4" type="line"/>
    </contour>
    <contour>
      <point x="808.7033333333333" y="556.6999999999999" type="line"/>
      <point x="1107.3033333333333" y="568.4" type="line"/>
      <point x="1107.3033333333333" y="491.4" type="line"/>
      <point x="808.7033333333333" y="491.4" type="line"/>
    </contour>
    <contour>
      <point x="1101.9066666666668" y="753.05" type="line"/>
      <point x="1101.9066666666668" y="818.95" type="line"/>
      <point x="1612.5766666666668" y="822.5" type="line"/>
      <point x="1643.0766666666666" y="1001.1333333333333" type="line"/>
      <point x="1711.9666666666667" y="1001.1333333333333" type="line"/>
      <point x="1711.9666666666667" y="568.0" type="line"/>
      <point x="1643.0766666666666" y="568.0" type="line"/>
      <point x="1612.5766666666668" y="750.2166666666667" type="line"/>
    </contour>
  </outline>
</glyph>
<glyph name="germandbls" format="2">
  <advance width="1279"/>
  <unicode hex="00DF"/>
  <outline>
    <contour>
      <point x="1019.7233333333334" y="1224.8666666666666" type="qcurve" smooth="yes"/>
      <point x="1019.7233333333334" y="1106.1599999999999"/>
      <point x="896.5766666666666" y="973.7033333333334"/>
      <point x="788.72" y="928.1666666666666" type="qcurve" smooth="yes"/>
      <point x="723.88" y="900.3766666666667"/>
      <point x="658.0766666666666" y="833.87"/>
      <point x="658.0766666666666" y="770.65" type="qcurve" smooth="yes"/>
      <point x="658.0766666666666" y="697.1833333333333"/>
      <point x="772.4333333333333" y="619.4066666666668"/>
      <point x="903.14" y="575.9733333333334" type="qcurve" smooth="yes"/>
      <point x="1061.1766666666665" y="524.11"/>
      <point x="1212.26" y="390.95"/>
      <point x="1212.26" y="266.21666666666664" type="qcurve" smooth="yes"/>
      <point x="1212.26" y="139.21666666666667"/>
      <point x="1040.98" y="-22.88"/>
      <point x="900.74" y="-22.88" type="qcurve" smooth="yes"/>
      <point x="805.48" y="-22.88"/>
      <point x="680.48" y="30.66"/>
      <point x="625.92" y="72.72" type="qcurve"/>
      <point x="587.3" y="0.0" type="line"/>
      <point x="532.4333333333334" y="0.0" type="line"/>
      <point x="532.4333333333334" y="339.0" type="line"/>
      <point x="601.03" y="339.0" type="line"/>
      <point x="614.1" y="258.5" type="line" smooth="yes"/>
      <point x="631.4133333333333" y="151.0"/>
      <point x="793.6933333333334" y="48.026666666666664"/>
      <point x="890.9933333333333" y="48.026666666666664" type="qcurve" smooth="yes"/>
      <point x="996.3733333333333" y="48.026666666666664"/>
      <point x="1115.9533333333331" y="156.21666666666667"/>
      <point x="1115.9533333333331" y="255.7" type="qcurve" smooth="yes"/>
      <point x="1115.9533333333331" y="339.5"/>
      <point x="993.5933333333334" y="437.92333333333335"/>
      <point x="861.4333333333333" y="480.98333333333335" type="qcurve" smooth="yes"/>
      <point x="689.6733333333333" y="537.9633333333333"/>
      <point x="563.89" y="662.9"/>
      <point x="563.89" y="759.0" type="qcurve" smooth="yes"/>
      <point x="563.89" y="851.5999999999999"/>
      <point x="665.49" y="955.4833333333333"/>
      <point x="773.7666666666667" y="1004.6666666666666" type="qcurve" smooth="yes"/>
      <point x="853.7333333333333" y="1040.5333333333333"/>
      <point x="930.4" y="1140.8666666666666"/>
      <point x="930.4" y="1223.0333333333333" type="qcurve" smooth="yes"/>
      <point x="930.4" y="1316.0666666666666"/>
      <point x="808.6533333333333" y="1438.6833333333334"/>
      <point x="674.0866666666667" y="1438.6833333333334" type="qcurve" smooth="yes"/>
      <point x="505.8166666666667" y="1438.6833333333334"/>
      <point x="348.98333333333335" y="1276.25"/>
      <point x="349.55" y="1104.1166666666666" type="qcurve"/>
      <point x="349.9666666666667" y="527.0" type="line"/>
      <point x="356.5166666666667" y="60.766666666666666" type="line"/>
      <point x="328.23333333333335" y="0.0" type="line"/>
      <point x="51.13333333333333" y="0.0" type="line"/>
      <point x="51.13333333333333" y="51.33333333333333" type="line"/>
      <point x="246.8" y="80.6" type="line"/>
      <point x="250.95" y="527.0" type="line"/>
      <point x="251.8" y="1124.0666666666666" type="line" smooth="yes"/>
      <point x="252.08333333333334" y="1315.19"/>
      <point x="482.35" y="1519.4333333333334"/>
      <point x="682.63" y="1519.4333333333334" type="qcurve" smooth="yes"/>
      <point x="836.7433333333333" y="1519.4333333333334"/>
      <point x="1019.7233333333334" y="1357.8666666666666"/>
    </contour>
  </outline>
</glyph>
<glyph name="thorn" format="2">
  <advance width="1166"/>
  <unicode hex="00FE"/>
  <outline>
    <contour>
      <point x="54.21666666666667" y="-480.0" type="line"/>
      <point x="54.21666666666667" y="-428.6666666666667" type="line"/>
      <point x="212.98" y="-399.4" type="line"/>
      <point x="216.41333333333333" y="427.0" type="line"/>
      <point x="215.31333333333333" y="1413.1866666666667" type="line"/>
      <point x="23.776666666666667" y="1436.8166666666666" type="line"/>
      <point x="23.776666666666667" y="1500.0" type="line"/>
      <point x="289.24" y="1519.6666666666667" type="line"/>
      <point x="304.04" y="1516.0833333333333" type="line"/>
      <point x="318.42333333333335" y="1491.9666666666667" type="line"/>
      <point x="315.99" y="849.0833333333334" type="line"/>
      <point x="367.64000000000004" y="918.7433333333333"/>
      <point x="547.5833333333333" y="1019.92"/>
      <point x="668.2666666666667" y="1019.92" type="qcurve" smooth="yes"/>
      <point x="855.5366666666667" y="1019.92"/>
      <point x="1097.8233333333333" y="754.54"/>
      <point x="1097.8233333333333" y="530.0" type="qcurve" smooth="yes"/>
      <point x="1097.8233333333333" y="285.76"/>
      <point x="845.78" y="-12.0"/>
      <point x="633.89" y="-12.0" type="qcurve" smooth="yes"/>
      <point x="529.0866666666667" y="-12.0"/>
      <point x="363.76666666666665" y="47.66"/>
      <point x="317.67333333333335" y="88.54" type="qcurve"/>
      <point x="319.67333333333335" y="-399.4" type="line"/>
      <point x="495.06333333333333" y="-428.6666666666667" type="line"/>
      <point x="495.06333333333333" y="-480.0" type="line"/>
    </contour>
    <contour>
      <point x="317.65333333333336" y="210.59" type="line"/>
      <point x="356.35" y="144.85666666666665"/>
      <point x="523.6933333333334" y="53.733333333333334"/>
      <point x="630.6366666666667" y="53.733333333333334" type="qcurve" smooth="yes"/>
      <point x="787.7133333333334" y="53.733333333333334"/>
      <point x="983.62" y="288.37333333333333"/>
      <point x="983.62" y="502.1333333333333" type="qcurve" smooth="yes"/>
      <point x="983.62" y="700.5833333333333"/>
      <point x="801.4333333333334" y="930.55"/>
      <point x="649.0333333333334" y="930.55" type="qcurve" smooth="yes"/>
      <point x="535.1466666666668" y="930.55"/>
      <point x="365.3933333333333" y="839.48"/>
      <point x="315.7866666666667" y="768.1466666666666" type="qcurve"/>
      <point x="314.93666666666667" y="426.92" type="line"/>
    </contour>
  </outline>
</glyph>
<glyph name="idotless" format="2">
  <advance width="615"/>
  <unicode hex="0131"/>
  <outline>
    <contour>
      <point x="72.75666666666667" y="0.0" type="line"/>
      <point x="72.75666666666667" y="52.766666666666666" type="line"/>
      <point x="263.90333333333336" y="80.6" type="line"/>
      <point x="265.90333333333336" y="527.0" type="line"/>
      <point x="261.87" y="894.3166666666667" type="line"/>
      <point x="75.02333333333333" y="918.5833333333334" type="line"/>
      <point x="75.02333333333333" y="981.05" type="line"/>
      <point x="330.68" y="1002.15" type="line"/>
      <point x="355.4633333333333" y="1000.7166666666667" type="line"/>
      <point x="369.86333333333334" y="965.4" type="line"/>
      <point x="365.73" y="527.0" type="line"/>
      <point x="371.31333333333333" y="80.6" type="line"/>
      <point x="556.01" y="52.766666666666666" type="line"/>
      <point x="556.01" y="0.0" type="line"/>
    </contour>
  </outline>
</glyph>
<glyph name="Schwa" format="2">
  <advance width="1443"/>
  <unicode hex="018F"/>
  <outline>
    <contour>
      <point x="73.75" y="1233.5233333333333" type="line"/>
      <point x="162.53" y="1363.5666666666668"/>
      <point x="451.12666666666667" y="1518.9"/>
      <point x="658.6233333333333" y="1518.9" type="qcurve" smooth="yes"/>
      <point x="979.95" y="1518.9"/>
      <point x="1359.7866666666666" y="1106.3033333333333"/>
      <point x="1359.7866666666666" y="760.6899999999999" type="qcurve" smooth="yes"/>
      <point x="1359.7866666666666" y="419.1766666666667"/>
      <point x="989.2566666666667" y="-30.576666666666664"/>
      <point x="693.69" y="-30.576666666666664" type="qcurve" smooth="yes"/>
      <point x="419.51" y="-30.576666666666664"/>
      <point x="100.72" y="289.08000000000004"/>
      <point x="100.72" y="586.6" type="qcurve" smooth="yes"/>
      <point x="100.72" y="686.0" type="line"/>
      <point x="1284.12" y="686.0" type="line"/>
      <point x="1284.12" y="602.7333333333333" type="line"/>
      <point x="675.0133333333333" y="610.7333333333333" type="line"/>
      <point x="206.73666666666668" y="604.7333333333333" type="line"/>
      <point x="206.73666666666668" y="554.1" type="line" smooth="yes"/>
      <point x="206.73666666666668" y="315.0"/>
      <point x="468.72333333333336" y="52.72666666666666"/>
      <point x="694.95" y="52.72666666666666" type="qcurve" smooth="yes"/>
      <point x="953.6766666666666" y="52.72666666666666"/>
      <point x="1250.5566666666668" y="425.27"/>
      <point x="1250.03" y="736.8566666666667" type="qcurve" smooth="yes"/>
      <point x="1249.5033333333333" y="1069.2566666666667"/>
      <point x="915.7133333333334" y="1430.1833333333334"/>
      <point x="647.3133333333333" y="1430.1833333333334" type="qcurve" smooth="yes"/>
      <point x="451.7833333333333" y="1430.1833333333334"/>
      <point x="192.91" y="1286.2199999999998"/>
      <point x="127.15333333333334" y="1185.7266666666667" type="qcurve"/>
    </contour>
  </outline>
</glyph>
<glyph name="primemod" format="2">
  <advance width="520"/>
  <unicode hex="02B9"/>
  <outline>
    <contour>
      <point x="250.83333333333334" y="1502.0" type="line"/>
      <point x="386.08333333333337" y="1502.0" type="line"/>
      <point x="268.5166666666667" y="991.0" type="line"/>
      <point x="196.68333333333334" y="996.0" type="line"/>
    </contour>
  </outline>
</glyph>
<glyph name="breve" format="2">
  <advance width="1024"/>
  <unicode hex="02D8"/>
  <outline>
    <contour>
      <point x="748.7566666666667" y="1399.2366666666667" type="qcurve"/>
      <point x="799.2433333333333" y="1377.8700000000001" type="line"/>
      <point x="783.9333333333333" y="1294.3866666666665"/>
      <point x="623.7833333333334" y="1148.16"/>
      <point x="513.0" y="1148.16" type="qcurve" smooth="yes"/>
      <point x="401.5" y="1148.16"/>
      <point x="244.01" y="1280.8766666666668"/>
      <point x="224.75666666666666" y="1375.6066666666668" type="qcurve"/>
      <point x="278.50666666666666" y="1400.2366666666667" type="line"/>
      <point x="306.0866666666667" y="1343.8733333333332"/>
      <point x="423.11333333333334" y="1251.1333333333332"/>
      <point x="514.0" y="1250.6066666666668" type="qcurve" smooth="yes"/>
      <point x="606.5133333333333" y="1251.1333333333332"/>
      <point x="726.1766666666666" y="1345.1366666666668"/>
    </contour>
  </outline>
</glyph>
<glyph name="ring" format="2">
  <advance width="1024"/>
  <unicode hex="02DA"/>
  <outline>
    <contour>
      <point x="310.7633333333333" y="1317.0733333333333" type="qcurve" smooth="yes"/>
      <point x="310.7633333333333" y="1397.78"/>
      <point x="427.31333333333333" y="1510.0666666666666"/>
      <point x="512.0" y="1510.0666666666666" type="qcurve" smooth="yes"/>
      <point x="596.6866666666667" y="1510.0666666666666"/>
      <point x="713.2366666666667" y="1397.78"/>
      <point x="713.2366666666667" y="1317.0733333333333" type="qcurve" smooth="yes"/>
      <point x="713.2366666666667" y="1236.3866666666665"/>
      <point x="596.6866666666667" y="1124.1000000000001"/>
      <point x="512.0" y="1124.1000000000001" type="qcurve" smooth="yes"/>
      <point x="427.31333333333333" y="1124.1000000000001"/>
      <point x="310.7633333333333" y="1236.3866666666665"/>
    </contour>
    <contour>
      <point x="394.25" y="1317.0733333333333" type="qcurve" smooth="yes"/>
      <point x="394.25" y="1264.0466666666669"/>
      <point x="457.9733333333333" y="1199.3433333333332"/>
      <point x="512.0" y="1199.3433333333332" type="qcurve" smooth="yes"/>
      <point x="569.0066666666667" y="1199.3433333333332"/>
      <point x="629.75" y="1259.3500000000001"/>
      <point x="629.75" y="1317.0733333333333" type="qcurve" smooth="yes"/>
      <point x="629.75" y="1370.1"/>
      <point x="566.0266666666666" y="1434.8233333333335"/>
      <point x="512.0" y="1434.8233333333335" type="qcurve" smooth="yes"/>
      <point x="454.99333333333334" y="1434.8233333333335"/>
      <point x="394.25" y="1374.8166666666666"/>
    </contour>
  </outline>
</glyph>
<glyph name="commaaccentcomb" format="2">
  <advance width="1024"/>
  <unicode hex="0326"/>
  <outline>
    <contour>
      <point x="403.96666666666664" y="-530.6066666666666" type="line"/>
      <point x="447.17333333333335" y="-496.08666666666664"/>
      <point x="524.7766666666666" y="-399.60333333333335"/>
      <point x="540.11" y="-342.91" type="qcurve"/>
      <point x="481.35" y="-349.0966666666667"/>
      <point x="421.37333333333333" y="-293.1433333333334"/>
      <point x="421.37333333333333" y="-249.26333333333332" type="qcurve" smooth="yes"/>
      <point x="421.37333333333333" y="-206.40333333333334"/>
      <point x="478.84666666666664" y="-146.94"/>
      <point x="523.84" y="-146.94" type="qcurve" smooth="yes"/>
      <point x="566.2666666666667" y="-146.94"/>
      <point x="626.2666666666667" y="-203.8733333333333"/>
      <point x="626.2666666666667" y="-257.5266666666667" type="qcurve" smooth="yes"/>
      <point x="626.2666666666667" y="-347.53"/>
      <point x="506.2166666666667" y="-512.8233333333333"/>
      <point x="428.7966666666667" y="-562.2666666666667" type="qcurve"/>
    </contour>
  </outline>
</glyph>
<glyph name="brevebelowcomb" format="2">
  <advance width="1024"/>
  <unicode hex="032E"/>
  <outline>
    <contour>
      <point x="752.9066666666666" y="-128.27333333333334" type="qcurve"/>
      <point x="807.3433333333332" y="-154.11666666666667" type="line"/>
      <point x="785.1866666666666" y="-239.18"/>
      <point x="627.4699999999999" y="-383.7633333333333"/>
      <point x="512.7366666666667" y="-383.7633333333333" type="qcurve" smooth="yes"/>
      <point x="401.5" y="-383.7633333333333"/>
      <point x="243.02" y="-251.10999999999999"/>
      <point x="216.92" y="-155.32666666666668" type="qcurve"/>
      <point x="275.40999999999997" y="-127.53666666666666" type="line"/>
      <point x="305.8866666666667" y="-185.48"/>
      <point x="422.8933333333334" y="-277.6933333333333"/>
      <point x="513.4733333333332" y="-277.6933333333333" type="qcurve" smooth="yes"/>
      <point x="606.7133333333334" y="-277.6933333333333"/>
      <point x="726.1133333333333" y="-186.06"/>
    </contour>
  </outline>
</glyph>
<glyph name="numeralsign" format="2">
  <advance width="349"/>
  <unicode hex="0374"/>
  <outline>
    <contour>
      <point x="82.55333333333333" y="1018.6333333333333" type="line"/>
      <point x="41.22333333333333" y="1033.6166666666668" type="line"/>
      <point x="157.71333333333334" y="1500.0" type="line"/>
      <point x="258.2633333333333" y="1488.31" type="line"/>
      <point x="275.0866666666667" y="1460.6100000000001" type="line"/>
    </contour>
  </outline>
</glyph>
<glyph name="Pi" format="2">
  <advance width="1674"/>
  <unicode hex="03A0"/>
  <outline>
    <contour>
      <point x="85.38" y="0.0" type="line"/>
      <point x="85.38" y="62.653333333333336" type="line"/>
      <point x="306.7133333333333" y="97.65333333333334" type="line"/>
      <point x="308.7133333333333" y="754.0" type="line"/>
      <point x="306.7133333333333" y="1400.1366666666665" type="line"/>
      <point x="85.38" y="1434.1366666666665" type="line"/>
      <point x="85.38" y="1500.0" type="line"/>
      <point x="1588.1833333333334" y="1500.0" type="line"/>
      <point x="1588.1833333333334" y="1434.1366666666665" type="line"/>
      <point x="1366.85" y="1400.1366666666665" type="line"/>
      <point x="1364.85" y="754.0" type="line"/>
      <point x="1366.85" y="97.65333333333334" type="line"/>
      <point x="1588.1833333333334" y="62.653333333333336" type="line"/>
      <point x="1588.1833333333334" y="0.0" type="line"/>
      <point x="1030.4166666666667" y="0.0" type="line"/>
      <point x="1030.4166666666667" y="62.653333333333336" type="line"/>
      <point x="1258.7166666666667" y="97.65333333333334" type="line"/>
      <point x="1260.7166666666667" y="754.0" type="line"/>
      <point x="1258.7166666666667" y="1400.1366666666665" type="line"/>
      <point x="836.9666666666667" y="1403.1366666666665" type="line"/>
      <point x="414.32" y="1400.1366666666665" type="line"/>
      <point x="412.8466666666667" y="754.0" type="line"/>
      <point x="414.8466666666667" y="97.65333333333334" type="line"/>
      <point x="643.1466666666666" y="62.653333333333336" type="line"/>
      <point x="643.1466666666666" y="0.0" type="line"/>
    </contour>
  </outline>
</glyph>
<glyph name="Psi" format="2">
  <advance width="1857"/>
  <unicode hex="03A8"/>
  <outline>
    <contour>
      <point x="643.0533333333333" y="0.0" type="line"/>
      <point x="643.0533333333333" y="62.653333333333336" type="line"/>
      <point x="874.1866666666666" y="97.65333333333334" type="line"/>
      <point x="875.1066666666667" y="509.84333333333336" type="line"/>
      <point x="878.4733333333334" y="509.84333333333336" type="line"/>
      <point x="878.4733333333334" y="769.01" type="line"/>
      <point x="873.9866666666667" y="1400.1366666666665" type="line"/>
      <point x="675.6866666666666" y="1434.1366666666665" type="line"/>
      <point x="675.6866666666666" y="1500.0" type="line"/>
      <point x="1180.4199999999998" y="1500.0" type="line"/>
      <point x="1180.4199999999998" y="1434.1366666666665" type="line"/>
      <point x="982.12" y="1400.1366666666665" type="line"/>
      <point x="977.6333333333333" y="769.01" type="line"/>
      <point x="977.6333333333333" y="509.84333333333336" type="line"/>
      <point x="981.0" y="509.84333333333336" type="line"/>
      <point x="981.9200000000001" y="97.91666666666667" type="line"/>
      <point x="1213.0533333333333" y="62.653333333333336" type="line"/>
      <point x="1213.0533333333333" y="0.0" type="line"/>
    </contour>
    <contour>
      <point x="904.0466666666666" y="471.31666666666666" type="line"/>
      <point x="575.8733333333334" y="484.1733333333333"/>
      <point x="320.12" y="717.39"/>
      <point x="296.2333333333333" y="1016.15" type="qcurve" smooth="yes"/>
      <point x="263.15" y="1400.1366666666665" type="line"/>
      <point x="59.89666666666666" y="1434.1366666666665" type="line"/>
      <point x="59.89666666666666" y="1500.0" type="line"/>
      <point x="347.8833333333333" y="1500.0" type="line"/>
      <point x="359.4233333333333" y="1491.97" type="line"/>
      <point x="400.87333333333333" y="1018.5066666666667" type="line" smooth="yes"/>
      <point x="425.41333333333336" y="737.4599999999999"/>
      <point x="648.5866666666667" y="559.6833333333334"/>
      <point x="904.0466666666666" y="551.0833333333334" type="qcurve"/>
    </contour>
    <contour>
      <point x="952.0600000000001" y="471.31666666666666" type="qcurve"/>
      <point x="952.0600000000001" y="551.0833333333334" type="line"/>
      <point x="1207.52" y="559.6833333333334"/>
      <point x="1432.2933333333333" y="737.4599999999999"/>
      <point x="1455.2333333333333" y="1018.5066666666667" type="qcurve" smooth="yes"/>
      <point x="1496.6833333333334" y="1491.97" type="line"/>
      <point x="1508.2233333333334" y="1500.0" type="line"/>
      <point x="1796.21" y="1500.0" type="line"/>
      <point x="1796.21" y="1434.1366666666665" type="line"/>
      <point x="1592.9566666666665" y="1400.1366666666665" type="line"/>
      <point x="1559.8733333333332" y="1016.15" type="line" smooth="yes"/>
      <point x="1533.8799999999999" y="717.6533333333333"/>
      <point x="1280.2333333333333" y="484.1733333333333"/>
    </contour>
  </outline>
</glyph>
<glyph name="Omega" format="2">
  <advance width="1550"/>
  <unicode hex="03A9"/>
  <anchor x="116.99333333333334" y="1500.0" name="GRKtopleft"/>
  <outline>
    <contour>
      <point x="65.40333333333332" y="0.0" type="line"/>
      <point x="21.92" y="371.95" type="line"/>
      <point x="89.93666666666667" y="371.95" type="line"/>
      <point x="168.69" y="85.13333333333333" type="line"/>
      <point x="547.66" y="84.56666666666666" type="line"/>
      <point x="560.7099999999999" y="225.33" type="line"/>
      <point x="349.32" y="283.28"/>
      <point x="80.81333333333333" y="609.5933333333334"/>
      <point x="80.85333333333334" y="857.2233333333334" type="qcurve" smooth="yes"/>
      <point x="80.81333333333333" y="1142.36"/>
      <point x="461.6" y="1520.0"/>
      <point x="776.9166666666666" y="1520.0" type="qcurve" smooth="yes"/>
      <point x="1096.9233333333334" y="1520.0"/>
      <point x="1470.5266666666666" y="1166.5666666666666"/>
      <point x="1470.5266666666666" y="868.9833333333333" type="qcurve" smooth="yes"/>
      <point x="1470.5266666666666" y="621.3833333333333"/>
      <point x="1192.4533333333334" y="275.7766666666667"/>
      <point x="987.4666666666667" y="223.51666666666665" type="qcurve"/>
      <point x="1002.2866666666666" y="84.56666666666666" type="line"/>
      <point x="1380.8033333333333" y="85.13333333333333" type="line"/>
      <point x="1459.82" y="371.95" type="line"/>
      <point x="1527.8366666666666" y="371.95" type="line"/>
      <point x="1484.3533333333335" y="0.0" type="line"/>
      <point x="925.66" y="0.0" type="line"/>
      <point x="897.2933333333333" y="281.3333333333333" type="line"/>
      <point x="1127.2233333333334" y="327.9866666666667"/>
      <point x="1359.3566666666668" y="628.3"/>
      <point x="1359.3566666666668" y="864.7" type="qcurve" smooth="yes"/>
      <point x="1359.3566666666668" y="1121.9266666666667"/>
      <point x="1048.2966666666669" y="1436.6166666666666"/>
      <point x="775.1999999999999" y="1436.6166666666666" type="qcurve" smooth="yes"/>
      <point x="507.5333333333333" y="1435.6366666666665"/>
      <point x="194.85000000000002" y="1143.4266666666667"/>
      <point x="192.74" y="868.1066666666667" type="qcurve" smooth="yes"/>
      <point x="194.13333333333333" y="640.6866666666666"/>
      <point x="444.84333333333336" y="332.6666666666667"/>
      <point x="653.37" y="283.48333333333335" type="qcurve"/>
      <point x="623.57" y="0.0" type="line"/>
    </contour>
  </outline>
</glyph>
<glyph name="epsilon" format="2">
  <advance width="1009"/>
  <unicode hex="03B5"/>
  <anchor x="539.2466666666667" y="1000.0" name="GRKtop"/>
  <outline>
    <contour>
      <point x="510.0066666666667" y="-21.9" type="qcurve" smooth="yes"/>
      <point x="304.8266666666667" y="-21.9"/>
      <point x="86.38666666666666" y="131.57"/>
      <point x="86.38666666666666" y="254.0666666666667" type="qcurve" smooth="yes"/>
      <point x="86.38666666666666" y="382.5566666666666"/>
      <point x="327.6066666666666" y="533.55"/>
      <point x="590.78" y="567.2333333333333" type="qcurve" smooth="yes"/>
      <point x="635.95" y="573.05" type="line"/>
      <point x="649.1933333333333" y="541.27" type="line"/>
      <point x="614.6166666666667" y="438.9666666666667" type="line"/>
      <point x="580.5333333333333" y="442.3233333333333" type="line" smooth="yes"/>
      <point x="346.4533333333333" y="464.0466666666666"/>
      <point x="123.12666666666667" y="617.7666666666667"/>
      <point x="123.12666666666667" y="733.8000000000001" type="qcurve" smooth="yes"/>
      <point x="123.12666666666667" y="862.66"/>
      <point x="329.18666666666667" y="1020.5066666666668"/>
      <point x="527.49" y="1020.5066666666668" type="qcurve" smooth="yes"/>
      <point x="636.1466666666666" y="1020.5066666666668"/>
      <point x="831.6866666666666" y="969.8533333333334"/>
      <point x="880.3233333333334" y="930.15" type="qcurve"/>
      <point x="885.9366666666667" y="671.8566666666667" type="line"/>
      <point x="821.9433333333334" y="671.8566666666667" type="line"/>
      <point x="760.3633333333333" y="899.2066666666667" type="line"/>
      <point x="727.89" y="920.1866666666666"/>
      <point x="602.5666666666667" y="948.0733333333334"/>
      <point x="522.75" y="948.0733333333334" type="qcurve" smooth="yes"/>
      <point x="378.6566666666667" y="948.0733333333334"/>
      <point x="229.13" y="837.42"/>
      <point x="229.13" y="737.6" type="qcurve" smooth="yes"/>
      <point x="229.13" y="672.0333333333333"/>
      <point x="323.98" y="564.3066666666667"/>
      <point x="496.26" y="519.4833333333333" type="qcurve"/>
      <point x="492.3333333333333" y="471.5833333333333" type="line"/>
      <point x="340.74" y="458.51"/>
      <point x="199.04" y="350.4166666666667"/>
      <point x="199.04" y="261.51666666666665" type="qcurve" smooth="yes"/>
      <point x="199.04" y="171.78333333333333"/>
      <point x="361.8066666666667" y="65.49333333333334"/>
      <point x="508.35333333333335" y="65.49333333333334" type="qcurve" smooth="yes"/>
      <point x="678.5133333333333" y="65.49333333333334"/>
      <point x="890.8966666666666" y="166.31333333333333"/>
      <point x="944.78" y="235.50666666666666" type="qcurve"/>
      <point x="977.8233333333334" y="197.82333333333332" type="line"/>
      <point x="909.9566666666667" y="91.21333333333334"/>
      <point x="659.61" y="-21.9"/>
    </contour>
  </outline>
</glyph>
<glyph name="rho" format="2">
  <advance width="1102"/>
  <unicode hex="03C1"/>
  <outline>
    <contour>
      <point x="128.53666666666666" y="-480.0" type="line"/>
      <point x="102.37666666666667" y="-460.1666666666667" type="line"/>
      <point x="113.03333333333335" y="89.93333333333334" type="line"/>
      <point x="114.46666666666667" y="435.46666666666664" type="line" smooth="yes"/>
      <point x="114.46666666666667" y="736.7333333333333"/>
      <point x="355.84333333333336" y="1020.5066666666668"/>
      <point x="573.3233333333333" y="1020.5066666666668" type="qcurve" smooth="yes"/>
      <point x="787.2433333333332" y="1020.5066666666668"/>
      <point x="1030.5666666666666" y="744.2933333333333"/>
      <point x="1030.5666666666666" y="516.8666666666667" type="qcurve" smooth="yes"/>
      <point x="1030.5666666666666" y="287.55"/>
      <point x="774.7900000000001" y="-18.14666666666667"/>
      <point x="554.0833333333334" y="-18.45" type="qcurve" smooth="yes"/>
      <point x="428.88" y="-18.733333333333334"/>
      <point x="230.78666666666666" y="85.98333333333333"/>
      <point x="165.34666666666666" y="176.29999999999998" type="qcurve"/>
      <point x="165.34666666666666" y="242.28" type="line"/>
      <point x="194.35333333333335" y="242.28" type="line"/>
      <point x="255.73666666666665" y="152.10999999999999"/>
      <point x="434.4433333333333" y="48.0"/>
      <point x="550.7633333333333" y="48.0" type="qcurve" smooth="yes"/>
      <point x="712.7466666666667" y="48.0"/>
      <point x="915.6466666666666" y="286.4866666666667"/>
      <point x="915.6466666666666" y="514.0433333333333" type="qcurve" smooth="yes"/>
      <point x="915.6466666666666" y="706.09"/>
      <point x="736.8433333333334" y="930.75"/>
      <point x="562.3566666666667" y="930.75" type="qcurve" smooth="yes"/>
      <point x="382.86" y="930.75"/>
      <point x="210.04999999999998" y="692.8333333333334"/>
      <point x="213.03" y="428.9166666666667" type="qcurve"/>
      <point x="213.61666666666667" y="156.58333333333334" type="line"/>
      <point x="223.32333333333332" y="-470.03333333333336" type="line"/>
    </contour>
  </outline>
</glyph>
<glyph name="sigma" format="2">
  <advance width="1159"/>
  <unicode hex="03C3"/>
  <outline>
    <contour>
      <point x="532.59" y="-21.9" type="qcurve" smooth="yes"/>
      <point x="317.9233333333333" y="-21.9"/>
      <point x="66.58666666666666" y="243.52666666666667"/>
      <point x="66.58666666666666" y="452.3666666666667" type="qcurve" smooth="yes"/>
      <point x="66.58666666666666" y="680.0566666666666"/>
      <point x="341.65333333333336" y="972.0566666666666"/>
      <point x="648.2033333333333" y="988.4200000000001" type="qcurve" smooth="yes"/>
      <point x="1097.8466666666668" y="1012.4333333333334" type="line"/>
      <point x="1121.8766666666666" y="990.7566666666667" type="line"/>
      <point x="1109.4399999999998" y="892.4966666666667" type="line"/>
      <point x="750.3066666666666" y="898.49" type="line" smooth="yes"/>
      <point x="409.55333333333334" y="903.9366666666667"/>
      <point x="177.32333333333332" y="651.1733333333334"/>
      <point x="177.32333333333332" y="452.93333333333334" type="qcurve" smooth="yes"/>
      <point x="177.32333333333332" y="272.94666666666666"/>
      <point x="370.6666666666667" y="47.47333333333333"/>
      <point x="537.49" y="47.47333333333333" type="qcurve" smooth="yes"/>
      <point x="712.7966666666666" y="47.47333333333333"/>
      <point x="900.2633333333333" y="296.08"/>
      <point x="900.2633333333333" y="477.96666666666664" type="qcurve" smooth="yes"/>
      <point x="900.2633333333333" y="626.5166666666668"/>
      <point x="789.81" y="848.9466666666666"/>
      <point x="682.5766666666667" y="921.38" type="qcurve"/>
      <point x="682.5766666666667" y="949.7466666666667" type="line"/>
      <point x="717.2266666666667" y="949.7466666666667" type="line"/>
      <point x="860.3333333333333" y="869.2"/>
      <point x="1008.4133333333333" y="629.1"/>
      <point x="1008.4133333333333" y="478.68333333333334" type="qcurve" smooth="yes"/>
      <point x="1008.4133333333333" y="266.7066666666667"/>
      <point x="747.4766666666667" y="-21.9"/>
    </contour>
  </outline>
</glyph>
<glyph name="Ka" format="2">
  <advance width="1446"/>
  <unicode hex="041A"/>
  <guideline x="480.0" y="796.0" angle="90.0" identifier="LxfLwWU0sJ"/>
  <outline>
    <contour>
      <point x="85.38" y="0.0" type="line"/>
      <point x="85.38" y="62.653333333333336" type="line"/>
      <point x="306.7133333333333" y="97.65333333333334" type="line"/>
      <point x="308.7133333333333" y="754.0" type="line"/>
      <point x="306.7133333333333" y="1400.1366666666665" type="line"/>
      <point x="85.38" y="1434.1366666666665" type="line"/>
      <point x="85.38" y="1500.0" type="line"/>
      <point x="640.5133333333333" y="1500.0" type="line"/>
      <point x="640.5133333333333" y="1434.1366666666665" type="line"/>
      <point x="414.8466666666667" y="1400.1366666666665" type="line"/>
      <point x="412.8466666666667" y="754.0" type="line"/>
      <point x="414.8466666666667" y="97.65333333333334" type="line"/>
      <point x="643.1466666666666" y="62.653333333333336" type="line"/>
      <point x="643.1466666666666" y="0.0" type="line"/>
    </contour>
    <contour>
      <point x="360.78000000000003" y="745.4233333333333" type="line"/>
      <point x="360.78000000000003" y="827.1766666666667" type="line"/>
      <point x="643.1633333333333" y="823.1766666666667" type="line"/>
      <point x="1097.6933333333334" y="1396.45" type="line"/>
      <point x="924.12" y="1434.1366666666665" type="line"/>
      <point x="924.12" y="1500.0" type="line"/>
      <point x="1399.4666666666667" y="1500.0" type="line"/>
      <point x="1399.4666666666667" y="1434.1366666666665" type="line"/>
      <point x="1209.6266666666666" y="1396.45" type="line"/>
      <point x="705.85" y="778.0533333333333" type="line"/>
      <point x="676.25" y="743.2733333333333" type="line"/>
    </contour>
    <contour>
      <point x="642.8033333333333" y="748.2933333333333" type="line"/>
      <point x="711.6133333333333" y="818.3866666666667" type="line"/>
      <point x="1294.6833333333332" y="97.63333333333334" type="line"/>
      <point x="1488.7266666666667" y="62.653333333333336" type="line"/>
      <point x="1488.7266666666667" y="0.0" type="line"/>
      <point x="973.0766666666667" y="0.0" type="line"/>
      <point x="973.0766666666667" y="62.653333333333336" type="line"/>
      <point x="1170.1566666666668" y="97.63333333333334" type="line"/>
    </contour>
  </outline>
</glyph>
<glyph name="Ucyr" format="2">
  <advance width="1342"/>
  <unicode hex="0423"/>
  <outline>
    <contour>
      <point x="672.2866666666666" y="421.37" type="qcurve" smooth="yes"/>
      <point x="877.9366666666667" y="898.4" type="line"/>
      <point x="1083.4666666666667" y="1401.7166666666667" type="line"/>
      <point x="868.8000000000001" y="1434.1366666666665" type="line"/>
      <point x="868.8000000000001" y="1500.0" type="line"/>
      <point x="1376.7933333333333" y="1500.0" type="line"/>
      <point x="1376.7933333333333" y="1434.1366666666665" type="line"/>
      <point x="1180.41" y="1401.98" type="line"/>
      <point x="946.1766666666666" y="869.6233333333333" type="line"/>
      <point x="736.27" y="369.3" type="line" smooth="yes"/>
      <point x="655.9466666666666" y="177.5366666666667"/>
      <point x="483.54" y="-17.0"/>
      <point x="331.1666666666667" y="-17.0" type="qcurve" smooth="yes"/>
      <point x="303.58333333333337" y="-17.0"/>
      <point x="254.44333333333333" y="-9.263333333333334"/>
      <point x="232.13333333333335" y="0.0" type="qcurve"/>
      <point x="232.13333333333335" y="125.66666666666666" type="line"/>
      <point x="256.05333333333334" y="117.68666666666665"/>
      <point x="296.0333333333333" y="112.66666666666666"/>
      <point x="332.93333333333334" y="112.66666666666666" type="qcurve" smooth="yes"/>
      <point x="460.55333333333334" y="112.66666666666666"/>
      <point x="600.6733333333333" y="255.05333333333334"/>
    </contour>
    <contour>
      <point x="638.1700000000001" y="268.2033333333333" type="line"/>
      <point x="384.7366666666667" y="888.36" type="line"/>
      <point x="166.71666666666667" y="1402.2433333333333" type="line"/>
      <point x="-34.416666666666664" y="1434.1366666666665" type="line"/>
      <point x="-34.416666666666664" y="1500.0" type="line"/>
      <point x="498.3233333333333" y="1500.0" type="line"/>
      <point x="498.3233333333333" y="1434.1366666666665" type="line"/>
      <point x="288.9533333333333" y="1399.8733333333334" type="line"/>
      <point x="473.6633333333333" y="938.86" type="line"/>
      <point x="702.8133333333334" y="391.31333333333333" type="line"/>
    </contour>
  </outline>
</glyph>
<glyph name="Che" format="2">
  <advance width="1643"/>
  <unicode hex="0427"/>
  <guideline x="1330.0" y="777.0" angle="90.0" identifier="9CLqHZNG04"/>
  <outline>
    <contour>
      <point x="987.0333333333334" y="0.0" type="line"/>
      <point x="987.0333333333334" y="62.653333333333336" type="line"/>
      <point x="1228.1666666666667" y="97.65333333333334" type="line"/>
      <point x="1230.1666666666667" y="754.0" type="line"/>
      <point x="1228.1666666666667" y="1400.1366666666665" type="line"/>
      <point x="999.8666666666667" y="1434.1366666666665" type="line"/>
      <point x="999.8666666666667" y="1500.0" type="line"/>
      <point x="1557.6333333333332" y="1500.0" type="line"/>
      <point x="1557.6333333333332" y="1434.1366666666665" type="line"/>
      <point x="1336.3" y="1400.1366666666665" type="line"/>
      <point x="1334.3" y="754.0" type="line"/>
      <point x="1336.3" y="97.65333333333334" type="line"/>
      <point x="1557.6333333333332" y="62.653333333333336" type="line"/>
      <point x="1557.6333333333332" y="0.0" type="line"/>
    </contour>
    <contour>
      <point x="56.766666666666666" y="1434.1366666666665" type="line"/>
      <point x="56.766666666666666" y="1500.0" type="line"/>
      <point x="614.5333333333334" y="1500.0" type="line"/>
      <point x="614.5333333333334" y="1434.1366666666665" type="line"/>
      <point x="386.49666666666667" y="1400.1366666666665" type="line"/>
      <point x="385.49666666666667" y="1072.2" type="line" smooth="yes"/>
      <point x="384.5098546794987" y="866.3689834658927"/>
      <point x="601.99" y="702.9"/>
      <point x="841.14" y="702.9" type="qcurve" smooth="yes"/>
      <point x="964.3651660516599" y="702.9"/>
      <point x="1177.85397695462" y="739.624921462894"/>
      <point x="1282.2333333333333" y="776.38" type="qcurve"/>
      <point x="1282.2333333333333" y="700.5433333333333" type="line"/>
      <point x="1177.2861686208275" y="663.674747298114"/>
      <point x="960.1180666666667" y="625.5133333333333"/>
      <point x="799.4" y="625.5133333333333" type="qcurve" smooth="yes"/>
      <point x="550.5433333333333" y="625.5133333333333"/>
      <point x="279.5632573203873" y="824.1645634178548"/>
      <point x="278.8366666666667" y="1079.2" type="qcurve" smooth="yes"/>
      <point x="278.1" y="1400.1366666666665" type="line"/>
    </contour>
  </outline>
</glyph>
<glyph name="Soft" format="2">
  <advance width="1250"/>
  <unicode hex="042C"/>
  <outline>
    <contour>
      <point x="419.4666666666667" y="810.8333333333333" type="line"/>
      <point x="413.3733333333333" y="798.9833333333333" type="line"/>
      <point x="414.3933333333333" y="92.03666666666666" type="line"/>
      <point x="445.4066666666667" y="73.6" type="line"/>
      <point x="678.4599999999999" y="72.88333333333333" type="line" smooth="yes"/>
      <point x="871.3533333333334" y="72.16666666666666"/>
      <point x="1082.7866666666666" y="264.5833333333333"/>
      <point x="1082.7866666666666" y="454.3666666666667" type="qcurve" smooth="yes"/>
      <point x="1082.7866666666666" y="632.3"/>
      <point x="873.4233333333334" y="810.8333333333333"/>
      <point x="681.0166666666667" y="810.8333333333333" type="qcurve" smooth="yes"/>
    </contour>
    <contour>
      <point x="413.11" y="898.5166666666667" type="line"/>
      <point x="421.3333333333333" y="886.6666666666666" type="line"/>
      <point x="699.01" y="886.6666666666666" type="line" smooth="yes"/>
      <point x="945.9100000000001" y="886.6866666666666"/>
      <point x="1200.0266666666666" y="665.65"/>
      <point x="1200.0266666666666" y="454.3666666666667" type="qcurve" smooth="yes"/>
      <point x="1200.0266666666666" y="242.63333333333333"/>
      <point x="934.5933333333332" y="0.0"/>
      <point x="700.8499999999999" y="0.0" type="qcurve" smooth="yes"/>
      <point x="85.38" y="0.0" type="line"/>
      <point x="85.38" y="62.653333333333336" type="line"/>
      <point x="306.7133333333333" y="97.65333333333334" type="line"/>
      <point x="308.7133333333333" y="749.26" type="line"/>
      <point x="306.7133333333333" y="1400.1366666666665" type="line"/>
      <point x="85.38" y="1434.1366666666665" type="line"/>
      <point x="85.38" y="1500.0" type="line"/>
      <point x="643.3466666666667" y="1500.0" type="line"/>
      <point x="643.3466666666667" y="1434.1366666666665" type="line"/>
      <point x="414.8466666666667" y="1400.1366666666665" type="line"/>
    </contour>
  </outline>
</glyph>
<glyph name="de" format="2">
  <advance width="1197"/>
  <unicode hex="0434"/>
  <guideline x="302.0" y="625.0" angle="90.0" identifier="jHuxcyi1x5"/>
  <guideline x="953.0" y="554.0" angle="90.0" identifier="b1mHk7wgTR"/>
  <guideline x="627.0" y="553.0" angle="90.0" identifier="m4aYe0x4PZ"/>
  <outline>
    <contour>
      <point x="1069.14" y="-318.0" type="line"/>
      <point x="1004.5666666666666" y="0.0" type="line"/>
      <point x="159.75666666666666" y="0.0" type="line"/>
      <point x="95.18333333333334" y="-318.0" type="line"/>
      <point x="29.9" y="-318.0" type="line"/>
      <point x="40.61666666666667" y="71.21666666666667" type="line"/>
      <point x="1124.4233333333334" y="71.21666666666667" type="line"/>
      <point x="1134.4233333333334" y="-318.0" type="line"/>
    </contour>
    <contour>
      <point x="951.5533333333334" y="0.0" type="line"/>
      <point x="846.3133333333334" y="0.0" type="line"/>
      <point x="848.3133333333334" y="499.88" type="line"/>
      <point x="846.3133333333334" y="928.0666666666667" type="line"/>
      <point x="401.3333333333333" y="928.0666666666667" type="line"/>
      <point x="361.7333333333333" y="474.52" type="line" smooth="yes"/>
      <point x="352.11848333888935" y="363.81678714174967"/>
      <point x="308.0366666666667" y="137.78666666666666"/>
      <point x="273.17" y="57.096666666666664" type="qcurve"/>
      <point x="169.04666666666665" y="57.096666666666664" type="line"/>
      <point x="215.57" y="140.74666666666664"/>
      <point x="270.3066666666667" y="381.20666666666665"/>
      <point x="279.7933333333333" y="490.2" type="qcurve" smooth="yes"/>
      <point x="316.4533333333333" y="919.4" type="line"/>
      <point x="155.08" y="948.6666666666666" type="line"/>
      <point x="155.08" y="1000.0" type="line"/>
      <point x="1112.9266666666667" y="1000.0" type="line"/>
      <point x="1112.9266666666667" y="948.6666666666666" type="line"/>
      <point x="951.5533333333334" y="919.4" type="line"/>
      <point x="949.5333333333334" y="500.0" type="line"/>
    </contour>
  </outline>
</glyph>
<glyph name="em" format="2">
  <advance width="1570"/>
  <unicode hex="043C"/>
  <guideline x="1285.0" y="878.0" angle="0" identifier="6e2z48lNZ1"/>
  <outline>
    <contour>
      <point x="329.8866666666667" y="79.16666666666666" type="line"/>
      <point x="488.00666666666666" y="51.33333333333333" type="line"/>
      <point x="488.00666666666666" y="0.0" type="line"/>
      <point x="86.56666666666668" y="0.0" type="line"/>
      <point x="86.56666666666668" y="51.33333333333333" type="line"/>
      <point x="247.94" y="79.16666666666666" type="line"/>
      <point x="250.92" y="500.98" type="line"/>
      <point x="247.94" y="919.4" type="line"/>
      <point x="86.56666666666668" y="948.6666666666666" type="line"/>
      <point x="86.56666666666668" y="1000.0" type="line"/>
      <point x="421.28999999999996" y="1000.0" type="line"/>
      <point x="611.5633333333333" y="534.6866666666667" type="line"/>
      <point x="795.6333333333333" y="112.33333333333333" type="line"/>
      <point x="971.3666666666667" y="522.6866666666666" type="line"/>
      <point x="1169.3533333333332" y="1000.0" type="line"/>
      <point x="1483.6733333333332" y="1000.0" type="line"/>
      <point x="1483.6733333333332" y="948.6666666666666" type="line"/>
      <point x="1322.3" y="919.4" type="line"/>
      <point x="1320.3" y="500.98" type="line"/>
      <point x="1322.3" y="80.6" type="line"/>
      <point x="1483.6733333333332" y="51.33333333333333" type="line"/>
      <point x="1483.6733333333332" y="0.0" type="line"/>
      <point x="1060.3733333333334" y="0.0" type="line"/>
      <point x="1060.3733333333334" y="51.33333333333333" type="line"/>
      <point x="1217.06" y="80.6" type="line"/>
      <point x="1219.08" y="500.96" type="line"/>
      <point x="1217.06" y="909.2066666666666" type="line"/>
      <point x="1037.0266666666666" y="497.51666666666665" type="line"/>
      <point x="830.1933333333334" y="-5.0" type="line"/>
      <point x="720.92" y="-5.0" type="line"/>
      <point x="523.6833333333333" y="475.0033333333334" type="line"/>
      <point x="329.8866666666667" y="909.1266666666667" type="line"/>
      <point x="326.8866666666667" y="500.98" type="line"/>
    </contour>
  </outline>
</glyph>
<glyph name="che" format="2">
  <advance width="1206"/>
  <unicode hex="0447"/>
  <guideline x="302.0" y="625.0" angle="90.0" identifier="jHuxcyi1x5"/>
  <guideline x="953.0" y="554.0" angle="90.0" identifier="b1mHk7wgTR"/>
  <guideline x="627.0" y="553.0" angle="90.0" identifier="m4aYe0x4PZ"/>
  <outline>
    <contour>
      <point x="956.2266666666666" y="500.0" type="line"/>
      <point x="958.2266666666666" y="80.6" type="line"/>
      <point x="1119.6000000000001" y="51.33333333333333" type="line"/>
      <point x="1119.6000000000001" y="0.0" type="line"/>
      <point x="674.4866666666667" y="0.0" type="line"/>
      <point x="674.4866666666667" y="51.33333333333333" type="line"/>
      <point x="853.0066666666668" y="80.6" type="line"/>
      <point x="854.9666666666667" y="500.0" type="line"/>
      <point x="853.0066666666668" y="919.4" type="line"/>
      <point x="694.8866666666668" y="948.6666666666666" type="line"/>
      <point x="694.8866666666668" y="1000.0" type="line"/>
      <point x="1119.6000000000001" y="1000.0" type="line"/>
      <point x="1119.6000000000001" y="948.6666666666666" type="line"/>
      <point x="958.2266666666666" y="919.4" type="line"/>
    </contour>
    <contour>
      <point x="212.41666666666669" y="710.22" type="qcurve" smooth="yes"/>
      <point x="211.17333333333335" y="919.4" type="line"/>
      <point x="49.8" y="948.6666666666666" type="line"/>
      <point x="49.8" y="1000.0" type="line"/>
      <point x="474.5333333333333" y="1000.0" type="line"/>
      <point x="474.5333333333333" y="948.6666666666666" type="line"/>
      <point x="316.4133333333333" y="919.4" type="line"/>
      <point x="315.43333333333334" y="710.18" type="line" smooth="yes"/>
      <point x="314.4533333333333" y="590.94"/>
      <point x="435.06666666666666" y="493.4"/>
      <point x="576.3" y="493.4" type="qcurve" smooth="yes"/>
      <point x="666.6166666666667" y="493.4"/>
      <point x="826.2366666666667" y="515.5966666666666"/>
      <point x="905.5966666666667" y="547.6400000000001" type="qcurve"/>
      <point x="905.5966666666667" y="479.72333333333336" type="line"/>
      <point x="826.7233333333334" y="450.96000000000004"/>
      <point x="668.5466666666667" y="422.06666666666666"/>
      <point x="560.9" y="422.06666666666666" type="qcurve" smooth="yes"/>
      <point x="383.48" y="422.06666666666666"/>
      <point x="213.66" y="560.05"/>
    </contour>
  </outline>
</glyph>
<glyph name="soft" format="2">
  <advance width="1003"/>
  <unicode hex="044C"/>
  <guideline x="302.0" y="625.0" angle="90.0" identifier="A4qVwRmZ22"/>
  <guideline x="953.0" y="554.0" angle="90.0" identifier="h0tFJgBRAh"/>
  <guideline x="627.0" y="553.0" angle="90.0" identifier="x6MEKzPxp5"/>
  <guideline x="329.0" y="565.0" angle="0" identifier="Iz6BEWeM15"/>
  <outline>
    <contour>
      <point x="300.57" y="537.5" type="line"/>
      <point x="300.57" y="606.5666666666666" type="line"/>
      <point x="588.5666666666666" y="606.5666666666666" type="line" smooth="yes"/>
      <point x="770.6766666666666" y="606.5666666666666"/>
      <point x="957.9566666666666" y="448.51"/>
      <point x="957.9566666666666" y="314.0" type="qcurve" smooth="yes"/>
      <point x="957.9566666666666" y="172.0"/>
      <point x="770.6766666666666" y="0.0"/>
      <point x="588.5666666666666" y="0.0" type="qcurve" smooth="yes"/>
      <point x="86.56666666666668" y="0.0" type="line"/>
      <point x="86.56666666666668" y="51.33333333333333" type="line"/>
      <point x="247.94" y="80.6" type="line"/>
      <point x="249.94" y="500.0" type="line"/>
      <point x="247.94" y="919.4" type="line"/>
      <point x="86.56666666666668" y="948.6666666666666" type="line"/>
      <point x="86.56666666666668" y="1000.0" type="line"/>
      <point x="513.9133333333334" y="1000.0" type="line"/>
      <point x="513.9133333333334" y="948.6666666666666" type="line"/>
      <point x="353.16" y="919.4" type="line"/>
      <point x="351.2" y="500.0" type="line"/>
      <point x="353.16" y="71.21666666666667" type="line"/>
      <point x="583.55" y="71.21666666666667" type="line" smooth="yes"/>
      <point x="731.54" y="71.21666666666667"/>
      <point x="842.0333333333334" y="209.62666666666667"/>
      <point x="842.0333333333334" y="314.0" type="qcurve" smooth="yes"/>
      <point x="842.0333333333334" y="411.31666666666666"/>
      <point x="731.54" y="537.5"/>
      <point x="583.55" y="537.5" type="qcurve" smooth="yes"/>
    </contour>
  </outline>
</glyph>
<glyph name="ya" format="2">
  <advance width="1116"/>
  <unicode hex="044F"/>
  <guideline x="302.0" y="625.0" angle="90.0" identifier="XQgmgmO2xX"/>
  <guideline x="953.0" y="554.0" angle="90.0" identifier="MobSutKfE9"/>
  <guideline x="627.0" y="553.0" angle="90.0" identifier="l2g0Cp9ZiO"/>
  <outline>
    <contour>
      <point x="815.51" y="496.8333333333333" type="line"/>
      <point x="815.51" y="432.7266666666667" type="line"/>
      <point x="499.46" y="427.7666666666667" type="line"/>
      <point x="463.36" y="435.24333333333334" type="line"/>
      <point x="311.9766666666667" y="452.99"/>
      <point x="162.07" y="587.65"/>
      <point x="162.07" y="712.4833333333333" type="qcurve" smooth="yes"/>
      <point x="162.07" y="840.8833333333333"/>
      <point x="357.23333333333335" y="1000.0"/>
      <point x="537.1933333333334" y="1000.0" type="qcurve" smooth="yes"/>
      <point x="1029.5133333333333" y="1000.0" type="line"/>
      <point x="1029.5133333333333" y="948.6666666666666" type="line"/>
      <point x="868.14" y="919.4" type="line"/>
      <point x="866.14" y="500.0" type="line"/>
      <point x="868.14" y="80.6" type="line"/>
      <point x="1029.5133333333333" y="51.33333333333333" type="line"/>
      <point x="1029.5133333333333" y="0.0" type="line"/>
      <point x="604.8" y="0.0" type="line"/>
      <point x="604.8" y="51.33333333333333" type="line"/>
      <point x="762.92" y="80.6" type="line"/>
      <point x="764.88" y="500.0" type="line"/>
      <point x="762.92" y="928.0666666666667" type="line"/>
      <point x="537.1933333333334" y="928.0666666666667" type="line" smooth="yes"/>
      <point x="396.37" y="928.0666666666667"/>
      <point x="275.12666666666667" y="812.8566666666667"/>
      <point x="275.12666666666667" y="712.4833333333333" type="qcurve" smooth="yes"/>
      <point x="275.12666666666667" y="612.7166666666667"/>
      <point x="396.37" y="496.8333333333333"/>
      <point x="537.1933333333334" y="496.8333333333333" type="qcurve" smooth="yes"/>
    </contour>
    <contour>
      <point x="543.8833333333333" y="448.1533333333333" type="line"/>
      <point x="281.53999999999996" y="66.56666666666666" type="line"/>
      <point x="312.93666666666667" y="46.75" type="line"/>
      <point x="302.37" y="0.0" type="line"/>
      <point x="29.7" y="0.0" type="line"/>
      <point x="29.7" y="51.33333333333333" type="line"/>
      <point x="175.2" y="80.6" type="line"/>
      <point x="446.68666666666667" y="474.1533333333333" type="line"/>
    </contour>
  </outline>
</glyph>
<glyph name="nje" format="2">
  <advance width="1640"/>
  <unicode hex="045A"/>
  <guideline x="302.0" y="625.0" angle="90.0" identifier="jHuxcyi1x5"/>
  <guideline x="953.0" y="554.0" angle="90.0" identifier="b1mHk7wgTR"/>
  <guideline x="627.0" y="553.0" angle="90.0" identifier="m4aYe0x4PZ"/>
  <guideline x="308.84" y="623.56" angle="0" identifier="rq0U6aqci5"/>
  <outline>
    <contour>
      <point x="300.57" y="579.3366666666667" type="line"/>
      <point x="596.2900000000001" y="576.3366666666667" type="line"/>
      <point x="937.4466666666667" y="579.3366666666667" type="line"/>
      <point x="937.4466666666667" y="506.58666666666664" type="line"/>
      <point x="596.2900000000001" y="508.58666666666664" type="line"/>
      <point x="300.57" y="506.58666666666664" type="line"/>
    </contour>
    <contour>
      <point x="249.94" y="500.0" type="line"/>
      <point x="247.94" y="919.4" type="line"/>
      <point x="86.56666666666668" y="948.6666666666666" type="line"/>
      <point x="86.56666666666668" y="1000.0" type="line"/>
      <point x="511.28" y="1000.0" type="line"/>
      <point x="511.28" y="948.6666666666666" type="line"/>
      <point x="353.16" y="919.4" type="line"/>
      <point x="351.2" y="500.0" type="line"/>
      <point x="353.16" y="80.6" type="line"/>
      <point x="509.8466666666667" y="51.33333333333333" type="line"/>
      <point x="509.8466666666667" y="0.0" type="line"/>
      <point x="86.56666666666668" y="0.0" type="line"/>
      <point x="86.56666666666668" y="51.33333333333333" type="line"/>
      <point x="247.94" y="80.6" type="line"/>
    </contour>
    <contour>
      <point x="937.4466666666667" y="510.27000000000004" type="line"/>
      <point x="937.4466666666667" y="579.3366666666667" type="line"/>
      <point x="1225.4233333333334" y="579.3366666666667" type="line" smooth="yes"/>
      <point x="1407.5333333333333" y="579.3366666666667"/>
      <point x="1594.8133333333335" y="425.07"/>
      <point x="1594.8133333333335" y="292.6333333333334" type="qcurve" smooth="yes"/>
      <point x="1594.8133333333335" y="161.30666666666667"/>
      <point x="1407.5333333333333" y="0.0"/>
      <point x="1225.4233333333334" y="0.0" type="qcurve" smooth="yes"/>
      <point x="726.6566666666666" y="0.0" type="line"/>
      <point x="726.6566666666666" y="51.33333333333333" type="line"/>
      <point x="884.8166666666667" y="80.6" type="line"/>
      <point x="886.8166666666667" y="500.0" type="line"/>
      <point x="884.8166666666667" y="919.4" type="line"/>
      <point x="726.6566666666666" y="948.6666666666666" type="line"/>
      <point x="726.6566666666666" y="1000.0" type="line"/>
      <point x="1150.79" y="1000.0" type="line"/>
      <point x="1150.79" y="948.6666666666666" type="line"/>
      <point x="990.0366666666666" y="919.4" type="line"/>
      <point x="988.0766666666667" y="500.0" type="line"/>
      <point x="990.0366666666666" y="71.21666666666667" type="line"/>
      <point x="1220.4066666666668" y="71.21666666666667" type="line" smooth="yes"/>
      <point x="1368.3966666666668" y="71.21666666666667"/>
      <point x="1478.89" y="197.23666666666668"/>
      <point x="1478.89" y="292.6333333333334" type="qcurve" smooth="yes"/>
      <point x="1478.89" y="387.42333333333335"/>
      <point x="1368.3966666666668" y="510.27000000000004"/>
      <point x="1220.4066666666668" y="510.27000000000004" type="qcurve" smooth="yes"/>
    </contour>
  </outline>
</glyph>
<glyph name="Gheup" format="2">
  <advance width="1181"/>
  <unicode hex="0490"/>
  <outline>
    <contour>
      <point x="993.0933333333334" y="1500.0" type="line"/>
      <point x="1042.7133333333334" y="1828.0" type="line"/>
      <point x="1115.68" y="1828.0" type="line"/>
      <point x="1105.68" y="1425.7166666666667" type="line"/>
      <point x="442.51666666666665" y="1425.7166666666667" type="line"/>
      <point x="414.8466666666667" y="1401.4166666666667" type="line"/>
      <point x="412.13" y="755.7" type="line"/>
      <point x="414.8466666666667" y="96.84333333333332" type="line"/>
      <point x="667.2666666666667" y="62.653333333333336" type="line"/>
      <point x="667.2666666666667" y="0.0" type="line"/>
      <point x="85.38" y="0.0" type="line"/>
      <point x="85.38" y="62.653333333333336" type="line"/>
      <point x="306.7133333333333" y="98.17999999999999" type="line"/>
      <point x="308.7133333333333" y="755.58" type="line"/>
      <point x="306.7133333333333" y="1400.1366666666665" type="line"/>
      <point x="85.38" y="1434.1366666666665" type="line"/>
      <point x="85.38" y="1500.0" type="line"/>
    </contour>
  </outline>
</glyph>
<glyph name="Kaverticalstrokecyr" format="2">
  <advance width="1601"/>
  <unicode hex="049C"/>
  <guideline x="480.0" y="796.0" angle="90.0" identifier="LxfLwWU0sJ"/>
  <outline>
    <contour>
      <point x="85.38" y="0.0" type="line"/>
      <point x="85.38" y="62.653333333333336" type="line"/>
      <point x="306.7133333333333" y="97.65333333333334" type="line"/>
      <point x="308.7133333333333" y="754.0" type="line"/>
      <point x="306.7133333333333" y="1400.1366666666665" type="line"/>
      <point x="85.38" y="1434.1366666666665" type="line"/>
      <point x="85.38" y="1500.0" type="line"/>
      <point x="640.5133333333333" y="1500.0" type="line"/>
      <point x="640.5133333333333" y="1434.1366666666665" type="line"/>
      <point x="414.8466666666667" y="1400.1366666666665" type="line"/>
      <point x="412.8466666666667" y="754.0" type="line"/>
      <point x="414.8466666666667" y="97.65333333333334" type="line"/>
      <point x="643.1466666666666" y="62.653333333333336" type="line"/>
      <point x="643.1466666666666" y="0.0" type="line"/>
    </contour>
    <contour>
      <point x="660.7933333333334" y="743.2733333333333" type="line"/>
      <point x="660.7933333333334" y="825.0266666666668" type="line"/>
      <point x="822.1566666666666" y="823.1766666666667" type="line"/>
      <point x="1239.32" y="1396.45" type="line"/>
      <point x="1065.7466666666667" y="1434.1366666666665" type="line"/>
      <point x="1065.7466666666667" y="1500.0" type="line"/>
      <point x="1540.9133333333334" y="1500.0" type="line"/>
      <point x="1540.9133333333334" y="1434.1366666666665" type="line"/>
      <point x="1351.0733333333333" y="1396.45" type="line"/>
      <point x="884.8433333333334" y="778.0533333333333" type="line"/>
      <point x="855.2433333333333" y="743.2733333333333" type="line"/>
    </contour>
    <contour>
      <point x="821.7966666666666" y="748.2933333333333" type="line"/>
      <point x="893.4733333333334" y="816.9533333333333" type="line"/>
      <point x="1436.13" y="97.63333333333334" type="line"/>
      <point x="1630.1733333333334" y="62.653333333333336" type="line"/>
      <point x="1630.1733333333334" y="0.0" type="line"/>
      <point x="1114.7033333333334" y="0.0" type="line"/>
      <point x="1114.7033333333334" y="62.653333333333336" type="line"/>
      <point x="1311.7833333333335" y="97.63333333333334" type="line"/>
    </contour>
    <contour>
      <point x="707.1266666666667" y="1185.0" type="line"/>
      <point x="707.1266666666667" y="329.4" type="line"/>
      <point x="614.46" y="329.4" type="line"/>
      <point x="614.46" y="1185.0" type="line"/>
    </contour>
  </outline>
</glyph>
<glyph name="kabashkircyr" format="2">
  <advance width="1306"/>
  <unicode hex="04A1"/>
  <guideline x="302.0" y="625.0" angle="90.0" identifier="0glbwjr6f1"/>
  <guideline x="953.0" y="554.0" angle="90.0" identifier="41A0uQDzZV"/>
  <guideline x="627.0" y="553.0" angle="90.0" identifier="rA3XBl1QkZ"/>
  <guideline x="241.0" y="553.0" angle="90.0" identifier="UwAftolvUF"/>
  <outline>
    <contour>
      <point x="741.0133333333333" y="484.3" type="line"/>
      <point x="815.4866666666667" y="546.3866666666667" type="line"/>
      <point x="1173.8933333333334" y="80.6" type="line"/>
      <point x="1316.3966666666668" y="51.33333333333333" type="line"/>
      <point x="1316.3966666666668" y="0.0" type="line"/>
      <point x="1041.05" y="0.0" type="line"/>
      <point x="1030.4833333333333" y="46.75" type="line"/>
      <point x="1061.8799999999999" y="66.56666666666666" type="line"/>
    </contour>
    <contour>
      <point x="503.43666666666667" y="545.64" type="line"/>
      <point x="748.3766666666667" y="542.64" type="line"/>
      <point x="1034.0433333333333" y="917.9833333333333" type="line"/>
      <point x="890.0133333333333" y="942.25" type="line"/>
      <point x="890.0133333333333" y="1000.0" type="line"/>
      <point x="1287.41" y="1000.0" type="line"/>
      <point x="1287.41" y="942.25" type="line"/>
      <point x="1130.19" y="915.85" type="line"/>
      <point x="813.3133333333334" y="521.4366666666666" type="line"/>
      <point x="773.1933333333333" y="474.15333333333336" type="line"/>
      <point x="503.43666666666667" y="472.17333333333335" type="line"/>
    </contour>
    <contour>
      <point x="712.7133333333334" y="51.33333333333333" type="line"/>
      <point x="712.7133333333334" y="0.0" type="line"/>
      <point x="289.43333333333334" y="0.0" type="line"/>
      <point x="289.43333333333334" y="51.33333333333333" type="line"/>
      <point x="450.8066666666667" y="80.6" type="line"/>
      <point x="452.8066666666667" y="500.0" type="line"/>
      <point x="450.78666666666663" y="928.0666666666667" type="line"/>
      <point x="165.08666666666667" y="928.0666666666667" type="line"/>
      <point x="119.62333333333335" y="717.9" type="line"/>
      <point x="52.233333333333334" y="717.9" type="line"/>
      <point x="52.233333333333334" y="1000.0" type="line"/>
      <point x="714.1466666666666" y="1000.0" type="line"/>
      <point x="714.1466666666666" y="948.6666666666666" type="line"/>
      <point x="556.0266666666666" y="919.4" type="line"/>
      <point x="554.0666666666666" y="500.0" type="line"/>
      <point x="556.0266666666666" y="80.6" type="line"/>
    </contour>
  </outline>
</glyph>
<glyph name="Tedescender-cy" format="2">
  <advance width="1284"/>
  <unicode hex="04AC"/>
  <outline>
    <contour>
      <point x="814.7466666666667" y="0.0" type="line"/>
      <point x="342.40000000000003" y="0.0" type="line"/>
      <point x="342.40000000000003" y="62.63333333333333" type="line"/>
      <point x="588.3499999999999" y="97.89666666666666" type="line"/>
      <point x="590.3499999999999" y="754.0" type="line"/>
      <point x="588.3499999999999" y="1410.0166666666667" type="line"/>
      <point x="567.8833333333333" y="1425.7166666666667" type="line"/>
      <point x="149.88333333333333" y="1425.7166666666667" type="line"/>
      <point x="108.43333333333334" y="1098.9833333333333" type="line"/>
      <point x="37.85" y="1098.9833333333333" type="line"/>
      <point x="37.85" y="1500.0" type="line"/>
      <point x="1246.2666666666667" y="1500.0" type="line"/>
      <point x="1246.2666666666667" y="1098.9833333333333" type="line"/>
      <point x="1176.4" y="1098.9833333333333" type="line"/>
      <point x="1128.5" y="1425.7166666666667" type="line"/>
      <point x="720.5" y="1425.7166666666667" type="line"/>
      <point x="696.4833333333333" y="1411.45" type="line"/>
      <point x="694.4833333333333" y="754.0" type="line"/>
      <point x="696.4833333333333" y="71.45" type="line"/>
      <point x="942.2133333333334" y="71.45" type="line"/>
      <point x="952.2133333333334" y="-338.0" type="line"/>
      <point x="879.2466666666667" y="-338.0" type="line"/>
    </contour>
  </outline>
</glyph>
<glyph name="Ustraightstroke" format="2">
  <advance width="1296"/>
  <unicode hex="04B0"/>
  <outline>
    <contour>
      <point x="280.99333333333334" y="540.0233333333334" type="line"/>
      <point x="280.99333333333334" y="623.2333333333333" type="line"/>
      <point x="1019.44" y="623.2333333333333" type="line"/>
      <point x="1019.44" y="540.0233333333334" type="line"/>
    </contour>
    <contour>
      <point x="-43.733333333333334" y="1434.1366666666665" type="line"/>
      <point x="-43.733333333333334" y="1500.0" type="line"/>
      <point x="483.99" y="1500.0" type="line"/>
      <point x="483.99" y="1434.1366666666665" type="line"/>
      <point x="290.38666666666666" y="1399.8733333333334" type="line"/>
      <point x="479.7966666666666" y="1044.61" type="line"/>
      <point x="668.3266666666666" y="711.6933333333334" type="line"/>
      <point x="863.91" y="1069.2433333333333" type="line"/>
      <point x="1039.8500000000001" y="1401.7166666666667" type="line"/>
      <point x="832.35" y="1434.1366666666665" type="line"/>
      <point x="832.35" y="1500.0" type="line"/>
      <point x="1339.6266666666668" y="1500.0" type="line"/>
      <point x="1339.6266666666668" y="1434.1366666666665" type="line"/>
      <point x="1138.9433333333334" y="1401.98" type="line"/>
      <point x="928.5566666666667" y="1025.4566666666665" type="line"/>
      <point x="703.7166666666667" y="623.2333333333333" type="line"/>
      <point x="704.2833333333334" y="97.65333333333334" type="line"/>
      <point x="957.1166666666667" y="62.653333333333336" type="line"/>
      <point x="957.1166666666667" y="0.0" type="line"/>
      <point x="339.68" y="0.0" type="line"/>
      <point x="339.68" y="62.653333333333336" type="line"/>
      <point x="596.15" y="97.65333333333334" type="line"/>
      <point x="597.4333333333333" y="623.2333333333333" type="line"/>
      <point x="393.75" y="996.4066666666668" type="line"/>
      <point x="166.0" y="1402.2433333333333" type="line"/>
    </contour>
  </outline>
</glyph>
<glyph name="Chedescender-cy" format="2">
  <advance width="1668"/>
  <unicode hex="04B6"/>
  <guideline x="1330.0" y="777.0" angle="90.0" identifier="9CLqHZNG04"/>
  <outline>
    <contour>
      <point x="56.766666666666666" y="1434.1366666666665" type="line"/>
      <point x="56.766666666666666" y="1500.0" type="line"/>
      <point x="614.5333333333334" y="1500.0" type="line"/>
      <point x="614.5333333333334" y="1434.1366666666665" type="line"/>
      <point x="386.49666666666667" y="1400.1366666666665" type="line"/>
      <point x="385.49666666666667" y="1072.2" type="line" smooth="yes"/>
      <point x="384.5098546752707" y="866.3689818848387"/>
      <point x="601.99" y="702.9"/>
      <point x="841.14" y="702.9" type="qcurve" smooth="yes"/>
      <point x="964.3651660516599" y="702.9"/>
      <point x="1177.85397695462" y="739.624921462894"/>
      <point x="1282.2333333333333" y="776.38" type="qcurve"/>
      <point x="1282.2333333333333" y="700.5433333333333" type="line"/>
      <point x="1177.2861686208275" y="663.674747298114"/>
      <point x="960.1180666666667" y="625.5133333333333"/>
      <point x="799.4" y="625.5133333333333" type="qcurve" smooth="yes"/>
      <point x="550.5433333333333" y="625.5133333333333"/>
      <point x="279.56325730947333" y="824.1645674235467"/>
      <point x="278.8366666666667" y="1079.2" type="qcurve" smooth="yes"/>
      <point x="278.1" y="1400.1366666666665" type="line"/>
    </contour>
    <contour>
      <point x="1336.28" y="71.45" type="line"/>
      <point x="1557.6133333333332" y="71.45" type="line"/>
      <point x="1567.6133333333332" y="-338.0" type="line"/>
      <point x="1494.6466666666665" y="-338.0" type="line"/>
      <point x="1430.1466666666665" y="0.0" type="line"/>
      <point x="987.0333333333334" y="0.0" type="line"/>
      <point x="987.0333333333334" y="62.653333333333336" type="line"/>
      <point x="1228.1666666666667" y="97.65333333333334" type="line"/>
      <point x="1230.1666666666667" y="754.4" type="line"/>
      <point x="1228.1666666666667" y="1400.1366666666665" type="line"/>
      <point x="999.8666666666667" y="1434.1366666666665" type="line"/>
      <point x="999.8666666666667" y="1500.0" type="line"/>
      <point x="1557.6333333333332" y="1500.0" type="line"/>
      <point x="1557.6333333333332" y="1434.1366666666665" type="line"/>
      <point x="1336.3" y="1400.1366666666665" type="line"/>
      <point x="1334.3" y="754.0" type="line"/>
    </contour>
  </outline>
</glyph>
<glyph name="cheverticalstroke-cy" format="2">
  <advance width="1207"/>
  <unicode hex="04B9"/>
  <guideline x="302.0" y="625.0" angle="90.0" identifier="ghzYOvRP0g"/>
  <guideline x="953.0" y="554.0" angle="90.0" identifier="yWzP0ZeDvZ"/>
  <guideline x="627.0" y="553.0" angle="90.0" identifier="2rptuWkdhO"/>
  <outline>
    <contour>
      <point x="212.41666666666669" y="710.22" type="qcurve" smooth="yes"/>
      <point x="211.17333333333335" y="919.4" type="line"/>
      <point x="49.8" y="948.6666666666666" type="line"/>
      <point x="49.8" y="1000.0" type="line"/>
      <point x="474.5333333333333" y="1000.0" type="line"/>
      <point x="474.5333333333333" y="948.6666666666666" type="line"/>
      <point x="316.4133333333333" y="919.4" type="line"/>
      <point x="315.43333333333334" y="710.18" type="line" smooth="yes"/>
      <point x="314.4533333333333" y="590.94"/>
      <point x="435.24666666666667" y="493.4"/>
      <point x="576.6999999999999" y="493.4" type="qcurve" smooth="yes"/>
      <point x="667.1366666666667" y="493.4"/>
      <point x="826.9366666666667" y="515.6366666666667"/>
      <point x="906.3966666666668" y="547.74" type="qcurve"/>
      <point x="906.3966666666668" y="479.8233333333334" type="line"/>
      <point x="827.4233333333333" y="451.0"/>
      <point x="669.0666666666667" y="422.06666666666666"/>
      <point x="561.3" y="422.06666666666666" type="qcurve" smooth="yes"/>
      <point x="383.68" y="422.06666666666666"/>
      <point x="213.66" y="560.05"/>
    </contour>
    <contour>
      <point x="957.0266666666666" y="500.0" type="line"/>
      <point x="959.0266666666666" y="80.6" type="line"/>
      <point x="1120.4" y="51.33333333333333" type="line"/>
      <point x="1120.4" y="0.0" type="line"/>
      <point x="675.2866666666667" y="0.0" type="line"/>
      <point x="675.2866666666667" y="51.33333333333333" type="line"/>
      <point x="853.8066666666667" y="80.6" type="line"/>
      <point x="855.7666666666668" y="500.0" type="line"/>
      <point x="853.8066666666667" y="919.4" type="line"/>
      <point x="695.6866666666667" y="948.6666666666666" type="line"/>
      <point x="695.6866666666667" y="1000.0" type="line"/>
      <point x="1120.4" y="1000.0" type="line"/>
      <point x="1120.4" y="948.6666666666666" type="line"/>
      <point x="959.0266666666666" y="919.4" type="line"/>
    </contour>
    <contour>
      <point x="625.37" y="762.0" type="line"/>
      <point x="625.37" y="170.0" type="line"/>
      <point x="549.8866666666667" y="170.0" type="line"/>
      <point x="549.8866666666667" y="762.0" type="line"/>
    </contour>
  </outline>
</glyph>
<glyph name="Shha" format="2">
  <advance width="1643"/>
  <unicode hex="04BA"/>
  <outline>
    <contour>
      <point x="636.38" y="1500.0" type="line"/>
      <point x="636.38" y="1437.3466666666666" type="line"/>
      <point x="414.8466666666667" y="1402.3466666666666" type="line"/>
      <point x="412.8466666666667" y="740.7333333333333" type="line"/>
      <point x="414.8466666666667" y="99.64333333333333" type="line"/>
      <point x="643.1466666666666" y="65.62333333333333" type="line"/>
      <point x="643.1466666666666" y="0.0" type="line"/>
      <point x="85.38" y="0.0" type="line"/>
      <point x="85.38" y="65.62333333333333" type="line"/>
      <point x="306.7133333333333" y="99.64333333333333" type="line"/>
      <point x="308.7133333333333" y="746.0" type="line"/>
      <point x="306.7133333333333" y="1402.3466666666666" type="line"/>
      <point x="85.38" y="1437.3466666666666" type="line"/>
      <point x="85.38" y="1500.0" type="line"/>
    </contour>
    <contour>
      <point x="1586.2466666666667" y="65.62333333333333" type="line"/>
      <point x="1586.2466666666667" y="0.0" type="line"/>
      <point x="1028.48" y="0.0" type="line"/>
      <point x="1028.48" y="65.62333333333333" type="line"/>
      <point x="1256.5166666666667" y="99.64333333333333" type="line"/>
      <point x="1257.5166666666667" y="427.8" type="line" smooth="yes"/>
      <point x="1258.4966666666667" y="633.8433333333332"/>
      <point x="1041.0233333333333" y="797.5"/>
      <point x="801.8733333333333" y="797.5" type="qcurve" smooth="yes"/>
      <point x="678.6481672816734" y="797.5"/>
      <point x="465.1593563787133" y="760.775078537106"/>
      <point x="360.78000000000003" y="724.02" type="qcurve"/>
      <point x="360.78000000000003" y="799.8566666666667" type="line"/>
      <point x="465.727164712506" y="836.725252701886"/>
      <point x="682.8952666666667" y="874.8866666666667"/>
      <point x="843.6133333333333" y="874.8866666666667" type="qcurve" smooth="yes"/>
      <point x="1092.4699999999998" y="874.8866666666667"/>
      <point x="1363.44" y="676.0333333333333"/>
      <point x="1364.1766666666667" y="420.8" type="qcurve" smooth="yes"/>
      <point x="1364.9133333333334" y="99.64333333333333" type="line"/>
    </contour>
  </outline>
</glyph>
<glyph name="Schwacyr" format="2">
  <advance width="1615"/>
  <unicode hex="04D8"/>
  <guideline x="212.0" y="786.0" angle="90.0" identifier="UtNSclIhRG"/>
  <guideline x="1248.0" y="730.0" angle="90.0" identifier="hwb5F7EShy"/>
  <guideline x="176.0" y="804.0" angle="90.0" identifier="CC6biuYdY2"/>
  <guideline x="1489.0" y="880.0" angle="90.0" identifier="5SLpVGRhqp"/>
  <outline>
    <contour>
      <point x="145.00666666666666" y="711.5066666666667" type="line"/>
      <point x="88.24333333333333" y="793.26" type="line"/>
      <point x="769.0" y="785.26" type="line"/>
      <point x="1476.5233333333333" y="793.26" type="line"/>
      <point x="1476.5233333333333" y="711.5066666666667" type="line"/>
      <point x="769.0" y="711.5066666666667" type="line"/>
    </contour>
    <contour>
      <point x="1531.25" y="752.08" type="qcurve" smooth="yes"/>
      <point x="1531.25" y="408.3866666666667"/>
      <point x="1138.7733333333333" y="-30.82"/>
      <point x="805.96" y="-30.82" type="qcurve" smooth="yes"/>
      <point x="483.8666666666667" y="-30.82"/>
      <point x="83.26333333333334" y="359.4066666666667"/>
      <point x="83.26333333333334" y="697.08" type="qcurve" smooth="yes"/>
      <point x="83.26333333333334" y="721.14"/>
      <point x="85.26333333333334" y="770.22"/>
      <point x="88.24333333333333" y="793.26" type="qcurve"/>
      <point x="196.39333333333335" y="789.2" type="line"/>
      <point x="195.41333333333333" y="775.18"/>
      <point x="194.41333333333333" y="745.12"/>
      <point x="194.41333333333333" y="731.08" type="qcurve" smooth="yes"/>
      <point x="194.41333333333333" y="418.8866666666667"/>
      <point x="523.1066666666667" y="52.42666666666666"/>
      <point x="806.13" y="52.42666666666666" type="qcurve" smooth="yes"/>
      <point x="1107.97036231884" y="52.42666666666666"/>
      <point x="1421.5333333333333" y="412.07000000000005"/>
      <point x="1421.5333333333333" y="745.08" type="qcurve" smooth="yes"/>
      <point x="1421.5333333333333" y="1045.0666666666666"/>
      <point x="1089.1166666666668" y="1437.7466666666667"/>
      <point x="771.8100000000001" y="1437.7466666666667" type="qcurve" smooth="yes"/>
      <point x="599.0633333333334" y="1437.7466666666667"/>
      <point x="327.81" y="1333.7633333333333"/>
      <point x="303.18666666666667" y="1185.7566666666667" type="qcurve" smooth="yes"/>
      <point x="280.5233333333333" y="1050.98" type="line"/>
      <point x="206.73666666666665" y="1050.98" type="line"/>
      <point x="206.73666666666665" y="1499.98" type="line"/>
      <point x="274.87666666666667" y="1499.98" type="line"/>
      <point x="302.2966666666667" y="1400.4366666666667" type="line"/>
      <point x="376.7866666666667" y="1452.6566666666665"/>
      <point x="626.2666666666667" y="1520.0"/>
      <point x="778.1066666666667" y="1520.0" type="qcurve" smooth="yes"/>
      <point x="1141.1266666666668" y="1520.0"/>
      <point x="1531.25" y="1097.04"/>
    </contour>
  </outline>
</glyph>
<glyph name="obarcyr" format="2">
  <advance width="1160"/>
  <unicode hex="04E9"/>
  <guideline x="585.0" y="692.0" angle="90.0" identifier="TW15yk9ONy"/>
  <outline>
    <contour>
      <point x="66.58666666666666" y="500.0" type="qcurve" smooth="yes"/>
      <point x="66.58666666666666" y="717.2"/>
      <point x="347.64" y="1021.94"/>
      <point x="578.16" y="1021.94" type="qcurve" smooth="yes"/>
      <point x="811.8299999999999" y="1021.94"/>
      <point x="1093.5933333333335" y="737.2"/>
      <point x="1093.5933333333335" y="506.0" type="qcurve" smooth="yes"/>
      <point x="1093.5933333333335" y="289.8"/>
      <point x="814.56" y="-21.9"/>
      <point x="584.04" y="-21.9" type="qcurve" smooth="yes"/>
      <point x="352.54" y="-21.9"/>
      <point x="66.58666666666666" y="266.8"/>
    </contour>
    <contour>
      <point x="177.32333333333332" y="522.15" type="qcurve" smooth="yes"/>
      <point x="178.32333339621167" y="322.31665426964827"/>
      <point x="398.14999007936797" y="46.49333333333333"/>
      <point x="578.35" y="46.49333333333333" type="qcurve" smooth="yes"/>
      <point x="771.8856849123817" y="46.49333333333333"/>
      <point x="982.5933333333334" y="298.1666666666667"/>
      <point x="982.5933333333334" y="506.71666666666664" type="qcurve" smooth="yes"/>
      <point x="982.5933333333334" y="698.8333333333334"/>
      <point x="762.412935952919" y="946.1133333333333"/>
      <point x="580.31" y="946.1133333333333" type="qcurve" smooth="yes"/>
      <point x="384.30718250055367" y="946.1133333333333"/>
      <point x="176.3233332697763" y="720.2666791028686"/>
    </contour>
    <contour>
      <point x="122.08666666666667" y="546.6866666666666" type="line"/>
      <point x="578.14" y="543.6866666666666" type="line"/>
      <point x="1038.0933333333332" y="546.6866666666666" type="line"/>
      <point x="1038.0933333333332" y="473.93666666666667" type="line"/>
      <point x="578.14" y="475.93666666666667" type="line"/>
      <point x="122.08666666666667" y="473.93666666666667" type="line"/>
    </contour>
  </outline>
</glyph>
<glyph name="Hastroke-cy" format="2">
  <advance width="1359"/>
  <unicode hex="04FE"/>
  <outline>
    <contour>
      <point x="257.4066666666667" y="760.74" type="line"/>
      <point x="257.4066666666667" y="848.9666666666667" type="line"/>
      <point x="666.4" y="846.0266666666666" type="line"/>
      <point x="1063.2933333333333" y="848.9666666666667" type="line"/>
      <point x="1063.2933333333333" y="760.74" type="line"/>
      <point x="658.8" y="763.68" type="line"/>
    </contour>
    <contour>
      <point x="-40.32333333333333" y="0.0" type="line"/>
      <point x="-40.36333333333333" y="62.67333333333333" type="line"/>
      <point x="152.5966666666667" y="98.39" type="line"/>
      <point x="635.6433333333333" y="836.4366666666666" type="line"/>
      <point x="640.9266666666666" y="833.8433333333332" type="line"/>
      <point x="1008.4766666666667" y="1403.04" type="line"/>
      <point x="804.6266666666667" y="1434.1366666666665" type="line"/>
      <point x="804.6266666666667" y="1500.0" type="line"/>
      <point x="1310.5566666666666" y="1500.0" type="line"/>
      <point x="1310.5566666666666" y="1434.1366666666665" type="line"/>
      <point x="1109.0900000000001" y="1400.9266666666665" type="line"/>
      <point x="688.49" y="768.79" type="line"/>
      <point x="683.9633333333334" y="771.3833333333333" type="line"/>
      <point x="253.94666666666666" y="96.27666666666666" type="line"/>
      <point x="456.06333333333333" y="62.67333333333333" type="line"/>
      <point x="456.06333333333333" y="0.0" type="line"/>
    </contour>
    <contour>
      <point x="5.6933333333333325" y="1434.1366666666665" type="line"/>
      <point x="5.6933333333333325" y="1500.0" type="line"/>
      <point x="540.8366666666667" y="1500.0" type="line"/>
      <point x="540.8366666666667" y="1434.1366666666665" type="line"/>
      <point x="325.52" y="1400.3799999999999" type="line"/>
      <point x="696.97" y="833.3433333333334" type="line"/>
      <point x="1195.1166666666666" y="97.65333333333334" type="line"/>
      <point x="1404.74" y="62.67333333333333" type="line"/>
      <point x="1404.74" y="0.0" type="line"/>
      <point x="858.62" y="0.0" type="line"/>
      <point x="858.62" y="62.67333333333333" type="line"/>
      <point x="1069.9366666666667" y="97.65333333333334" type="line"/>
      <point x="625.67" y="768.62" type="line"/>
      <point x="201.75333333333333" y="1400.9266666666665" type="line"/>
    </contour>
  </outline>
</glyph>
<glyph name="quotedblright" format="2">
  <advance width="904"/>
  <unicode hex="201D"/>
  <outline>
    <contour>
      <point x="183.20333333333332" y="1149.7166666666667" type="line"/>
      <point x="226.05" y="1183.9766666666667"/>
      <point x="303.93" y="1281.57"/>
      <point x="319.6066666666667" y="1340.4666666666667" type="qcurve"/>
      <point x="257.38666666666666" y="1334.0966666666666"/>
      <point x="196.32" y="1390.94"/>
      <point x="196.32" y="1435.4866666666665" type="qcurve" smooth="yes"/>
      <point x="196.32" y="1479.0333333333333"/>
      <point x="254.94333333333333" y="1537.4"/>
      <point x="300.58333333333337" y="1537.4" type="qcurve" smooth="yes"/>
      <point x="343.69666666666666" y="1537.4"/>
      <point x="407.7633333333333" y="1474.21"/>
      <point x="407.7633333333333" y="1419.5866666666666" type="qcurve" smooth="yes"/>
      <point x="407.7633333333333" y="1327.9466666666667"/>
      <point x="285.73333333333335" y="1168.6533333333334"/>
      <point x="205.46" y="1121.48" type="qcurve"/>
    </contour>
    <contour>
      <point x="518.1966666666667" y="1149.7166666666667" type="line"/>
      <point x="561.0433333333334" y="1183.9766666666667"/>
      <point x="638.9233333333333" y="1281.57"/>
      <point x="654.6" y="1340.4666666666667" type="qcurve"/>
      <point x="592.38" y="1334.0966666666666"/>
      <point x="531.3133333333334" y="1390.94"/>
      <point x="531.3133333333334" y="1435.4866666666665" type="qcurve" smooth="yes"/>
      <point x="531.3133333333334" y="1479.0333333333333"/>
      <point x="589.9366666666666" y="1537.4"/>
      <point x="635.5766666666666" y="1537.4" type="qcurve" smooth="yes"/>
      <point x="678.6899999999999" y="1537.4"/>
      <point x="742.7566666666667" y="1474.21"/>
      <point x="742.7566666666667" y="1419.5866666666666" type="qcurve" smooth="yes"/>
      <point x="742.7566666666667" y="1327.9466666666667"/>
      <point x="620.7266666666666" y="1168.6533333333334"/>
      <point x="540.4533333333334" y="1121.48" type="qcurve"/>
    </contour>
  </outline>
</glyph>
<glyph name="colonsign" format="2">
  <advance width="1186"/>
  <unicode hex="20A1"/>
  <outline>
    <contour>
      <point x="89.15333333333332" y="712.5" type="qcurve" smooth="yes"/>
      <point x="89.15333333333332" y="1015.02"/>
      <point x="405.51" y="1448.0"/>
      <point x="680.9866666666666" y="1448.0" type="qcurve" smooth="yes"/>
      <point x="888.9266666666666" y="1448.0"/>
      <point x="1114.8733333333332" y="1209.0"/>
      <point x="1121.8333333333333" y="993.0" type="qcurve"/>
      <point x="1041.2166666666667" y="993.0" type="line"/>
      <point x="1032.2766666666666" y="1155.0166666666667"/>
      <point x="872.1999999999999" y="1374.7166666666667"/>
      <point x="673.8" y="1374.7166666666667" type="qcurve" smooth="yes"/>
      <point x="459.1" y="1374.7166666666667"/>
      <point x="194.0366666666667" y="1009.0"/>
      <point x="194.60333333333335" y="728.0" type="qcurve" smooth="yes"/>
      <point x="195.15" y="434.7833333333333"/>
      <point x="473.02000000000004" y="104.3"/>
      <point x="674.8" y="104.3" type="qcurve" smooth="yes"/>
      <point x="819.92" y="104.3"/>
      <point x="1022.9033333333333" y="212.59666666666666"/>
      <point x="1086.8833333333332" y="307.85" type="qcurve"/>
      <point x="1141.3133333333333" y="255.5" type="line"/>
      <point x="1067.753333333333" y="147.14"/>
      <point x="837.8" y="18.0"/>
      <point x="679.76" y="18.0" type="qcurve" smooth="yes"/>
      <point x="397.77666666666664" y="18.0"/>
      <point x="89.15333333333332" y="413.1"/>
    </contour>
    <contour>
      <point x="456.46" y="-129.65" type="line"/>
      <point x="513.0066666666667" y="88.43333333333334" type="line"/>
      <point x="517.4766666666667" y="86.3" type="line"/>
      <point x="707.5233333333334" y="844.6166666666667" type="line"/>
      <point x="773.1966666666666" y="791.3833333333333" type="line"/>
      <point x="591.3733333333333" y="59.3" type="line"/>
      <point x="596.41" y="57.166666666666664" type="line"/>
      <point x="551.0866666666666" y="-119.08333333333333" type="line"/>
    </contour>
    <contour>
      <point x="879.52" y="1559.8333333333333" type="line"/>
      <point x="971.43" y="1559.8333333333333" type="line"/>
      <point x="921.73" y="1363.9166666666667" type="line"/>
      <point x="916.26" y="1365.05" type="line"/>
      <point x="773.1966666666666" y="791.3833333333333" type="line"/>
      <point x="707.5233333333334" y="844.6166666666667" type="line"/>
      <point x="843.08" y="1392.3333333333333" type="line"/>
      <point x="837.3266666666666" y="1394.4666666666667" type="line"/>
    </contour>
    <contour>
      <point x="248.20333333333332" y="-61.8" type="line"/>
      <point x="313.9933333333333" y="188.15" type="line"/>
      <point x="318.4833333333333" y="186.01666666666665" type="line"/>
      <point x="483.7633333333333" y="844.6166666666667" type="line"/>
      <point x="549.4366666666666" y="791.3833333333333" type="line"/>
      <point x="392.38" y="159.01666666666665" type="line"/>
      <point x="397.4166666666667" y="156.88333333333333" type="line"/>
      <point x="342.83" y="-51.233333333333334" type="line"/>
    </contour>
    <contour>
      <point x="655.76" y="1559.8333333333333" type="line"/>
      <point x="747.67" y="1559.8333333333333" type="line"/>
      <point x="705.6466666666666" y="1396.3333333333333" type="line"/>
      <point x="700.1766666666666" y="1397.4666666666667" type="line"/>
      <point x="549.4366666666666" y="791.3833333333333" type="line"/>
      <point x="483.7633333333333" y="844.6166666666667" type="line"/>
      <point x="624.7700000000001" y="1416.25" type="line"/>
      <point x="619.0166666666667" y="1418.3833333333334" type="line"/>
    </contour>
  </outline>
</glyph>
<glyph name="franc" format="2">
  <advance width="1040"/>
  <unicode hex="20A3"/>
  <outline>
    <contour>
      <point x="51.20333333333334" y="0.0" type="line"/>
      <point x="51.20333333333334" y="62.653333333333336" type="line"/>
      <point x="273.25333333333333" y="93.16333333333333" type="line"/>
      <point x="274.53666666666663" y="762.03" type="line"/>
      <point x="273.25333333333333" y="1403.7199999999998" type="line"/>
      <point x="51.20333333333334" y="1434.1366666666665" type="line"/>
      <point x="51.20333333333334" y="1500.0" type="line"/>
      <point x="975.6333333333333" y="1500.0" type="line"/>
      <point x="992.6333333333333" y="1150.0" type="line"/>
      <point x="922.7666666666668" y="1150.0" type="line"/>
      <point x="872.2" y="1425.7166666666667" type="line"/>
      <point x="407.06666666666666" y="1425.7166666666667" type="line"/>
      <point x="379.2166666666667" y="1401.4166666666667" type="line"/>
      <point x="377.93333333333334" y="765.55" type="line"/>
      <point x="379.2166666666667" y="91.82666666666667" type="line"/>
      <point x="633.09" y="62.653333333333336" type="line"/>
      <point x="633.09" y="0.0" type="line"/>
    </contour>
    <contour>
      <point x="325.7666666666667" y="739.6" type="line"/>
      <point x="325.7666666666667" y="807.2" type="line"/>
      <point x="774.6333333333333" y="809.9" type="line"/>
      <point x="805.3333333333334" y="985.5833333333334" type="line"/>
      <point x="875.0" y="985.5833333333334" type="line"/>
      <point x="875.0" y="548.0166666666667" type="line"/>
      <point x="805.3333333333334" y="548.0166666666667" type="line"/>
      <point x="774.6333333333333" y="737.6166666666667" type="line"/>
    </contour>
    <contour>
      <point x="44.733333333333334" y="352.5" type="line"/>
      <point x="26.2" y="425.46666666666664" type="line"/>
      <point x="735.8833333333333" y="425.46666666666664" type="line"/>
      <point x="715.2" y="352.5" type="line"/>
    </contour>
  </outline>
</glyph>
<glyph name="peseta" format="2">
  <advance width="2226"/>
  <unicode hex="20A7"/>
  <outline>
    <contour>
      <point x="72.80000000000001" y="0.0" type="line"/>
      <point x="72.80000000000001" y="62.653333333333336" type="line"/>
      <point x="307.0333333333333" y="93.16333333333333" type="line"/>
      <point x="309.0333333333333" y="759.7333333333333" type="line"/>
      <point x="307.75" y="1403.7199999999998" type="line"/>
      <point x="85.7" y="1434.1366666666665" type="line"/>
      <point x="85.7" y="1500.0" type="line"/>
      <point x="574.7566666666668" y="1500.0" type="line" smooth="yes"/>
      <point x="797.4066666666666" y="1500.0"/>
      <point x="1034.6433333333332" y="1299.9333333333334"/>
      <point x="1034.6433333333332" y="1109.0833333333333" type="qcurve" smooth="yes"/>
      <point x="1034.6433333333332" y="899.4"/>
      <point x="801.52" y="657.1333333333333"/>
      <point x="584.34" y="657.1333333333333" type="qcurve" smooth="yes"/>
      <point x="516.3366666666666" y="657.1333333333333"/>
      <point x="401.94666666666666" y="671.2666666666667"/>
      <point x="364.84" y="685.5666666666667" type="qcurve"/>
      <point x="370.25666666666666" y="755.0166666666667" type="line"/>
      <point x="414.36" y="740.4333333333333"/>
      <point x="500.88" y="729.7166666666667"/>
      <point x="565.2033333333333" y="729.7166666666667" type="qcurve" smooth="yes"/>
      <point x="724.84" y="729.7166666666667"/>
      <point x="922.99" y="915.1833333333333"/>
      <point x="922.99" y="1102.5833333333333" type="qcurve" smooth="yes"/>
      <point x="922.99" y="1270.8166666666666"/>
      <point x="721.46" y="1424.2833333333333"/>
      <point x="545.0033333333333" y="1424.2833333333333" type="qcurve" smooth="yes"/>
      <point x="446.9533333333333" y="1424.2833333333333" type="line"/>
      <point x="414.43" y="1404.2833333333333" type="line"/>
      <point x="412.43" y="781.3" type="line"/>
      <point x="414.43" y="91.82666666666667" type="line"/>
      <point x="647.9866666666667" y="62.653333333333336" type="line"/>
      <point x="647.9866666666667" y="0.0" type="line"/>
    </contour>
    <contour>
      <point x="995.3433333333332" y="860.1500000000001" type="line"/>
      <point x="995.3433333333332" y="908.8666666666667" type="line"/>
      <point x="1108.9866666666667" y="922.85"/>
      <point x="1191.5066666666667" y="1059.3666666666668"/>
      <point x="1199.6566666666665" y="1171.8333333333335" type="qcurve"/>
      <point x="1235.0900000000001" y="1171.8333333333335" type="line"/>
      <point x="1264.9066666666665" y="1140.3166666666668" type="line"/>
      <point x="1249.6100000000001" y="924.7166666666667" type="line"/>
      <point x="1493.04" y="924.7166666666667" type="line"/>
      <point x="1493.04" y="852.8166666666667" type="line"/>
      <point x="1246.23" y="852.8166666666667" type="line"/>
      <point x="1243.9833333333333" y="551.3666666666667" type="line"/>
      <point x="1245.7966666666666" y="175.86666666666667" type="line" smooth="yes"/>
      <point x="1246.06" y="123.01666666666667"/>
      <point x="1286.15" y="78.9"/>
      <point x="1343.8799999999999" y="78.9" type="qcurve" smooth="yes"/>
      <point x="1496.8166666666666" y="78.9" type="line"/>
      <point x="1496.8166666666666" y="24.7" type="line"/>
      <point x="1242.5766666666666" y="-8.0" type="line"/>
      <point x="1185.0666666666666" y="-5.85"/>
      <point x="1138.84" y="56.516666666666666"/>
      <point x="1139.5566666666666" y="124.3" type="qcurve"/>
      <point x="1142.9533333333334" y="527.0" type="line"/>
      <point x="1142.9533333333334" y="836.3" type="line"/>
    </contour>
    <contour>
      <point x="1485.1033333333332" y="7.366666666666667" type="line"/>
      <point x="1484.5766666666666" y="318.7866666666667" type="line"/>
      <point x="1548.7066666666667" y="318.7866666666667" type="line"/>
      <point x="1558.93" y="270.08333333333337" type="line" smooth="yes"/>
      <point x="1581.7533333333333" y="162.13000000000002"/>
      <point x="1741.98" y="51.04333333333333"/>
      <point x="1847.5333333333333" y="51.04333333333333" type="qcurve" smooth="yes"/>
      <point x="1948.4233333333334" y="51.04333333333333"/>
      <point x="2067.116666666667" y="157.57666666666665"/>
      <point x="2067.116666666667" y="245.78333333333333" type="qcurve" smooth="yes"/>
      <point x="2067.116666666667" y="336.4866666666667"/>
      <point x="1939.2533333333333" y="435.9766666666667"/>
      <point x="1794.8233333333333" y="485.86333333333334" type="qcurve" smooth="yes"/>
      <point x="1646.3566666666666" y="536.73"/>
      <point x="1522.0633333333333" y="659.74"/>
      <point x="1522.0633333333333" y="759.16" type="qcurve" smooth="yes"/>
      <point x="1522.0633333333333" y="864.3333333333333"/>
      <point x="1662.1733333333334" y="1004.7833333333333"/>
      <point x="1796.38" y="1004.7833333333333" type="qcurve" smooth="yes"/>
      <point x="1873.3" y="1004.7833333333333"/>
      <point x="1979.2433333333333" y="961.0066666666667"/>
      <point x="2014.3266666666666" y="930.1233333333333" type="qcurve"/>
      <point x="2032.2833333333335" y="980.9266666666667" type="line"/>
      <point x="2094.393333333333" y="980.9266666666667" type="line"/>
      <point x="2094.393333333333" y="693.6733333333333" type="line"/>
      <point x="2026.9633333333334" y="693.6733333333333" type="line"/>
      <point x="2010.7066666666667" y="783.9466666666667" type="line" smooth="yes"/>
      <point x="1996.2566666666667" y="867.9966666666667"/>
      <point x="1870.2766666666666" y="934.37"/>
      <point x="1794.11" y="934.37" type="qcurve" smooth="yes"/>
      <point x="1697.9" y="934.37"/>
      <point x="1612.87" y="852.8333333333334"/>
      <point x="1612.87" y="784.88" type="qcurve" smooth="yes"/>
      <point x="1612.87" y="711.6766666666666"/>
      <point x="1708.25" y="623.22"/>
      <point x="1852.5666666666666" y="574.6266666666667" type="qcurve" smooth="yes"/>
      <point x="1994.94" y="526.1966666666666"/>
      <point x="2157.0366666666664" y="388.3266666666667"/>
      <point x="2157.0366666666664" y="264.90000000000003" type="qcurve" smooth="yes"/>
      <point x="2157.0366666666664" y="136.99333333333334"/>
      <point x="1985.2833333333333" y="-20.73"/>
      <point x="1849.4666666666667" y="-20.73" type="qcurve" smooth="yes"/>
      <point x="1761.8133333333335" y="-20.73"/>
      <point x="1626.2833333333333" y="35.64333333333333"/>
      <point x="1579.1066666666666" y="85.09333333333333" type="qcurve"/>
      <point x="1544.4933333333333" y="4.533333333333333" type="line"/>
    </contour>
  </outline>
</glyph>
<glyph name="dong" format="2">
  <advance width="1166"/>
  <unicode hex="20AB"/>
  <outline>
    <contour>
      <point x="97.06333333333333" y="473.53333333333336" type="qcurve" smooth="yes"/>
      <point x="97.06333333333333" y="714.2566666666667"/>
      <point x="358.71" y="997.0033333333333"/>
      <point x="562.0766666666667" y="997.0033333333333" type="qcurve" smooth="yes"/>
      <point x="661.98" y="997.0033333333333"/>
      <point x="811.02" y="941.8566666666667"/>
      <point x="855.8166666666667" y="900.81" type="qcurve"/>
      <point x="852.1966666666666" y="1422.7533333333333" type="line"/>
      <point x="662.5466666666666" y="1432.5166666666667" type="line"/>
      <point x="662.5466666666666" y="1495.7" type="line"/>
      <point x="927.1033333333332" y="1519.6666666666667" type="line"/>
      <point x="941.6400000000001" y="1516.0833333333333" type="line"/>
      <point x="956.0233333333334" y="1496.2666666666667" type="line"/>
      <point x="954.4766666666667" y="535.85" type="line"/>
      <point x="959.8133333333333" y="105.23333333333333" type="line"/>
      <point x="1133.0333333333335" y="110.86666666666666" type="line"/>
      <point x="1133.0333333333335" y="59.53333333333333" type="line"/>
      <point x="880.25" y="0.0" type="line"/>
      <point x="864.7900000000001" y="139.39333333333335" type="line"/>
      <point x="856.2133333333334" y="149.33333333333331" type="line"/>
      <point x="808.7933333333333" y="79.85333333333334"/>
      <point x="646.1033333333334" y="-10.433333333333334"/>
      <point x="526.2533333333333" y="-10.433333333333334" type="qcurve" smooth="yes"/>
      <point x="341.66" y="-10.433333333333334"/>
      <point x="97.06333333333333" y="245.64333333333335"/>
    </contour>
    <contour>
      <point x="207.70333333333332" y="489.84999999999997" type="qcurve" smooth="yes"/>
      <point x="207.70333333333332" y="284.4"/>
      <point x="397.01666666666665" y="71.85"/>
      <point x="551.9699999999999" y="71.85" type="qcurve" smooth="yes"/>
      <point x="657.88" y="71.85"/>
      <point x="808.1633333333333" y="155.97333333333333"/>
      <point x="854.91" y="223.64333333333335" type="qcurve"/>
      <point x="858.6600000000001" y="526.3533333333332" type="line"/>
      <point x="857.9233333333334" y="796.5333333333334" type="line"/>
      <point x="816.9699999999999" y="853.45"/>
      <point x="670.9566666666667" y="927.9200000000001"/>
      <point x="570.5166666666667" y="927.9200000000001" type="qcurve" smooth="yes"/>
      <point x="408.43333333333334" y="927.9200000000001"/>
      <point x="207.70333333333332" y="688.9966666666667"/>
    </contour>
    <contour>
      <point x="136.12666666666667" y="-214.68333333333334" type="line"/>
      <point x="136.12666666666667" y="-124.0" type="line"/>
      <point x="589.5933333333334" y="-128.0" type="line"/>
      <point x="1053.06" y="-124.0" type="line"/>
      <point x="1053.06" y="-214.68333333333334" type="line"/>
      <point x="590.5933333333334" y="-210.68333333333334" type="line"/>
    </contour>
    <contour>
      <point x="474.6" y="1163.5333333333333" type="line"/>
      <point x="475.6" y="1244.1666666666667" type="line"/>
      <point x="890.4" y="1241.1666666666667" type="line"/>
      <point x="1106.2" y="1244.1666666666667" type="line"/>
      <point x="1106.2" y="1163.5333333333333" type="line"/>
      <point x="889.4" y="1167.5333333333333" type="line"/>
    </contour>
  </outline>
</glyph>
<glyph name="euro" format="2">
  <advance width="1067"/>
  <unicode hex="20AC"/>
  <outline>
    <contour>
      <point x="206.15" y="746.0" type="qcurve" smooth="yes"/>
      <point x="206.15" y="1135.2133333333334"/>
      <point x="492.3933333333333" y="1520.0"/>
      <point x="711.1333333333333" y="1520.0" type="qcurve" smooth="yes"/>
      <point x="801.7666666666667" y="1520.0"/>
      <point x="942.08" y="1452.6399999999999"/>
      <point x="1001.5333333333334" y="1378.0" type="qcurve"/>
      <point x="952.45" y="1324.65" type="line"/>
      <point x="899.3399999999999" y="1388.2566666666667"/>
      <point x="781.8633333333333" y="1440.1666666666667"/>
      <point x="708.9666666666666" y="1440.1666666666667" type="qcurve" smooth="yes"/>
      <point x="521.2066666666666" y="1440.1666666666667"/>
      <point x="313.89" y="1106.0"/>
      <point x="314.1733333333333" y="772.0" type="qcurve" smooth="yes"/>
      <point x="314.45666666666665" y="431.3666666666667"/>
      <point x="523.4333333333333" y="47.46666666666666"/>
      <point x="735.7333333333333" y="47.46666666666666" type="qcurve" smooth="yes"/>
      <point x="809.3733333333333" y="47.46666666666666"/>
      <point x="937.6033333333334" y="115.17"/>
      <point x="987.3166666666666" y="180.38333333333335" type="qcurve"/>
      <point x="1030.1333333333332" y="133.14" type="line"/>
      <point x="977.5266666666666" y="49.580000000000005"/>
      <point x="825.3533333333334" y="-30.556666666666665"/>
      <point x="718.7566666666667" y="-30.556666666666665" type="qcurve" smooth="yes"/>
      <point x="475.59666666666664" y="-30.556666666666665"/>
      <point x="206.15" y="379.97999999999996"/>
    </contour>
    <contour>
      <point x="70.0" y="858.0" type="line"/>
      <point x="85.4" y="939.3333333333333" type="line"/>
      <point x="873.8399999999999" y="939.3333333333333" type="line"/>
      <point x="892.3733333333333" y="858.0" type="line"/>
    </contour>
    <contour>
      <point x="53.0" y="585.6666666666667" type="line"/>
      <point x="49.0" y="667.0" type="line"/>
      <point x="881.3733333333333" y="667.0" type="line"/>
      <point x="862.8399999999999" y="585.6666666666667" type="line"/>
    </contour>
  </outline>
</glyph>
<glyph name="liraTurkish" format="2">
  <advance width="1102"/>
  <unicode hex="20BA"/>
  <outline>
    <contour>
      <point x="295.4666666666667" y="-29.0" type="line"/>
      <point x="257.20000000000005" y="22.633333333333333" type="line"/>
      <point x="292.4666666666667" y="81.83333333333334" type="line"/>
      <point x="298.73333333333335" y="624.0" type="line"/>
      <point x="291.03333333333336" y="1407.9" type="line"/>
      <point x="111.6" y="1430.5" type="line"/>
      <point x="111.6" y="1500.0" type="line"/>
      <point x="345.6" y="1503.0" type="line"/>
      <point x="624.6833333333334" y="1514.1066666666666" type="line"/>
      <point x="637.6833333333334" y="1445.2733333333333" type="line"/>
      <point x="397.93333333333334" y="1406.5" type="line"/>
      <point x="393.25" y="686.0" type="line"/>
      <point x="395.8" y="94.5" type="line"/>
      <point x="421.4666666666667" y="74.66666666666666" type="line"/>
      <point x="599.2333333333333" y="114.35"/>
      <point x="902.1966666666666" y="302.06666666666666"/>
      <point x="938.7733333333334" y="476.48" type="qcurve" smooth="yes"/>
      <point x="979.0733333333334" y="654.8133333333334" type="line"/>
      <point x="1052.24" y="654.8133333333334" type="line"/>
      <point x="1008.4066666666666" y="341.24666666666667" type="line"/>
      <point x="895.7666666666667" y="194.47333333333333"/>
      <point x="569.3000000000001" y="20.13"/>
      <point x="412.9" y="-8.0" type="qcurve" smooth="yes"/>
    </contour>
    <contour>
      <point x="109.1" y="507.7666666666667" type="line"/>
      <point x="88.15" y="591.2166666666667" type="line"/>
      <point x="356.9166666666667" y="692.3166666666666" type="line"/>
      <point x="356.9166666666667" y="689.0333333333333" type="line"/>
      <point x="725.7" y="839.7833333333333" type="line"/>
      <point x="717.8333333333334" y="746.6333333333333" type="line"/>
      <point x="355.9166666666667" y="611.3333333333334" type="line"/>
      <point x="355.9166666666667" y="608.7666666666667" type="line"/>
    </contour>
    <contour>
      <point x="124.0" y="799.0" type="line"/>
      <point x="103.05" y="883.1999999999999" type="line"/>
      <point x="364.93333333333334" y="984.16" type="line"/>
      <point x="364.93333333333334" y="981.36" type="line"/>
      <point x="776.0666666666666" y="1140.0666666666668" type="line"/>
      <point x="767.0666666666666" y="1045.6" type="line"/>
      <point x="363.93333333333334" y="902.0" type="line"/>
      <point x="363.93333333333334" y="900.0" type="line"/>
    </contour>
  </outline>
</glyph>
<glyph name="trademark" format="2">
  <advance width="1925"/>
  <unicode hex="2122"/>
  <outline>
    <contour>
      <point x="54.43333333333334" y="1238.0" type="line"/>
      <point x="54.43333333333334" y="1500.0" type="line"/>
      <point x="809.6466666666666" y="1500.0" type="line"/>
      <point x="809.6466666666666" y="1238.0" type="line"/>
      <point x="746.9666666666666" y="1238.0" type="line"/>
      <point x="715.65" y="1428.0" type="line"/>
      <point x="496.27666666666664" y="1428.0" type="line"/>
      <point x="479.54" y="1412.3" type="line"/>
      <point x="477.56" y="1054.0" type="line"/>
      <point x="477.56" y="788.9" type="line"/>
      <point x="613.3266666666666" y="760.0666666666666" type="line"/>
      <point x="613.3266666666666" y="700.0" type="line"/>
      <point x="249.75333333333333" y="700.0" type="line"/>
      <point x="249.75333333333333" y="760.0666666666666" type="line"/>
      <point x="386.52" y="788.9" type="line"/>
      <point x="386.52" y="1054.0" type="line"/>
      <point x="384.52" y="1412.3" type="line"/>
      <point x="370.59666666666664" y="1428.0" type="line"/>
      <point x="148.43" y="1428.0" type="line"/>
      <point x="117.11333333333333" y="1238.0" type="line"/>
    </contour>
    <contour>
      <point x="857.98" y="702.0" type="line"/>
      <point x="857.98" y="759.0666666666666" type="line"/>
      <point x="975.62" y="786.9" type="line"/>
      <point x="977.62" y="1056.0" type="line"/>
      <point x="975.62" y="1408.1666666666667" type="line"/>
      <point x="858.08" y="1435.0" type="line"/>
      <point x="858.08" y="1500.0" type="line"/>
      <point x="1118.0833333333333" y="1500.0" type="line"/>
      <point x="1373.86" y="807.9166666666666" type="line"/>
      <point x="1634.0133333333333" y="1500.0" type="line"/>
      <point x="1877.0866666666666" y="1500.0" type="line"/>
      <point x="1877.0866666666666" y="1435.0" type="line"/>
      <point x="1769.4066666666665" y="1408.1666666666667" type="line"/>
      <point x="1767.4266666666665" y="1054.0" type="line"/>
      <point x="1769.4066666666665" y="784.9" type="line"/>
      <point x="1877.0866666666666" y="757.0666666666666" type="line"/>
      <point x="1877.0866666666666" y="700.0" type="line"/>
      <point x="1563.4666666666667" y="700.0" type="line"/>
      <point x="1563.4666666666667" y="757.0666666666666" type="line"/>
      <point x="1675.52" y="784.9" type="line"/>
      <point x="1677.5" y="1054.0" type="line"/>
      <point x="1675.52" y="1399.5" type="line"/>
      <point x="1408.97" y="695.5833333333334" type="line"/>
      <point x="1323.1633333333332" y="695.5833333333334" type="line"/>
      <point x="1049.8533333333332" y="1414.0" type="line"/>
      <point x="1047.8533333333332" y="1056.0" type="line"/>
      <point x="1049.8533333333332" y="786.9" type="line"/>
      <point x="1167.2933333333333" y="759.0666666666666" type="line"/>
      <point x="1167.2933333333333" y="702.0" type="line"/>
    </contour>
  </outline>
</glyph>
<glyph name="fi" format="2">
  <advance width="1202"/>
  <unicode hex="FB01"/>
  <outline>
    <contour>
      <point x="51.13333333333333" y="0.0" type="line"/>
      <point x="51.13333333333333" y="51.33333333333333" type="line"/>
      <point x="246.8" y="80.6" type="line"/>
      <point x="250.95" y="527.0" type="line"/>
      <point x="250.1" y="901.7266666666667" type="line"/>
      <point x="64.97333333333334" y="917.17" type="line"/>
      <point x="59.33333333333333" y="974.6" type="line"/>
      <point x="251.38333333333333" y="989.0166666666667" type="line"/>
      <point x="251.49666666666664" y="1245.8966666666668" type="line" smooth="yes"/>
      <point x="252.04333333333335" y="1375.8"/>
      <point x="398.7733333333333" y="1508.1866666666665"/>
      <point x="501.02333333333337" y="1507.9233333333332" type="qcurve" smooth="yes"/>
      <point x="547.3966666666666" y="1507.6599999999999"/>
      <point x="630.1899999999999" y="1481.9466666666667"/>
      <point x="654.51" y="1466.1" type="qcurve" smooth="yes"/>
      <point x="667.2233333333334" y="1457.8566666666666" type="line"/>
      <point x="654.8066666666667" y="1394.6333333333334" type="line"/>
      <point x="641.5666666666666" y="1399.95" type="line" smooth="yes"/>
      <point x="620.0733333333334" y="1408.9033333333332"/>
      <point x="548.4633333333333" y="1426.8233333333335"/>
      <point x="513.11" y="1426.8233333333335" type="qcurve" smooth="yes"/>
      <point x="434.38" y="1426.8233333333335"/>
      <point x="349.34666666666664" y="1328.9733333333334"/>
      <point x="349.61" y="1229.5700000000002" type="qcurve" smooth="yes"/>
      <point x="350.13666666666666" y="985.0" type="line"/>
      <point x="917.3566666666666" y="999.84" type="line"/>
      <point x="942.14" y="998.4066666666668" type="line"/>
      <point x="956.54" y="970.2566666666668" type="line"/>
      <point x="952.4066666666666" y="527.0" type="line"/>
      <point x="957.99" y="80.6" type="line"/>
      <point x="1142.6866666666665" y="52.766666666666666" type="line"/>
      <point x="1142.6866666666665" y="0.0" type="line"/>
      <point x="662.0666666666666" y="0.0" type="line"/>
      <point x="662.0666666666666" y="52.766666666666666" type="line"/>
      <point x="850.5799999999999" y="80.6" type="line"/>
      <point x="852.5799999999999" y="527.0" type="line"/>
      <point x="848.5466666666666" y="903.4866666666667" type="line"/>
      <point x="832.3366666666666" y="916.6033333333334" type="line"/>
      <point x="350.13666666666666" y="910.0233333333333" type="line"/>
      <point x="349.9866666666667" y="527.0" type="line"/>
      <point x="356.68" y="80.6" type="line"/>
      <point x="546.6700000000001" y="51.33333333333333" type="line"/>
      <point x="546.6700000000001" y="0.0" type="line"/>
    </contour>
    <contour>
      <point x="796.5766666666666" y="1323.86" type="qcurve" smooth="yes"/>
      <point x="796.5766666666666" y="1366.9733333333334"/>
      <point x="842.0866666666666" y="1413.6333333333334"/>
      <point x="885.05" y="1413.6333333333334" type="qcurve" smooth="yes"/>
      <point x="924.73" y="1413.6333333333334"/>
      <point x="973.5233333333333" y="1364.4066666666668"/>
      <point x="973.5233333333333" y="1323.86" type="qcurve" smooth="yes"/>
      <point x="973.5233333333333" y="1281.4633333333334"/>
      <point x="926.5799999999999" y="1234.7833333333333"/>
      <point x="885.05" y="1234.7833333333333" type="qcurve" smooth="yes"/>
      <point x="844.6533333333333" y="1234.7833333333333"/>
      <point x="796.5766666666666" y="1284.01"/>
    </contour>
  </outline>
</glyph>
<glyph name="De.bgr" format="2">
  <advance width="1550"/>
  <outline>
    <contour>
      <point x="1247.9766666666667" y="0.8" type="line"/>
      <point x="990.75" y="712.9000000000001" type="line"/>
      <point x="752.2533333333333" y="1369.1533333333332" type="line"/>
      <point x="511.70000000000005" y="699.7233333333334" type="line"/>
      <point x="265.39" y="0.8200000000000001" type="line"/>
      <point x="171.29999999999998" y="0.84" type="line"/>
      <point x="434.19666666666666" y="730.7933333333333" type="line"/>
      <point x="716.9833333333333" y="1507.2833333333333" type="line"/>
      <point x="813.8399999999999" y="1507.2833333333333" type="line"/>
      <point x="1092.6166666666668" y="747.54" type="line"/>
      <point x="1367.5833333333333" y="0.8" type="line"/>
    </contour>
    <contour>
      <point x="1454.3766666666666" y="-338.0" type="line"/>
      <point x="1389.8766666666668" y="0.0" type="line"/>
      <point x="160.0" y="0.0" type="line"/>
      <point x="95.5" y="-338.0" type="line"/>
      <point x="22.53333333333333" y="-338.0" type="line"/>
      <point x="32.53333333333334" y="71.45" type="line"/>
      <point x="1517.3433333333335" y="71.45" type="line"/>
      <point x="1527.3433333333335" y="-338.0" type="line"/>
    </contour>
  </outline>
</glyph>
<glyph name="acutecomb.case" format="2">
  <advance width="1024"/>
  <outline>
    <contour>
      <point x="737.96" y="1841.9033333333334" type="qcurve" smooth="yes"/>
      <point x="738.08" y="1817.2800000000002"/>
      <point x="710.3033333333333" y="1784.4166666666667"/>
      <point x="686.5433333333334" y="1767.9233333333334" type="qcurve" smooth="yes"/>
      <point x="419.5766666666667" y="1586.2666666666667" type="line"/>
      <point x="384.5366666666667" y="1627.0700000000002" type="line"/>
      <point x="588.07" y="1839.4566666666667" type="line" smooth="yes"/>
      <point x="610.8466666666667" y="1863.5366666666666"/>
      <point x="656.9833333333333" y="1894.6999999999998"/>
      <point x="680.3266666666667" y="1894.6999999999998" type="qcurve" smooth="yes"/>
      <point x="703.5566666666667" y="1894.6999999999998"/>
      <point x="737.88" y="1864.58"/>
    </contour>
  </outline>
</glyph>
<glyph name="breveinvertedcomb.case" format="2">
  <advance width="1024"/>
  <outline>
    <contour>
      <point x="271.1766666666667" y="1600.3966666666665" type="qcurve"/>
      <point x="216.54" y="1626.54" type="line"/>
      <point x="238.89666666666665" y="1711.7233333333334"/>
      <point x="396.61333333333334" y="1855.9666666666667"/>
      <point x="511.56666666666666" y="1855.9666666666667" type="qcurve" smooth="yes"/>
      <point x="622.7633333333333" y="1855.9666666666667"/>
      <point x="781.4433333333333" y="1723.5333333333333"/>
      <point x="807.7433333333333" y="1627.69" type="qcurve"/>
      <point x="748.9933333333333" y="1599.6799999999998" type="line"/>
      <point x="718.3566666666666" y="1657.5233333333333"/>
      <point x="601.17" y="1749.8566666666666"/>
      <point x="510.85" y="1749.8566666666666" type="qcurve" smooth="yes"/>
      <point x="417.84999999999997" y="1749.8566666666666"/>
      <point x="298.25" y="1658.2233333333334"/>
    </contour>
  </outline>
</glyph>
<glyph name="caroncomb.alt" format="2">
  <advance width="1024"/>
  <outline>
    <contour>
      <point x="419.7833333333333" y="1088.88" type="line"/>
      <point x="494.7166666666667" y="1399.55" type="line" smooth="yes"/>
      <point x="508.98" y="1459.4166666666665"/>
      <point x="552.5333333333333" y="1520.0"/>
      <point x="581.7233333333334" y="1520.0" type="qcurve" smooth="yes"/>
      <point x="609.48" y="1520.0"/>
      <point x="638.6166666666667" y="1492.2433333333333"/>
      <point x="638.6166666666667" y="1465.2033333333331" type="qcurve" smooth="yes"/>
      <point x="638.6166666666667" y="1438.2233333333334"/>
      <point x="615.1433333333333" y="1374.3933333333334"/>
      <point x="596.7466666666667" y="1336.9033333333332" type="qcurve" smooth="yes"/>
      <point x="468.9633333333333" y="1071.67" type="line"/>
    </contour>
  </outline>
</glyph>
<glyph name="caroncomb.case" format="2">
  <advance width="1024"/>
  <outline>
    <contour>
      <point x="512.0" y="1608.09" type="qcurve" smooth="yes"/>
      <point x="485.2066666666667" y="1608.09"/>
      <point x="448.96666666666664" y="1639.8266666666666"/>
      <point x="416.49333333333334" y="1680.99" type="qcurve" smooth="yes"/>
      <point x="229.62666666666667" y="1901.4933333333333" type="line"/>
      <point x="269.99333333333334" y="1944.8233333333333" type="line"/>
      <point x="512.0" y="1733.6266666666668" type="line"/>
      <point x="752.3066666666666" y="1942.98" type="line"/>
      <point x="794.3733333333333" y="1901.4933333333333" type="line"/>
      <point x="607.5066666666667" y="1680.99" type="line" smooth="yes"/>
      <point x="566.7166666666667" y="1632.6166666666666"/>
      <point x="538.7933333333334" y="1608.09"/>
    </contour>
  </outline>
</glyph>
<glyph name="che.bgr" format="2">
  <advance width="1193"/>
  <outline>
    <contour>
      <point x="212.79333333333332" y="894.3166666666667" type="line"/>
      <point x="36.29" y="917.15" type="line"/>
      <point x="36.29" y="980.3333333333334" type="line"/>
      <point x="286.3833333333333" y="1000.0" type="line"/>
      <point x="306.83" y="995.7" type="line"/>
      <point x="318.0733333333333" y="966.8666666666667" type="line"/>
      <point x="317.0533333333333" y="710.18" type="line" smooth="yes"/>
      <point x="317.0333333333333" y="590.94"/>
      <point x="433.10333333333335" y="493.4"/>
      <point x="569.4366666666666" y="493.4" type="qcurve" smooth="yes"/>
      <point x="660.2366666666667" y="493.4"/>
      <point x="814.9566666666667" y="516.5766666666666"/>
      <point x="892.8833333333333" y="547.6400000000001" type="qcurve"/>
      <point x="892.8833333333333" y="479.72333333333336" type="line"/>
      <point x="815.4433333333333" y="452.2033333333333"/>
      <point x="663.7466666666667" y="422.06666666666666"/>
      <point x="555.3533333333332" y="422.06666666666666" type="qcurve" smooth="yes"/>
      <point x="381.51666666666665" y="422.06666666666666"/>
      <point x="215.01666666666665" y="560.05"/>
      <point x="214.03666666666666" y="710.22" type="qcurve" smooth="yes"/>
    </contour>
    <contour>
      <point x="945.5533333333333" y="966.15" type="line"/>
      <point x="943.5133333333333" y="500.2633333333334" type="line"/>
      <point x="945.5133333333333" y="80.6" type="line"/>
      <point x="1106.8866666666665" y="51.33333333333333" type="line"/>
      <point x="1106.8866666666665" y="0.0" type="line"/>
      <point x="661.7733333333333" y="0.0" type="line"/>
      <point x="661.7733333333333" y="51.33333333333333" type="line"/>
      <point x="840.2933333333333" y="80.6" type="line"/>
      <point x="842.2533333333333" y="500.0" type="line"/>
      <point x="840.2933333333333" y="894.3166666666667" type="line"/>
      <point x="674.3066666666666" y="917.15" type="line"/>
      <point x="674.3066666666666" y="980.3333333333334" type="line"/>
      <point x="916.73" y="1000.0" type="line"/>
      <point x="934.31" y="995.7" type="line"/>
    </contour>
  </outline>
</glyph>
<glyph name="de.bgr" format="2">
  <advance width="1166"/>
  <outline>
    <contour>
      <point x="181.90333333333334" y="504.43333333333334" type="qcurve" smooth="yes"/>
      <point x="181.90333333333334" y="292.05"/>
      <point x="374.18333333333334" y="66.83333333333334"/>
      <point x="533.3333333333333" y="66.83333333333334" type="qcurve" smooth="yes"/>
      <point x="645.0066666666667" y="66.83333333333334"/>
      <point x="808.5133333333333" y="161.02333333333334"/>
      <point x="853.4466666666666" y="229.14000000000001" type="qcurve"/>
      <point x="854.0133333333333" y="832.75" type="line"/>
      <point x="813.58" y="890.8933333333333"/>
      <point x="660.8366666666666" y="964.1999999999999"/>
      <point x="553.8333333333334" y="964.1999999999999" type="qcurve" smooth="yes"/>
      <point x="384.7833333333333" y="964.1999999999999"/>
      <point x="181.90333333333334" y="709.5333333333333"/>
    </contour>
    <contour>
      <point x="851.1833333333333" y="-11.34" type="qcurve" smooth="yes"/>
      <point x="853.1633333333333" y="151.82" type="line"/>
      <point x="805.1433333333334" y="82.77"/>
      <point x="630.97" y="-14.733333333333334"/>
      <point x="510.7966666666666" y="-14.733333333333334" type="qcurve" smooth="yes"/>
      <point x="320.16" y="-14.733333333333334"/>
      <point x="67.68" y="254.71666666666667"/>
      <point x="67.68" y="487.31666666666666" type="qcurve" smooth="yes"/>
      <point x="67.68" y="733.7066666666667"/>
      <point x="332.91" y="1030.65"/>
      <point x="549.1766666666666" y="1030.65" type="qcurve" smooth="yes"/>
      <point x="652.34" y="1030.65"/>
      <point x="815.3733333333333" y="971.6166666666667"/>
      <point x="857.9966666666667" y="928.4000000000001" type="qcurve"/>
      <point x="891.9833333333333" y="1016.37" type="line"/>
      <point x="1144.8999999999999" y="993.1966666666666" type="line"/>
      <point x="1144.8999999999999" y="933.0833333333334" type="line"/>
      <point x="955.95" y="911.0666666666667" type="line"/>
      <point x="952.5733333333333" y="433.01666666666665" type="line"/>
      <point x="954.1" y="-18.723333333333333" type="line" smooth="yes"/>
      <point x="955.3514709684813" y="-283.9066584302027"/>
      <point x="730.5559999999999" y="-511.76"/>
      <point x="537.2966666666666" y="-513.1933333333333" type="qcurve" smooth="yes"/>
      <point x="432.71395663955633" y="-513.91"/>
      <point x="287.91333333333336" y="-456.93333333333334"/>
      <point x="243.72" y="-412.13666666666666" type="qcurve"/>
      <point x="208.02" y="-493.0733333333333" type="line"/>
      <point x="144.09666666666666" y="-493.0733333333333" type="line"/>
      <point x="143.99666666666667" y="-163.82666666666665" type="line"/>
      <point x="211.3733333333333" y="-163.82666666666665" type="line"/>
      <point x="222.48" y="-213.99666666666667" type="line" smooth="yes"/>
      <point x="243.341680676972" y="-312.684243553583"/>
      <point x="389.95265060241564" y="-444.4166666666667"/>
      <point x="536.8333333333334" y="-444.4166666666667" type="qcurve" smooth="yes"/>
      <point x="682.980860348278" y="-444.4166666666667"/>
      <point x="848.2244176730413" y="-254.109999608592"/>
    </contour>
  </outline>
</glyph>
<glyph name="el.bgr" format="2">
  <advance width="1043"/>
  <outline>
    <contour>
      <point x="1072.3166666666666" y="64.2" type="line"/>
      <point x="1072.3166666666666" y="0.0" type="line"/>
      <point x="655.8900000000001" y="0.0" type="line"/>
      <point x="655.8900000000001" y="64.2" type="line"/>
      <point x="804.5133333333334" y="91.16666666666666" type="line"/>
      <point x="668.3233333333334" y="477.30333333333334" type="line"/>
      <point x="511.39666666666665" y="886.6933333333333" type="line"/>
      <point x="356.07" y="471.49666666666667" type="line"/>
      <point x="220.10333333333335" y="89.18333333333334" type="line"/>
      <point x="377.58333333333337" y="64.2" type="line"/>
      <point x="377.58333333333337" y="0.0" type="line"/>
      <point x="-29.150000000000002" y="0.0" type="line"/>
      <point x="-29.150000000000002" y="64.2" type="line"/>
      <point x="127.84333333333333" y="90.6" type="line"/>
      <point x="286.34999999999997" y="496.61" type="line"/>
      <point x="475.39" y="1007.2833333333333" type="line"/>
      <point x="571.6899999999999" y="1007.2833333333333" type="line"/>
      <point x="757.2866666666666" y="508.01" type="line"/>
      <point x="917.1333333333333" y="91.31666666666666" type="line"/>
    </contour>
  </outline>
</glyph>
<glyph name="en.bgr" format="2">
  <advance width="1281"/>
  <outline>
    <contour>
      <point x="300.57" y="546.7666666666667" type="line"/>
      <point x="639.2900000000001" y="543.7666666666667" type="line"/>
      <point x="980.6866666666667" y="546.7666666666667" type="line"/>
      <point x="980.6866666666667" y="474.01666666666665" type="line"/>
      <point x="639.2900000000001" y="476.01666666666665" type="line"/>
      <point x="300.57" y="474.01666666666665" type="line"/>
    </contour>
    <contour>
      <point x="353.18" y="966.8666666666667" type="line"/>
      <point x="351.2" y="500.0" type="line"/>
      <point x="353.16" y="80.6" type="line"/>
      <point x="509.86666666666673" y="51.33333333333333" type="line"/>
      <point x="509.86666666666673" y="0.0" type="line"/>
      <point x="86.56666666666668" y="0.0" type="line"/>
      <point x="86.56666666666668" y="51.33333333333333" type="line"/>
      <point x="247.94" y="80.6" type="line"/>
      <point x="249.94" y="500.0" type="line"/>
      <point x="247.92" y="894.3166666666667" type="line"/>
      <point x="72.13333333333333" y="917.15" type="line"/>
      <point x="72.13333333333333" y="980.3333333333334" type="line"/>
      <point x="321.49" y="1000.0" type="line"/>
      <point x="341.93666666666667" y="995.7" type="line"/>
    </contour>
    <contour>
      <point x="1033.3566666666666" y="966.15" type="line"/>
      <point x="1031.3166666666666" y="500.0" type="line"/>
      <point x="1033.3166666666666" y="80.6" type="line"/>
      <point x="1194.69" y="51.33333333333333" type="line"/>
      <point x="1194.69" y="0.0" type="line"/>
      <point x="771.41" y="0.0" type="line"/>
      <point x="771.41" y="51.33333333333333" type="line"/>
      <point x="928.0966666666667" y="80.6" type="line"/>
      <point x="930.0566666666667" y="500.0" type="line"/>
      <point x="928.0966666666667" y="894.3166666666667" type="line"/>
      <point x="761.3733333333333" y="917.15" type="line"/>
      <point x="761.3733333333333" y="980.3333333333334" type="line"/>
      <point x="1004.5333333333333" y="1000.0" type="line"/>
      <point x="1022.1133333333333" y="995.7" type="line"/>
    </contour>
  </outline>
</glyph>
<glyph name="four.lc" format="2">
  <advance width="1070"/>
  <outline>
    <contour>
      <point x="708.3533333333334" y="-381.03333333333336" type="line"/>
      <point x="710.8633333333332" y="125.15" type="line"/>
      <point x="710.8633333333332" y="958.1166666666666" type="line"/>
      <point x="142.06666666666666" y="175.03333333333333" type="line"/>
      <point x="146.61333333333332" y="167.89999999999998" type="line"/>
      <point x="1025.8766666666666" y="160.73333333333335" type="line"/>
      <point x="1025.8766666666666" y="93.46" type="line"/>
      <point x="47.89" y="90.17666666666666" type="line"/>
      <point x="38.266666666666666" y="158.45" type="line"/>
      <point x="723.3166666666667" y="1098.77" type="line"/>
      <point x="784.9133333333333" y="1082.8333333333333" type="line"/>
      <point x="812.59" y="1057.9333333333334" type="line"/>
      <point x="809.4766666666667" y="127.86666666666666" type="line"/>
      <point x="809.4766666666667" y="-381.03333333333336" type="line"/>
    </contour>
  </outline>
</glyph>
<glyph name="four.tab" format="2">
  <advance width="997"/>
  <outline>
    <contour>
      <point x="3.8666666666666663" y="524.6166666666667" type="line"/>
      <point x="675.4133333333334" y="1511.4833333333333" type="line"/>
      <point x="740.5" y="1495.4666666666667" type="line"/>
      <point x="769.4933333333332" y="1461.3500000000001" type="line"/>
      <point x="766.38" y="494.5833333333333" type="line"/>
      <point x="766.38" y="90.91666666666667" type="line"/>
      <point x="990.1166666666667" y="60.93333333333333" type="line"/>
      <point x="990.1166666666667" y="0.0" type="line"/>
      <point x="411.39666666666665" y="0.0" type="line"/>
      <point x="411.39666666666665" y="60.93333333333333" type="line"/>
      <point x="663.0833333333334" y="90.91666666666667" type="line"/>
      <point x="665.5933333333334" y="491.8666666666667" type="line"/>
      <point x="665.5933333333334" y="1367.6166666666666" type="line"/>
      <point x="105.46" y="538.1666666666666" type="line"/>
      <point x="110.00666666666667" y="531.0333333333333" type="line"/>
      <point x="966.5799999999999" y="523.8666666666667" type="line"/>
      <point x="966.5799999999999" y="459.9166666666667" type="line"/>
      <point x="13.753333333333334" y="456.6333333333333" type="line"/>
    </contour>
  </outline>
</glyph>
<glyph name="hookabovecombstack.case" format="2">
  <advance width="1024"/>
  <outline>
    <contour>
      <point x="416.7033333333333" y="1556.2833333333333" type="line"/>
      <point x="416.7033333333333" y="1692.1866666666667" type="line"/>
      <point x="455.81666666666666" y="1735.9033333333334" type="line"/>
      <point x="471.7766666666667" y="1730.3566666666666"/>
      <point x="522.3533333333334" y="1724.0933333333332"/>
      <point x="551.1566666666668" y="1724.0933333333332" type="qcurve" smooth="yes"/>
      <point x="614.3033333333334" y="1724.0933333333332"/>
      <point x="670.5266666666666" y="1783.3266666666666"/>
      <point x="670.5266666666666" y="1828.9633333333334" type="qcurve" smooth="yes"/>
      <point x="670.5266666666666" y="1884.33"/>
      <point x="583.2633333333333" y="1931.2133333333334"/>
      <point x="525.5666666666666" y="1931.2133333333334" type="qcurve" smooth="yes"/>
      <point x="476.1" y="1931.2133333333334"/>
      <point x="374.92" y="1909.5666666666666"/>
      <point x="337.7366666666667" y="1893.02" type="qcurve"/>
      <point x="310.2633333333333" y="1959.5166666666667" type="line"/>
      <point x="356.45" y="1980.9533333333334"/>
      <point x="477.66" y="2007.6733333333334"/>
      <point x="539.4433333333334" y="2007.6733333333334" type="qcurve" smooth="yes"/>
      <point x="649.7666666666667" y="2007.6733333333334"/>
      <point x="773.5633333333333" y="1923.2766666666666"/>
      <point x="773.5633333333333" y="1830.68" type="qcurve" smooth="yes"/>
      <point x="773.5633333333333" y="1745.17"/>
      <point x="657.7266666666667" y="1651.05"/>
      <point x="579.6966666666667" y="1651.05" type="qcurve" smooth="yes"/>
      <point x="552.6433333333333" y="1651.05"/>
      <point x="510.1333333333333" y="1656.3866666666668"/>
      <point x="496.3233333333334" y="1660.4266666666667" type="qcurve"/>
      <point x="496.3233333333334" y="1556.2833333333333" type="line"/>
    </contour>
  </outline>
</glyph>
<glyph name="horncomb.case" format="2">
  <advance width="1024"/>
  <outline>
    <contour>
      <point x="319.34333333333336" y="1462.5466666666666" type="line"/>
      <point x="359.79333333333335" y="1455.9166666666667"/>
      <point x="411.17" y="1447.1366666666665"/>
      <point x="470.40000000000003" y="1447.1366666666665" type="qcurve" smooth="yes"/>
      <point x="533.6099999999999" y="1447.1366666666665"/>
      <point x="616.65" y="1498.93"/>
      <point x="616.65" y="1555.6866666666665" type="qcurve" smooth="yes"/>
      <point x="616.65" y="1589.27"/>
      <point x="606.0833333333334" y="1673.07"/>
      <point x="588.72" y="1727.24" type="qcurve"/>
      <point x="666.9" y="1727.24" type="line"/>
      <point x="683.81" y="1688.26"/>
      <point x="712.4966666666667" y="1584.5633333333335"/>
      <point x="712.4966666666667" y="1534.4566666666667" type="qcurve" smooth="yes"/>
      <point x="712.4966666666667" y="1443.7666666666667"/>
      <point x="592.5" y="1361.5833333333333"/>
      <point x="488.62666666666667" y="1361.5833333333333" type="qcurve" smooth="yes"/>
      <point x="450.18" y="1361.5833333333333"/>
      <point x="364.7133333333333" y="1375.4033333333332"/>
      <point x="319.34333333333336" y="1390.96" type="qcurve"/>
    </contour>
  </outline>
</glyph>
<glyph name="nine.lf" format="2">
  <advance width="1055"/>
  <outline>
    <contour>
      <point x="60.85333333333333" y="1022.5433333333333" type="qcurve" smooth="yes"/>
      <point x="63.72" y="1250.7033333333334"/>
      <point x="313.70666666666665" y="1519.7566666666667"/>
      <point x="499.5333333333333" y="1519.7566666666667" type="qcurve" smooth="yes"/>
      <point x="712.9566666666666" y="1519.7566666666667"/>
      <point x="982.27" y="1157.3300000000002"/>
      <point x="978.6866666666667" y="851.68" type="qcurve" smooth="yes"/>
      <point x="974.3866666666667" y="510.78000000000003"/>
      <point x="595.3" y="26.123333333333335"/>
      <point x="273.85333333333335" y="-68.94333333333333" type="qcurve"/>
      <point x="248.72333333333333" y="-1.5400000000000005" type="line"/>
      <point x="521.66" y="84.67666666666666"/>
      <point x="863.8599999999999" y="506.1066666666666"/>
      <point x="867.4433333333333" y="857.5066666666667" type="qcurve" smooth="yes"/>
      <point x="870.31" y="1144.89"/>
      <point x="660.2266666666667" y="1448.8899999999999"/>
      <point x="500.40999999999997" y="1448.8899999999999" type="qcurve" smooth="yes"/>
      <point x="350.43666666666667" y="1448.8899999999999"/>
      <point x="171.55666666666667" y="1234.0533333333333"/>
      <point x="169.40666666666667" y="1035.8566666666668" type="qcurve" smooth="yes"/>
      <point x="167.2566666666667" y="849.2233333333334"/>
      <point x="349.34333333333336" y="659.6633333333334"/>
      <point x="494.9533333333333" y="659.6633333333334" type="qcurve" smooth="yes"/>
      <point x="549.95" y="659.6633333333334"/>
      <point x="660.2166666666667" y="693.8633333333333"/>
      <point x="691.6033333333334" y="712.5833333333334" type="qcurve"/>
      <point x="711.4666666666666" y="664.8733333333333" type="line"/>
      <point x="677.27" y="630.3066666666666"/>
      <point x="547.5433333333334" y="575.5566666666667"/>
      <point x="465.2266666666667" y="575.5566666666667" type="qcurve" smooth="yes"/>
      <point x="288.09333333333336" y="575.5566666666667"/>
      <point x="57.986666666666665" y="818.3233333333333"/>
    </contour>
  </outline>
</glyph>
<glyph name="six.lf" format="2">
  <advance width="1057"/>
  <outline>
    <contour>
      <point x="76.62666666666667" y="624.6933333333334" type="qcurve" smooth="yes"/>
      <point x="80.92666666666668" y="965.5933333333334"/>
      <point x="460.0133333333333" y="1464.5833333333333"/>
      <point x="781.46" y="1559.65" type="qcurve"/>
      <point x="806.51" y="1492.3666666666668" type="line"/>
      <point x="533.5733333333334" y="1406.15"/>
      <point x="188.55666666666667" y="970.2666666666667"/>
      <point x="184.9733333333333" y="618.8666666666667" type="qcurve" smooth="yes"/>
      <point x="182.10666666666665" y="331.48333333333335"/>
      <point x="395.7733333333333" y="43.13333333333333"/>
      <point x="560.0666666666667" y="43.13333333333333" type="qcurve" smooth="yes"/>
      <point x="703.4266666666666" y="43.13333333333333"/>
      <point x="882.2933333333333" y="262.76666666666665"/>
      <point x="885.16" y="454.85" type="qcurve" smooth="yes"/>
      <point x="888.0266666666666" y="648.65"/>
      <point x="705.97" y="831.0433333333333"/>
      <point x="571.42" y="831.0433333333333" type="qcurve" smooth="yes"/>
      <point x="505.36333333333334" y="831.0433333333333"/>
      <point x="395.36" y="796.3166666666667"/>
      <point x="363.71" y="777.3333333333334" type="qcurve"/>
      <point x="343.8466666666667" y="825.8333333333334" type="line"/>
      <point x="378.0433333333333" y="860.4"/>
      <point x="513.0366666666666" y="915.15"/>
      <point x="590.0866666666667" y="915.15" type="qcurve" smooth="yes"/>
      <point x="767.2199999999999" y="915.15"/>
      <point x="997.3266666666666" y="679.55"/>
      <point x="996.61" y="475.8" type="qcurve" smooth="yes"/>
      <point x="995.8933333333333" y="247.05"/>
      <point x="747.8933333333333" y="-27.733333333333334"/>
      <point x="559.2" y="-27.733333333333334" type="qcurve" smooth="yes"/>
      <point x="345.7766666666667" y="-27.733333333333334"/>
      <point x="73.04333333333334" y="319.0433333333333"/>
    </contour>
  </outline>
</glyph>
<glyph name="tildecombstack.case" format="2">
  <advance width="1024"/>
  <outline>
    <contour>
      <point x="212.46" y="1710.1966666666665" type="line"/>
      <point x="240.34333333333336" y="1761.7966666666669"/>
      <point x="339.98999999999995" y="1848.8566666666666"/>
      <point x="398.93666666666667" y="1848.8566666666666" type="qcurve" smooth="yes"/>
      <point x="434.3466666666667" y="1848.8566666666666"/>
      <point x="495.62" y="1825.5266666666666"/>
      <point x="528.5633333333333" y="1804.7933333333333" type="qcurve" smooth="yes"/>
      <point x="551.1633333333333" y="1790.4566666666667"/>
      <point x="625.1466666666666" y="1747.7566666666667"/>
      <point x="661.2933333333333" y="1747.7566666666667" type="qcurve" smooth="yes"/>
      <point x="694.9866666666667" y="1747.7566666666667"/>
      <point x="760.28" y="1791.4766666666667"/>
      <point x="780.3533333333334" y="1821.7766666666666" type="qcurve"/>
      <point x="816.8066666666666" y="1777.4666666666667" type="line"/>
      <point x="785.64" y="1715.0766666666668"/>
      <point x="693.9233333333334" y="1647.3"/>
      <point x="647.1999999999999" y="1647.3" type="qcurve" smooth="yes"/>
      <point x="605.8100000000001" y="1647.3"/>
      <point x="524.4633333333333" y="1683.7966666666666"/>
      <point x="500.56" y="1700.68" type="qcurve" smooth="yes"/>
      <point x="472.82" y="1719.9066666666668"/>
      <point x="409.66666666666663" y="1748.9666666666667"/>
      <point x="384.7633333333333" y="1748.9666666666667" type="qcurve" smooth="yes"/>
      <point x="344.09" y="1748.9666666666667"/>
      <point x="269.96666666666664" y="1689.04"/>
      <point x="254.17666666666665" y="1666.3066666666666" type="qcurve"/>
    </contour>
  </outline>
</glyph>
<glyph name="ze.bgr" format="2">
  <advance width="925"/>
  <outline>
    <contour>
      <point x="458.46" y="951.2766666666666" type="qcurve" smooth="yes"/>
      <point x="342.09653333333335" y="951.2766666666666"/>
      <point x="194.29858856122698" y="842.3555236609043"/>
      <point x="178.67000000000002" y="742.9766666666666" type="qcurve" smooth="yes"/>
      <point x="170.43" y="696.39" type="line"/>
      <point x="103.05333333333333" y="696.39" type="line"/>
      <point x="103.15333333333332" y="1001.82" type="line"/>
      <point x="167.79333333333332" y="1001.82" type="line"/>
      <point x="193.46" y="936.65" type="line"/>
      <point x="236.00517249773" y="974.1508046648506"/>
      <point x="377.685862977607" y="1021.94"/>
      <point x="465.00333333333333" y="1021.94" type="qcurve" smooth="yes"/>
      <point x="627.2196701388978" y="1021.94"/>
      <point x="816.0833333333333" y="852.4223577235766"/>
      <point x="816.0833333333333" y="685.4333333333333" type="qcurve" smooth="yes"/>
      <point x="816.0833333333333" y="553.7520585161966"/>
      <point x="694.638274520298" y="366.53399293571"/>
      <point x="568.52" y="314.9533333333333" type="qcurve"/>
      <point x="568.52" y="310.9533333333333" type="line"/>
      <point x="705.789613588461" y="277.558839333596"/>
      <point x="865.8166666666666" y="77.88986261630767"/>
      <point x="865.8166666666666" y="-85.73" type="qcurve" smooth="yes"/>
      <point x="865.8166666666666" y="-284.92849056604865"/>
      <point x="650.151884057972" y="-511.76"/>
      <point x="456.07" y="-511.76" type="qcurve" smooth="yes"/>
      <point x="351.327365269462" y="-511.76"/>
      <point x="206.45666666666665" y="-454.9533333333334"/>
      <point x="163.85666666666665" y="-412.13666666666666" type="qcurve"/>
      <point x="128.15666666666664" y="-493.0733333333333" type="line"/>
      <point x="64.23333333333333" y="-493.0733333333333" type="line"/>
      <point x="64.13333333333333" y="-163.82666666666665" type="line"/>
      <point x="131.51" y="-163.82666666666665" type="line"/>
      <point x="142.61666666666667" y="-213.99666666666667" type="line" smooth="yes"/>
      <point x="164.53" y="-317.14"/>
      <point x="320.3366666666667" y="-438.68333333333334"/>
      <point x="458.1466666666667" y="-438.68333333333334" type="qcurve" smooth="yes"/>
      <point x="604.4466666666667" y="-438.68333333333334"/>
      <point x="755.22" y="-258.70195223261834"/>
      <point x="755.22" y="-83.52333333333334" type="qcurve" smooth="yes"/>
      <point x="755.22" y="78.44678381256901"/>
      <point x="584.9243040839114" y="268.48"/>
      <point x="435.05333333333334" y="268.42" type="qcurve" smooth="yes"/>
      <point x="300.93666666666667" y="268.36" type="line"/>
      <point x="300.93666666666667" y="337.5133333333333" type="line"/>
      <point x="431.78666666666663" y="337.4533333333333" type="line" smooth="yes"/>
      <point x="554.8327822580637" y="337.3933333333333"/>
      <point x="708.92" y="520.1733333333333"/>
      <point x="708.92" y="671.9499999999999" type="qcurve" smooth="yes"/>
      <point x="708.92" y="816.8766666666667"/>
      <point x="579.1196328927987" y="951.2766666666666"/>
    </contour>
  </outline>
</glyph>
<glyph name="zero.lc" format="2">
  <advance width="1259"/>
  <outline>
    <contour>
      <point x="70.88666666666667" y="546.7766666666666" type="qcurve" smooth="yes"/>
      <point x="70.88666666666667" y="783.6366666666667"/>
      <point x="377.94" y="1115.6933333333334"/>
      <point x="630.1966666666666" y="1115.6933333333334" type="qcurve" smooth="yes"/>
      <point x="885.6033333333334" y="1115.6933333333334"/>
      <point x="1188.6066666666666" y="805.3533333333332"/>
      <point x="1188.6066666666666" y="553.7566666666667" type="qcurve" smooth="yes"/>
      <point x="1188.6066666666666" y="317.89666666666665"/>
      <point x="883.8566666666667" y="-22.0"/>
      <point x="631.6" y="-22.0" type="qcurve" smooth="yes"/>
      <point x="379.08" y="-22.0"/>
      <point x="70.88666666666667" y="292.91666666666663"/>
    </contour>
    <contour>
      <point x="184.78333333333336" y="570.8866666666667" type="qcurve" smooth="yes"/>
      <point x="184.78333333333336" y="339.17999999999995"/>
      <point x="432.3833333333333" y="50.279999999999994"/>
      <point x="628.8066666666667" y="50.279999999999994" type="qcurve" smooth="yes"/>
      <point x="838.8266666666667" y="50.279999999999994"/>
      <point x="1073.54" y="327.05333333333334"/>
      <point x="1073.54" y="554.4733333333332" type="qcurve" smooth="yes"/>
      <point x="1073.54" y="763.5"/>
      <point x="829.75" y="1038.8466666666666"/>
      <point x="632.3466666666666" y="1038.8466666666666" type="qcurve" smooth="yes"/>
      <point x="418.8933333333333" y="1038.8466666666666"/>
      <point x="184.78333333333336" y="786.8933333333333"/>
    </contour>
  </outline>
</glyph>
<glyph name="zero.tab" format="2">
  <advance width="997"/>
  <outline>
    <contour>
      <point x="56.4" y="748.15" type="qcurve" smooth="yes"/>
      <point x="56.4" y="1096.7333333333333"/>
      <point x="296.9166666666667" y="1520.0"/>
      <point x="499.6" y="1520.0" type="qcurve" smooth="yes"/>
      <point x="705.1333333333333" y="1520.0"/>
      <point x="940.8000000000001" y="1099.15"/>
      <point x="940.8000000000001" y="752.5666666666667" type="qcurve" smooth="yes"/>
      <point x="940.8000000000001" y="419.1"/>
      <point x="708.4166666666666" y="-27.016666666666666"/>
      <point x="502.1666666666667" y="-27.016666666666666" type="qcurve" smooth="yes"/>
      <point x="295.35" y="-27.016666666666666"/>
      <point x="56.4" y="396.1333333333333"/>
    </contour>
    <contour>
      <point x="165.33333333333331" y="767.7" type="qcurve" smooth="yes"/>
      <point x="165.61666666666667" y="435.85"/>
      <point x="347.0333333333333" y="45.21333333333333"/>
      <point x="498.6" y="45.21333333333333" type="qcurve" smooth="yes"/>
      <point x="654.5833333333334" y="45.21333333333333"/>
      <point x="830.1500000000001" y="415.46666666666664"/>
      <point x="831.8666666666667" y="752.45" type="qcurve" smooth="yes"/>
      <point x="833.8666666666667" y="1077.8833333333334"/>
      <point x="652.1666666666667" y="1437.3799999999999"/>
      <point x="500.1666666666667" y="1437.3799999999999" type="qcurve" smooth="yes"/>
      <point x="341.6166666666667" y="1437.3799999999999"/>
      <point x="164.33333333333331" y="1097.2666666666667"/>
    </contour>
  </outline>
</glyph>
